<?xml version="1.0" encoding="UTF-8"?><svg xmlns="http://www.w3.org/2000/svg" viewBox="0 0 284.3 53.43"><g id="a"/><g id="b"><g id="c"><g><path d="M9.32,50.97c-2.82-1.5-5.08-3.69-6.77-6.56-1.7-2.87-2.54-6.21-2.54-10.03s.85-7.13,2.54-9.92c1.7-2.79,3.95-4.91,6.77-6.34,2.82-1.43,5.8-2.15,8.96-2.15s6.21,.73,9.03,2.19c2.82,1.46,5.1,3.58,6.84,6.38,1.74,2.79,2.62,6.08,2.62,9.85s-.87,7.17-2.62,10.03c-1.74,2.87-4.03,5.05-6.84,6.56-2.82,1.5-5.83,2.26-9.03,2.26s-6.14-.75-8.96-2.26Zm13.15-2.47c1.07-1.62,1.84-3.65,2.29-6.09,.45-2.44,.68-5.11,.68-8.03s-.23-5.54-.68-7.88c-.45-2.34-1.22-4.3-2.29-5.88s-2.47-2.36-4.19-2.36-3.09,.79-4.12,2.36c-1.03,1.58-1.76,3.52-2.19,5.84-.43,2.32-.64,4.96-.64,7.92,0,4.78,.53,8.73,1.58,11.86,1.05,3.13,2.84,4.69,5.37,4.69,1.72,0,3.12-.81,4.19-2.44Z"/><path d="M37.24,51.31c.72-.36,1.31-.97,1.79-1.83,.48-.86,.72-2.05,.72-3.58V9.28c0-1.43-.23-2.54-.68-3.33-.45-.79-1.03-1.31-1.72-1.58-.67-.25-1.47-.41-2.39-.46-.05,0-.11,0-.16,.01l-.28,.06-.07-.51c-.04-.31,.17-.61,.49-.66L49.45,.3c.36-.06,.69,.22,.69,.58V45.9c0,1.53,.24,2.72,.72,3.58,.48,.86,1.09,1.47,1.83,1.83,.63,.3,1.35,.55,2.16,.73,.27,.06,.45,.3,.45,.57h0c0,.33-.26,.59-.59,.59h-19.53c-.33,0-.59-.26-.59-.59h0c0-.28,.19-.52,.46-.58,.85-.18,1.58-.43,2.19-.73Z"/><path d="M76.78,17.92c2.15,1.1,4.2,2.76,6.15,4.98,.21,.24,.19,.61-.05,.82l-4.8,4.4c-.37,.34-.96,.1-.99-.4-.15-2.68-.63-4.79-1.46-6.33-.96-1.77-2.41-2.65-4.37-2.65-2.05,0-3.68,1.07-4.87,3.22-1.19,2.15-1.79,5.45-1.79,9.89,0,5.26,.57,9.36,1.72,12.32,1.15,2.96,2.98,4.44,5.52,4.44,1.29,0,2.46-.37,3.51-1.11,.92-.65,1.73-1.51,2.43-2.58,.17-.26,.51-.34,.78-.19l.04,.03c.26,.15,.38,.48,.25,.76-1.05,2.22-2.56,4.05-4.54,5.49-2.13,1.55-4.57,2.33-7.34,2.33-2.48,0-4.74-.67-6.77-2.01-2.03-1.34-3.65-3.37-4.87-6.09s-1.83-6.07-1.83-10.03,.72-7.52,2.15-10.39,3.37-5.03,5.8-6.48c2.44-1.46,5.13-2.19,8.1-2.19,2.53,0,4.94,.59,7.24,1.76Zm1.79,33.36c-.48-.67-.84-1.41-1.07-2.22-.24-.81-.36-1.6-.36-2.36V9c0-1.48-.23-2.62-.68-3.4-.45-.79-1.03-1.3-1.72-1.54-.69-.24-1.57-.38-2.62-.43h-.29l-.07-.51c-.04-.32,.17-.61,.49-.66L86.99,.01c.36-.06,.69,.22,.69,.58V45.61c0,1.53,.24,2.72,.72,3.58,.48,.86,1.07,1.47,1.79,1.83,.61,.3,1.34,.55,2.19,.73,.27,.06,.46,.3,.46,.58h0c0,.33-.26,.59-.59,.59h-12.06c-.16,0-.32-.06-.43-.18-.49-.51-.89-1-1.19-1.47Z"/><path d="M101.22,52.64c-2.15-.45-4.49-1.15-7.02-2.1-.3-.11-.5-.4-.49-.72l.13-9.18c0-.42,.34-.75,.76-.75h0c.29,0,.55,.17,.68,.42,1.31,2.62,2.62,4.67,3.91,6.17,1.36,1.58,2.71,2.71,4.05,3.4,1.34,.69,2.75,1.04,4.23,1.04,1.72,0,3.05-.41,3.98-1.22,.93-.81,1.4-1.93,1.4-3.37,0-1.53-.55-2.75-1.65-3.65-1.1-.91-2.82-1.86-5.16-2.87-.76-.29-1.36-.53-1.79-.72-.43-.19-.99-.43-1.7-.71l-.04-.02-1.2-.56c-1.96-.96-3.52-1.93-4.69-2.94-1.17-1-2.07-2.13-2.69-3.37-.62-1.24-.93-2.63-.93-4.16,0-2.2,.56-4.14,1.68-5.84,1.12-1.7,2.73-3.02,4.84-3.98,2.1-.96,4.63-1.43,7.6-1.43,1.72,0,3.59,.2,5.63,.61,1.88,.38,3.84,.97,5.86,1.78,.29,.12,.48,.4,.48,.71l-.06,8.47c0,.42-.34,.75-.76,.75h-.03c-.31,0-.58-.19-.7-.47-1.48-3.48-3.07-5.9-4.79-7.27s-3.69-2.15-5.7-2.15c-1.86,0-3.33,.42-4.41,1.25-1.07,.84-1.61,1.92-1.61,3.26,0,.91,.29,1.68,.86,2.33s1.34,1.22,2.29,1.72c.96,.5,2.39,1.16,4.3,1.97,.72,.29,1.43,.6,2.15,.93,.71,.33,1.46,.71,2.26,1.13,.02,.01,.05,.02,.07,.03l.32,.13c1.53,.67,2.85,1.42,3.98,2.26,1.12,.84,2.04,1.92,2.76,3.26,.72,1.34,1.07,2.96,1.07,4.87,0,3.63-1.27,6.48-3.8,8.56-2.53,2.08-5.85,3.12-9.96,3.12-1.77,0-3.8-.24-6.09-.72Z"/><path d="M130.03,51.31c-2.63-1.41-4.75-3.52-6.38-6.34-1.62-2.82-2.44-6.23-2.44-10.25,0-3.73,.79-7,2.36-9.82,1.58-2.82,3.74-4.98,6.48-6.48,2.75-1.5,5.89-2.26,9.42-2.26,2.1,0,4.24,.28,6.41,.82,2.05,.52,3.95,1.2,5.68,2.04,.19,.09,.3,.28,.3,.49l.07,9.44c0,.3-.24,.55-.54,.55h-.31c-.22,0-.42-.14-.5-.34-1.44-3.59-2.96-6.18-4.56-7.75-1.65-1.62-3.45-2.44-5.41-2.44-2.82,0-4.93,1.3-6.34,3.91-1.41,2.6-2.11,5.91-2.11,9.92,.05,2.91,.5,5.53,1.36,7.85,.86,2.32,2.08,4.12,3.65,5.41s3.46,1.93,5.66,1.93c2.01,0,3.83-.53,5.48-1.58,1.55-.99,2.9-2.23,4.05-3.73,.13-.17,.34-.25,.55-.2h0c.32,.07,.5,.41,.39,.72-.59,1.56-1.49,3.09-2.7,4.57-1.36,1.67-3.09,3.03-5.2,4.08-2.1,1.05-4.47,1.58-7.09,1.58-2.91,0-5.69-.71-8.31-2.11Z"/><path d="M153.18,51.02c.72-.36,1.31-.97,1.79-1.83,.48-.86,.72-2.05,.72-3.58V9c0-1.43-.23-2.54-.68-3.33-.45-.79-1.02-1.31-1.68-1.58-.65-.25-1.43-.39-2.35-.39-.05,0-.11-.01-.16-.03h0c-.17-.06-.3-.19-.32-.37l-.03-.21c-.04-.3,.17-.58,.47-.63L165.42,0c.35-.06,.66,.21,.66,.56V45.61c0,1.53,.21,2.72,.64,3.58s.97,1.47,1.61,1.83c.54,.3,1.18,.54,1.91,.73,.25,.06,.42,.29,.42,.55v.06c0,.31-.25,.57-.57,.57h-18.93c-.31,0-.57-.25-.57-.57v-.05c0-.26,.18-.49,.43-.55,.82-.18,1.53-.43,2.15-.73Zm22.97,0c.6-.36,1.09-.97,1.47-1.83,.38-.86,.57-2.05,.57-3.58V29.42c0-2.2-.54-3.82-1.61-4.87-1.07-1.05-2.43-1.6-4.05-1.65-1.24-.05-2.48,.21-3.73,.79-.88,.41-1.72,.95-2.5,1.62-.37,.32-.94,.06-.94-.43h0c0-.08,.02-.16,.05-.23,1-2.34,2.53-4.3,4.58-5.87,2.08-1.6,4.53-2.4,7.34-2.4,2.05,0,3.93,.44,5.63,1.33,1.7,.88,3.06,2.21,4.08,3.98,1.03,1.77,1.54,3.87,1.54,6.31v17.63c0,1.53,.24,2.72,.72,3.58,.48,.86,1.06,1.47,1.76,1.83,.59,.31,1.29,.55,2.11,.73,.26,.06,.43,.29,.43,.55v.05c0,.31-.25,.57-.57,.57h-18.43c-.31,0-.57-.25-.57-.57v-.07c0-.25,.16-.47,.4-.54,.65-.18,1.22-.42,1.71-.72Z"/><path d="M266.24,51.31c.72-.36,1.31-.97,1.79-1.83,.48-.86,.72-2.05,.72-3.58V9.28c0-1.43-.23-2.54-.68-3.33-.45-.79-1.03-1.31-1.72-1.58-.67-.25-1.47-.41-2.39-.46-.05,0-.11,0-.16,.01l-.28,.06-.07-.51c-.04-.31,.17-.61,.49-.66l14.51-2.51c.36-.06,.69,.22,.69,.58V45.9c0,1.53,.24,2.72,.72,3.58,.48,.86,1.09,1.47,1.83,1.83,.63,.3,1.35,.55,2.16,.73,.27,.06,.45,.3,.45,.57h0c0,.33-.26,.59-.59,.59h-19.53c-.33,0-.59-.26-.59-.59h0c0-.28,.19-.52,.46-.58,.85-.18,1.58-.43,2.19-.73Z"/><path d="M239.14,51.04c-2.82-1.5-5.08-3.69-6.77-6.56-1.7-2.87-2.54-6.21-2.54-10.03s.85-7.13,2.54-9.92c1.7-2.79,3.95-4.91,6.77-6.34,2.82-1.43,5.8-2.15,8.96-2.15s6.21,.73,9.03,2.19c2.82,1.46,5.1,3.58,6.84,6.38,1.74,2.79,2.62,6.08,2.62,9.85s-.87,7.17-2.62,10.03c-1.74,2.87-4.03,5.05-6.84,6.56-2.82,1.5-5.83,2.26-9.03,2.26s-6.14-.75-8.96-2.26Zm13.15-2.47c1.07-1.62,1.84-3.65,2.29-6.09,.45-2.44,.68-5.11,.68-8.03s-.23-5.54-.68-7.88c-.45-2.34-1.22-4.3-2.29-5.88s-2.47-2.36-4.19-2.36-3.09,.79-4.12,2.36c-1.03,1.58-1.76,3.52-2.19,5.84-.43,2.32-.64,4.96-.64,7.92,0,4.78,.53,8.73,1.58,11.86,1.05,3.13,2.84,4.69,5.37,4.69,1.72,0,3.12-.81,4.19-2.44Z"/><path d="M200.16,51.04c-2.82-1.5-5.08-3.69-6.77-6.56-1.7-2.87-2.54-6.21-2.54-10.03s.85-7.13,2.54-9.92c1.7-2.79,3.95-4.91,6.77-6.34,2.82-1.43,5.8-2.15,8.96-2.15s6.21,.73,9.03,2.19c2.82,1.46,5.1,3.58,6.84,6.38,1.74,2.79,2.62,6.08,2.62,9.85s-.87,7.17-2.62,10.03c-1.74,2.87-4.03,5.05-6.84,6.56-2.82,1.5-5.83,2.26-9.03,2.26s-6.14-.75-8.96-2.26Zm13.15-2.47c1.07-1.62,1.84-3.65,2.29-6.09,.45-2.44,.68-5.11,.68-8.03s-.23-5.54-.68-7.88c-.45-2.34-1.22-4.3-2.29-5.88s-2.47-2.36-4.19-2.36-3.09,.79-4.12,2.36c-1.03,1.58-1.76,3.52-2.19,5.84-.43,2.32-.64,4.96-.64,7.92,0,4.78,.53,8.73,1.58,11.86,1.05,3.13,2.84,4.69,5.37,4.69,1.72,0,3.12-.81,4.19-2.44Z"/></g></g></g></svg>