<?xml version="1.0" encoding="UTF-8"?><svg xmlns="http://www.w3.org/2000/svg" viewBox="0 0 895.05 462.16"><defs><style>.d,.e,.f,.g,.h,.i,.j{stroke:#000;}.d,.e,.f,.h,.i{stroke-miterlimit:10;}.d,.e,.g,.i,.j{fill:none;}.d,.e,.g,.j{stroke-width:3px;}.d,.i,.j{stroke-linecap:round;}.g,.j{stroke-linejoin:round;}.h{fill:#f7efe2;}.i{stroke-width:4px;}</style></defs><g id="a"/><g id="b"><g id="c"><g><g><path d="M734.18,49.92c40.1,0,83.4,24.17,108.75,52.36,4.51,5.02,8.95,10.2,12.01,16.21,2.74,5.39,4.29,11.29,5.83,17.14,2.95,11.27,5.9,22.53,8.86,33.8,2.35,8.96,4.71,17.97,8.61,26.36,4.34,9.34,10.72,19.05,8.27,29.05-2.76,11.27-15.6,16.97-27.16,17.98-17.67,1.55-28.45,14.36-44.37,20.58-11.96,4.67-24.66,7.39-37.46,8.31-3.45,.25-6.9,.37-10.35,.37-14.16,0-28.3-2.02-42.07-5.51-4.76-1.21-9.49-2.6-14.15-4.14-21.75-7.2-42.66-17.97-59.11-33.92s-28.15-37.43-29.65-60.29c-.3-4.64-.23-9.48-2.22-13.68-1.44-3.05-3.85-5.5-6-8.1-6.96-8.42-11.47-19.18-10.97-30.09,.5-10.91,6.52-21.77,16.28-26.67,5.91-2.97,12.65-3.65,19.1-5.12,27.96-6.38,50.85-27.87,79.04-33.14,5.49-1.02,11.09-1.51,16.77-1.51m0-8c-6.26,0-12.39,.55-18.24,1.64-15.79,2.95-29.73,10.42-43.21,17.65-12.18,6.53-23.69,12.7-36.15,15.55-1.53,.35-3.1,.66-4.76,.98-5.3,1.03-10.77,2.09-16.14,4.79-11.91,5.98-20.03,19.11-20.68,33.46-.56,12.26,3.98,24.89,12.79,35.55,.47,.57,.96,1.14,1.45,1.71,1.44,1.68,2.8,3.27,3.49,4.72,1.01,2.12,1.17,5.22,1.34,8.5,.04,.76,.08,1.52,.13,2.28,1.53,23.36,13.22,47.24,32.06,65.51,15.79,15.31,36.7,27.35,62.16,35.77,4.9,1.62,9.84,3.07,14.69,4.3,15.05,3.82,29.87,5.76,44.04,5.76,3.66,0,7.34-.13,10.92-.39,13.96-1,27.35-3.98,39.8-8.84,6.86-2.68,12.62-6.31,18.2-9.81,8.07-5.08,15.04-9.46,23.96-10.25,7.37-.65,14.56-2.86,20.26-6.23,7.35-4.35,12.19-10.52,13.98-17.82,2.73-11.13-2.19-20.99-6.52-29.68-.81-1.61-1.57-3.14-2.26-4.64-3.61-7.77-5.91-16.54-8.13-25.02l-8.86-33.8c-1.62-6.17-3.29-12.56-6.43-18.74-3.53-6.94-8.45-12.67-13.19-17.94-24.62-27.38-69.64-55.01-114.7-55.01h0Z"/><path class="d" d="M738.94,149.15c3.04-12.24,3.31-30.28-10.06-36.56-10.01-4.7-22.34,.51-26.71,10.54l-15.87,49.95c6.94-2.18,13.9-4.62,21.16-5.48,2.39-.28,4.82-.45,7.22-.2s4.56,1.24,6.9,1.96c1.39,.42,3.56,.41,3.83-1.44,.16-1.07-.41-2.34-.5-3.41s-.05-2.24,.14-3.25c.48-2.63,1.84-4.9,3.75-6.74,1.3-1.26,10-4.8,10.14-5.35Z"/><path class="i" d="M752.66,158.83c-6.4-12.67-26.54-7.94-27.51,5.91-.97,13.93,18.93,24.77,26.11,9.81"/><path class="d" d="M793.49,116.21s13.16,4.65,14.59,16.62"/><path class="d" d="M708.87,104.87s11.19-7.87,21.9-5.47"/><path class="d" d="M813.56,166.44s-1.29,12.88-3.45,15.18"/><path class="d" d="M821.49,170s-1.33,7.55-2.36,9.17"/><path d="M729.8,113.9c2.07,2.13,3.36,4.94,.96,7.27-2.53,2.47-5.46,4.83-7.65,7.57,.57-.67,4.64,2.3,5.11,2.66,5.32,4.14-.56,16.32-2,21.71s-2.9,10.73-4.39,16.09c0,0-14.07-3.86-35.53,3.07l15.87-49.95s3.84-7.58,11.8-11.33c5.25-2.47,11.8-1.25,15.83,2.89Z"/><path class="d" d="M756.93,179.67c-.32-.31-.29-.93,.24-2.21,3.22-7.73,5.94-15.64,8.78-23.52l3.98-11.04,.2-.55s5.55-15.14,18.94-13.77c17.79,1.82,16.71,27.61,14.39,39.78-2.06,10.81-5.86,20.42-9.98,30.56-2.57-2.34-5.32-4.51-8.11-6.59-5.43-4.04-11.22-7.82-17.53-10.33-1.74-.69-3.53-1.28-5.36-1.67-.92-.19-1.85-.28-2.78-.34-1.32-.07-2.35,.06-2.77-.33Z"/><path d="M798.94,135.02s2.3,5.56-2.16,8.06c-4.47,2.51-7.24,4.68-7.24,4.68,0,0-.96,1.17,3.64,3.41,5.6,2.73,2.97,13.12,1.85,17.73-1.94,7.97-5.58,25.53-5.58,25.53-7.24-5.33-15.11-10.6-23.51-13.89-2.36-.92-4.76-1.67-7.32-1.52-1.98,.12-2.44-1.01-1.97-2.74,.59-2.2,1.35-4.26,2.17-6.4,2.22-5.76,4.62-11.44,7.06-17.11,1.84-4.28,3.71-8.56,5.61-12.82,.59-1.32,1.3-4.44,2.43-5.42,.03-.03,15.25-13.2,25.03,.48Z"/><path class="d" d="M712.51,229.28s7.45,9.24,19.97,6.76"/><path class="d" d="M793.49,198.93l6.8,7.02s3.32,3.93,8.43,6,9.29,2.68,12.28,7.46-9.16,5.28-9.16,5.28c0,0-13.05,.93-18.05-2.52-2.61,.84-5.43,1.42-8.17,1.54-3.21,.14-5.88-1.2-8.46-2.97-1.11-.76-2.67-2.54-4-2.79-1.5-.28-2.58,.86-3.86,1.38-9.16,3.73-14.94-4.91-19.78-11.08-3.16-4.03-6.51-10.88-11.34-12.95-4.82-2.07-11.03,1.77-15.15,4-5.17,2.8-9.58,6.93-15.79,7.05-6.13,.12-13.95-1.3-14.52-8.82,0,0-19.19,5.24-20.21-11.82,0,0-18.2-.52-16.65-11.14,0,0,.16-3.01,7.11-.55,4.28,1.51,8.89,1.61,13.36,1.15,3.41-.35,8.73-.52,10.64-3.95"/><path class="d" d="M757.36,179.95s-5.39-.46-5.55-.59"/><path class="d" d="M672.5,185.72s5.33,.43,9-1.08"/><path class="d" d="M692.71,197.54s5.12-1.19,7.39-3.1"/><path class="d" d="M773.67,217.95s-3.56-2.86-6.93-8.28"/><path class="d" d="M793.79,222.17s-9.18-6.3-11.59-12.5"/><circle cx="699.64" cy="57.62" r="1.56"/><circle cx="768.56" cy="67.62" r="1.56"/><circle cx="805.99" cy="88.12" r="1.56"/><circle cx="780.97" cy="70.91" r="1.56"/><circle cx="787.22" cy="69.35" r="1.56"/><circle cx="792.7" cy="77.95" r="1.56"/><circle cx="801.3" cy="77.95" r="1.56"/><circle cx="809.9" cy="77.17" r="1.56"/><circle cx="779.4" cy="61.53" r="1.56"/><circle cx="764.54" cy="60.74" r="1.56"/><circle cx="752.03" cy="59.96" r="1.56"/><circle cx="752.81" cy="55.27" r="1.56"/><circle cx="742.65" cy="56.83" r="1.56"/><circle cx="739.52" cy="51.36" r="1.56"/><circle cx="728.57" cy="56.83" r="1.56"/><circle cx="723.88" cy="52.14" r="1.56"/><circle cx="714.5" cy="56.05" r="1.56"/><circle cx="820.07" cy="87.33" r="1.56"/><circle cx="816.16" cy="95.15" r="1.56"/><circle cx="830.23" cy="96.72" r="1.56"/><path d="M710.26,207.67c-.76,8.35,2.01,17.81,10.6,20.41,7.7,2.33,16.95,2.66,23.43-2.96,3.42-2.97,6.02-7.62,8.37-11.59l-13.18-17.51c-1.44-1.91-4.76-1.65-6.74-.98-3.34,1.14-6.87,2.83-9.97,4.54-3.07,1.69-5.75,4.02-9,5.4-1.25,.53-3.33,.85-3.5,2.68Z"/><circle cx="841.18" cy="102.19" r="1.56"/><circle cx="845.09" cy="111.58" r="1.56"/><circle cx="849" cy="124.87" r="1.56"/><path class="e" d="M719.8,225.87c-2.24-3.03,5.27-6.78,7.33-7.92,5.27-2.9,10.58-4.67,16.65-4.94,3.94-.17,7.81,1.39,7.81,1.39,.51,.27-4.82,7.45-5.38,8.04-3.12,3.31-7.58,5-11.99,5.71-4.2,.67-9.74,1.05-13.46-1.41-.43-.28-.75-.58-.97-.88Z"/><path class="f" d="M682.99,51.96c-.23,.03-.46,.04-.69,.05-4.23,.1-7.95-2.46-12.08-.25-3.7,1.98-6.02,5.76-9.67,7.82-2.67,1.5-5.97,1.61-8.35,3.67-1.95,1.69-4.31,3.38-5.79,5.64-1.6,2.43-1.97,5.45-3.54,7.92-.79,1.24-4.48,4.13-3.31,5.76,.8,1.12,5.84,.67,7.17,.58,2.19-.16,4.62-.6,6.69-1.36,1.94-.71,3.49-2.25,5.52-2.77,2.31-.59,4.84-.12,7.21-.55,7.53-1.38,12.45-5.86,18.04-10.65,3.87-3.31,7.53-6.86,11.09-10.49,2.61-2.66,2.36-4.97-1.34-6.53s-7.4,.77-10.95,1.17Z"/><path class="f" d="M858.04,119.17c1.48-.18,3,.25,4.39,.81,5.1,2.06,9.35,6.02,12.05,10.81,1.47,2.6,2.49,5.43,3.09,8.35,.54,2.59,0,6.07,1.48,8.06,3.11,4.15,5.33,7.86,6.48,13.05,1.17,5.32,.94,10.96-.88,16.11-.52,1.47-1.15,2.9-1.45,4.42-.33,1.69-.24,3.43-.43,5.14-.37,3.42-1.9,6.71-4.28,9.2-5.79-5.86-11.5-12.13-14.44-19.82-.88-2.29-1.5-4.77-1.11-7.2,.09-.55,.22-1.11,.07-1.64-.13-.45-.45-.81-.76-1.15-2.87-3.22-5.43-6.71-7.65-10.41-1.83-3.05-3.48-6.44-3.27-9.99,.05-.87,.21-1.75,.13-2.62-.09-.9-.43-1.75-.71-2.61-1.72-5.26-1.09-11.25,1.69-16.04,1.17-2.02,2.89-3.95,5.19-4.4,.14-.03,.28-.05,.41-.07Z"/><path d="M681.45,266.44l23.53,8.16s-10.7,17.09-10.7,17.1c-5.26,8.41-7.44,17.15,5.06,18.69,.46,.06,.91,.08,1.36,.08,1.73,0,3.38-.4,5.01-1.03-3.89,7.16-7.86,14.28-11.8,21.41-.12,0-.25,0-.37,0-8.43,0-17.18-5.7-17.18-5.7-22.58-14.71-2.81-41.61,5.1-58.72m0-8h-5.12l-2.15,4.64c-1.16,2.51-2.65,5.36-4.23,8.37-4.62,8.82-9.86,18.82-11.54,28.97-2.2,13.35,2.49,24.22,13.57,31.44,1.12,.72,11.09,7,21.55,7,.18,0,.36,0,.54,0l4.62-.09,2.23-4.04c1.26-2.29,2.53-4.57,3.79-6.86,2.64-4.77,5.37-9.71,8.03-14.59l10.41-19.13-20.32,7.85c-.86,.33-1.55,.49-2.13,.49-.13,0-.25,0-.38-.02-1-.12-1.68-.29-2.12-.43,.21-.96,.86-2.89,2.86-6.08,.1-.17,10.7-17.1,10.7-17.1l5.33-8.51-9.49-3.29-11.76-4.08-8.09-2.8q-4.95-1.72-6.3-1.72h0Z"/><path d="M733.93,281.2l25.33,2.6-46.81,90.26c19.1,2.05,15.7,32.97,15.7,32.97-7.87,.17-15.75,.32-23.62,.45-18.72,.32-37.44,.59-56.16,.65-2.41,0-4.81,.01-7.22,.01-5.63,0-11.26-.03-16.89-.15-7.69-.17-16.14,.87-15.54-9.42,.02-.26,1.06-17.24,14.61-24.27,13.65-7.08,19.2-6.21,29.8-7.01,.86-.06,1.81-.09,2.83-.09,11.61,0,32.41,3.82,32.41,3.82l45.55-89.83m-4.65-8.52l-2.49,4.9-42.88,84.57c-7.26-1.17-19.61-2.94-27.94-2.94-1.25,0-2.4,.04-3.43,.12-1.57,.12-3.05,.2-4.48,.28-8.24,.45-15.36,.84-28.4,7.61-17.43,9.04-18.86,30.01-18.91,30.9-.31,5.27,1.02,9.54,3.96,12.68,4.78,5.1,11.72,5.15,17.29,5.19,.7,0,1.4,0,2.1,.02,4.93,.11,10.35,.16,17.07,.16,2.41,0,4.83,0,7.24-.01,19.95-.06,39.64-.37,56.28-.65,9.57-.17,16.86-.31,23.66-.45l7.01-.15,.77-6.97c.24-2.19,2.07-21.69-7.32-33.37-1.5-1.87-3.22-3.45-5.12-4.72l42.7-82.33,5.41-10.44-11.7-1.2-25.33-2.6-5.47-.56h0Z"/><path d="M802.94,293.76c16.69,0,15.14,28.34,15.99,39.56,.49,6.44,4.36,68.22,.66,68.62,0,0-18.88,2.01-32.06,2.01-6.59,0-11.76-.5-12.44-2.01-6.06-13.4-.59-27.35,11.53-34.49,0,0-4.96-22.95-3.79-39.9l-30.61,.78,10.83-21.88h23.92s5.6-12.32,15.39-12.69c.19,0,.39-.01,.57-.01m0-8h0c-.29,0-.58,0-.88,.02-9.83,.37-16.35,7.62-19.71,12.68h-24.26l-2.2,4.45-10.83,21.88-5.89,11.89,13.26-.34,22.26-.57c.26,10.73,1.96,21.79,3.09,28.11-5.22,4.24-9.14,9.71-11.29,15.82-2.89,8.22-2.42,17.29,1.31,25.54,2.81,6.21,10.6,6.71,19.73,6.71,13.11,0,31.48-1.91,32.84-2.05h.07c3.13-.34,7.08-2.28,8.13-9.64,.28-1.99,.46-4.64,.55-8.11,.14-5.48,.04-13.06-.29-22.54-.56-16.19-1.66-33.46-1.92-36.9-.1-1.38-.17-3.12-.25-5.13-.26-6.77-.62-16.04-2.97-23.92-2-6.69-7.35-17.9-20.74-17.9h0Z"/><polygon points="682.89 266.44 698.19 287.75 706.42 274.6 682.89 266.44"/><polygon points="738.25 276.87 756.18 293.76 763.59 279.48 738.25 276.87"/><polygon points="781.54 343.28 791.23 327.98 782.05 327.55 781.54 343.28"/><path class="d" d="M689.04,369.47s5.64,1.34,7.66,6.63"/><path class="d" d="M782.95,366.66s3.19-2.59,8.5,0"/><polygon points="750.78 329.77 768.87 305.49 762.98 304.61 750.78 329.77"/><polygon points="620.74 156.89 630.04 114.93 606.58 143 620.74 156.89"/></g><g><path d="M105.61,35.29c1.34,0,2.72,.07,4.13,.23,16.19,1.84,23.19,10.26,23.19,10.26l8.45,6.14s4.33-1.84,10.2-4.35c8.97-3.83,20.06-1.9,29.37-3.76,1.71-.34,3.35-.52,4.88-.52,8.12,0,13.07,4.93,9.61,15.45-.55,1.67-6.94,15.77-9.39,15.77-.05,0-.09,0-.14-.02,43.17,10.26,48.94,26.75,48.94,26.75,0,0,3.15-.57,7.8-.57,10.06,0,27.14,2.67,34.38,19.6,10.59,24.75-15.46,48.87-15.46,48.87,0,0,8.6,17.3-13.16,48.23-29.36,41.74-75.82,58.01-124.75,62.54-2.56,.24-5.08,.35-7.57,.35-40,0-70.42-28.83-70.42-28.83,0,0-5.32,2.55-12.23,2.55s-15.52-2.59-21.9-12.96c-12.72-20.68,12.81-40.27,12.81-40.27-6.62-54.99,39.18-92.36,39.18-92.36l-2.99-8.95-8.29,9.5-5.67-5.35c-1.52-6.09,11.73-12,11.73-12,0,0-1.27-2.77,1.28-20.07,2.55-17.29,22.41-28.25,22.41-28.25,0,0,9.63-8,23.62-8m0-8v0c-14.68,0-25.4,7.31-28.09,9.34-3.75,2.21-23,14.42-25.85,33.75-1.14,7.75-1.59,12.98-1.67,16.56-5.86,3.54-13.35,9.92-11.19,18.6,.37,1.48,1.16,2.83,2.27,3.88l5.23,4.94c-3.6,4.12-7.63,9.23-11.55,15.22-14.07,21.48-20.53,44.86-18.78,67.87-2.67,2.51-6.4,6.46-9.55,11.38-7.93,12.38-8.54,25.3-1.71,36.4,8.52,13.86,20.32,16.77,28.72,16.77,4.11,0,7.76-.7,10.5-1.47,9.77,8.01,37.37,27.75,72.15,27.75,2.77,0,5.57-.13,8.31-.38,27.56-2.55,51.9-8.62,72.32-18.02,24.09-11.09,43.68-27.2,58.24-47.89,9.87-14.04,15.32-27.41,16.18-39.76,.31-4.51-.05-8.15-.59-10.88,2.67-2.99,6.41-7.64,9.68-13.4,8.07-14.2,9.51-28.31,4.16-40.81-4.03-9.41-10.86-16.25-20.31-20.34-7.85-3.4-15.98-4.11-21.43-4.11-1.33,0-2.56,.04-3.66,.1-1.65-2.12-4.04-4.63-7.46-7.34-7.9-6.25-18.76-11.5-32.38-15.65,1.76-3.45,3.44-7.19,3.89-8.55,3.12-9.47,.85-15.5-1.6-18.9-3.29-4.55-8.83-7.05-15.6-7.05-2.05,0-4.22,.23-6.45,.67-3.06,.61-6.64,.74-10.42,.87-6.45,.23-13.75,.48-20.52,3.38-2.3,.98-4.37,1.87-6.02,2.57l-4.14-3.01c-2.66-2.75-11.35-10.36-27.63-12.21-1.66-.19-3.36-.28-5.03-.28h0Z"/><path class="d" d="M196.34,120.28s-11.97-11.02-25.34-5.22"/><path class="d" d="M105.42,130.71s-18.96,4.1-21.01,16.87"/><path class="d" d="M155.35,195.54s20.07-2.08,13.41-11.92c-6.66-9.84-17.14-1.49-17.14-1.49"/><path class="d" d="M132.25,217.15c34.23,8.35,53.65-12.67,53.65-12.67-6.01-9.53,1.49-18.63,1.49-18.63"/><path class="d" d="M206.02,207.47s-14.21,7.61-20.12-2.98"/><path class="d" d="M113.62,225.35s22.62,1.03,18.04-15.21c0,0-1.7-7.74-9.1-9.38"/><circle cx="201.98" cy="189.06" r="1.49"/><circle cx="118.51" cy="207.69" r="1.49"/><circle cx="114.04" cy="217.37" r="1.49"/><circle cx="108.08" cy="209.92" r="1.49"/><circle cx="201.98" cy="197.25" r="1.49"/><circle cx="195.27" cy="191.29" r="1.49"/><path class="g" d="M136.72,187.47s-3.78-46.23-23.1-44.49c-19.33,1.74-17.56,32.78-17.56,32.78l1.17,16.06s33.48-8.54,39.5-4.35Z"/><path d="M102.66,149.02c1.18-.87,2.44,1.12,2.53,1.92,.1,.92-.56,2.35-.75,3.25-.69,3.13-2.75,8.45,1.87,9.71,3.01,.82,7.65-1.52,9.58,1.95-.17-.3-5.4,1.56-5.96,1.8-2.01,.86-3.85,2.14-4.67,4.24-.97,2.49-.75,5.27-1,7.89-.22,2.32-.35,4.68,0,7,.32,2.07,.3,2.27,2.04,2.24,2.34-.05,4.86-.79,7.18-1.16l12.34-2h7.91l2.99,1.62-4.97-25.03-6.49-14.08-6.18-5.06-7.92,.08c-2.83,1.86-5.79,3.62-8.5,5.64Z"/><path class="j" d="M201.05,170.43c-.54-3.99-1.13-7.98-1.76-11.97-.43-2.73-.87-5.47-1.44-8.18-2-9.55-9.75-18.44-18.75-21.86-6.86-2.6-13.61,.53-17.6,6.35-5.13,7.47-3.95,16.33-2.59,24.77,.62,3.84,1.29,7.68,2.21,11.46,.53,2.2,1.06,6.02,2.95,7.56,0,0,34.21-12.23,36.99-8.14Z"/><path d="M163.61,132.2c1.04-.72,3.89,.83,4.71,1.45,1.53,1.16,1.39,2.05,1.25,3.93-.21,2.71-.69,5.44-1.24,8.09,0,0-1.1,5.31,6.4,5.9,0,0,3.13,.4,4.57,1.61s-7.29,.44-7.77,6.42c-.31,3.89,1,9.52,2.63,13.06,.7,1.52,.91,1.34,2.6,1.16,1.33-.14,2.66-.43,3.97-.69,3.55-.7,7.08-1.53,10.6-2.41,2.77-.7,5.66,.13,8.31-.43,2.95-.62-.25-9.19-.56-10.94l-2.57-14.45-9.12-12.12-10.35-5.3-8.23,1.11-5.2,3.59Z"/><path class="j" d="M188.6,73.88s-20.61-4.8-25.78-4.62"/><path class="j" d="M141.38,51.17S57.33,92.21,63.52,107.66l36.37-9.8c12.49-3.5,26.93-6.11,37.75-13.58,11.54-7.97,22.25-18.37,31.07-29.22,4.28-5.26,9.21-10.05,14.95-13.68"/><path class="j" d="M132.94,45.78s-48.35,22.13-50.95,27.74"/><path d="M89.45,80.03s-12.26-15.36-31.05-7.75c0,0-5.36,19.8,2.77,33.82,0,0,11.52-14.75,28.29-26.07Z"/><path d="M261.57,169.15l-11.52-43.06,24.26,26s-4.03,18.54-8.19,17.51-4.55-.45-4.55-.45Z"/><path d="M205.03,272.16s21.41,41.95,10.7,49.96c0,0-9.35,11.69-24.56,12.09l-10.14-20.15s.99,.07,2.48,.07c3.19,0,8.69-.34,11.77-2.48,0,0,3.27-4.62-5.79-20.27l-7.47-12.13,23.01-7.1m0-8c-.78,0-1.58,.12-2.36,.36l-23.01,7.1c-2.36,.73-4.26,2.51-5.13,4.83-.87,2.32-.62,4.9,.67,7.01l7.41,12.04c2.83,4.91,4.14,8.29,4.74,10.43-1.03,.13-2.31,.22-3.84,.22-1.13,0-1.89-.05-1.9-.05-.19-.01-.38-.02-.57-.02-2.66,0-5.18,1.33-6.67,3.56-1.59,2.39-1.79,5.46-.5,8.03l10.14,20.15c1.36,2.7,4.13,4.4,7.15,4.4,.07,0,.14,0,.21,0,16.44-.43,27.25-11.3,29.95-14.33,9.15-7.92,4.78-24.48,.62-36.38-4.14-11.87-9.56-22.53-9.79-22.97-1.4-2.74-4.18-4.36-7.13-4.36h0Z"/><path d="M155.08,287.95s43.35,86.16,43.37,86.19c0,.02,.06,.03,.14,.03,1.71,0,18.06-3.31,19.64-3.51,5.3-.65,10.67-1.09,16.03-1.09,2.8,0,5.6,.12,8.38,.39,7.19,.7,14.78,2.38,20.67,6.8,6.49,4.87,8.88,12.71,10.85,20.26,.83,3.16,1.62,6.64,1.03,9.91l-113.27,2.24s-6.9-24.47,13.71-31.69l-43.41-85.68,22.84-3.85m0-8c-.44,0-.89,.04-1.33,.11l-22.84,3.85c-2.51,.42-4.67,2.01-5.81,4.28-1.15,2.27-1.14,4.95,0,7.22l39.85,78.65c-6.62,4.76-10.74,11.98-11.83,21-1.01,8.37,.9,15.49,1.12,16.27,.97,3.45,4.12,5.83,7.7,5.83,.05,0,.11,0,.16,0l113.27-2.24c3.81-.08,7.04-2.83,7.72-6.59,.87-4.86-.15-9.43-1.17-13.34-2.35-9-5.36-18.32-13.8-24.64-6.14-4.6-14.22-7.34-24.69-8.36-2.92-.28-6-.43-9.16-.43-5.15,0-10.71,.38-17,1.15-.78,.1-2.28,.38-6.74,1.23-2.03,.39-4.99,.95-7.53,1.42-9.37-18.61-40.76-81.01-40.76-81.01-1.37-2.73-4.16-4.4-7.14-4.4h0Z"/><path d="M94.35,303.16c11.75,0,13.23,13.15,13.23,13.15h22.65l9.98,19.62-29.14-1.21c1.62,22.47-3.5,38.58-3.5,38.58,17.5,5.16,12.23,32.99,12.23,32.99h-43.1c-2.94-9.53,1.05-86.41,1.05-86.41,0,0-.35-14.34,13.89-16.52,.96-.15,1.86-.21,2.7-.21m0-8h0c-1.27,0-2.58,.1-3.92,.31-16.51,2.53-20.73,16.78-20.68,24.28-.12,2.4-1.03,20.57-1.62,39.53-1.3,42.15,.2,47.04,.93,49.38,1.03,3.36,4.13,5.65,7.65,5.65h43.1c3.84,0,7.14-2.73,7.86-6.51,.06-.33,1.53-8.25,.54-16.96-1.13-9.89-5.08-17.4-11.33-21.82,1.19-5.74,2.56-14.82,2.52-25.94l20.49,.85c.11,0,.22,0,.33,0,2.72,0,5.26-1.38,6.73-3.68,1.54-2.39,1.69-5.42,.4-7.95l-9.98-19.62c-1.36-2.68-4.12-4.37-7.13-4.37h-16.66c-.34-.81-.75-1.64-1.21-2.48-3.85-6.88-10.24-10.67-18-10.67h0Z"/><polygon points="203.6 270.74 188.06 289.97 180.59 277.83 203.6 270.74"/><polygon points="140.21 335.93 120.2 315.57 131.69 313.56 140.21 335.93"/><polygon points="113.25 334.73 96.9 334.22 113.48 358.21 113.25 334.73"/><polygon points="153.65 286.52 136.76 302.11 130.81 290.36 153.65 286.52"/><path class="j" d="M198.57,371.22s-8.61-.79-11.73,5.12"/><path class="j" d="M111.18,372.57s-2.78-2.75-7.54-.98"/></g><ellipse cx="439.99" cy="448.16" rx="70.5" ry="14"/><path class="f" d="M439.54,400.77s110.16-98.17,143.78-213.17C616.94,72.62,502.1,13.27,502.1,13.27c0,0-77.99-35.9-147.73,12.7,0,0-70.41,55.08-58.84,153.49,11.57,98.42,144.02,221.31,144.02,221.31Z"/><circle class="h" cx="439.54" cy="134.68" r="62.56"/></g></g></g></svg>