<?xml version="1.0" encoding="UTF-8"?><svg xmlns="http://www.w3.org/2000/svg" viewBox="0 0 280.15 388.06"><defs><style>.d{stroke-linecap:round;}.d,.e{fill:none;}.d,.e,.f{stroke-width:3px;}.d,.e,.f,.g{stroke:#000;stroke-miterlimit:10;}.g{fill:#fff;}</style></defs><g id="a"/><g id="b"><g id="c"><g><path class="e" d="M82.31,126.26s25.18-.9,31.03,4.5c0,0,11.24-58.01-8.09-60.26s-22.93,55.76-22.93,55.76Z"/><path class="e" d="M152.02,128.95s-.9-57.56,22.93-55.76,9.44,59.81,9.44,59.81c0,0-21.58-7.19-32.38-4.05Z"/><path d="M88.15,126.21c.59-4.74-.46-16.73,2.28-20.5,1.75-2.4,8.42-3.86,11.21-5.12-2.24-1.63-4.49-3.27-6.72-4.91,.25-6.77,7.91-7.2,11.13-2.66,1.68,2.37,3.02,7.1,2.78,10.06l-1.98,24.89s-12.87-1.8-18.71-1.75Z"/><path d="M158.31,127.96l2.7-21.49,9.35-3.39-6.02-6.95s3.87-6.3,8.82-3.15,5.4,16.02,5.4,16.02c0,0,.27,17.26-2.11,21.76,0,0-11.83-3.78-18.12-2.79Z"/><path class="f" d="M135.46,132.98c3.78,.32,7.54,1.02,11.09,1.88,7.66,1.85,20.28,5.86,20.1,15.7-.27,15.05-24.08,8.48-24.08,8.48-4.96-.38-9.93-.66-14.9-.88-4.24-.19-8.48-.32-12.72-.33-5.24,0-10.36-.84-10.72-7.21-.32-5.83,5.59-10.36,9.88-13.2,6.32-4.18,13.89-5.07,21.35-4.44Z"/><path class="g" d="M119.19,134.83s1.76,9.98,5.32,9.16,6.29-11.19,6.29-11.19c0,0-6.54-.56-11.62,2.03Z"/><path class="g" d="M137.93,133.24s0,14.39,4.1,13.39,4.53-11.78,4.53-11.78c0,0-6.16-1.35-8.63-1.61Z"/><path class="d" d="M119.19,165.39s9.34-4.23,23.05,0"/><path class="d" d="M77.94,82.2s1.83-11.83,14.57-11.77"/><path class="d" d="M82.31,61.99s-.86,7.75,1.14,11.16"/><path class="d" d="M74.65,154.11s4.23,21.15,21.15,10.34"/><path class="d" d="M82.13,167.53s-8.49,10.55,0,16.19"/><path class="d" d="M43.16,144.03s-7.05,3.49-7.52,10.07"/><path class="d" d="M35.64,141.89s-1.08,3.56,1.81,7.18"/><path class="d" d="M130.81,175.62s5.73,1.52,4.63,10.45"/><path class="d" d="M140.45,175.62s-.11,4.23-5.23,5.22"/><path class="d" d="M240.56,130.75s2.35,6.44,0,11.14"/><path class="d" d="M248.61,129.91s-2.25,6.58-6.53,5.57"/><path class="d" d="M211.89,167.53s10.34-3.55,11.28-13.42"/><path class="d" d="M220.7,160.82s7.16,3.16,5.75,10.21"/><path d="M118.65,8c1.07,0,2.14,.06,3.19,.19,8.95,1.07,15.51,10.6,20.4,17.14,0,0,4.79-14.62,22.19-14.62,1.83,0,3.8,.16,5.92,.52,22.26,3.76,24.14,25.38,24.14,25.38,0,0,6.48-3.76,13.3-3.76,3.41,0,6.91,.94,9.73,3.76,8.46,8.46,6.15,25.38,6.15,25.38,0,0,20.17,0,27.69,20.21,7.52,20.21-6.02,26.8-6.02,26.8,0,0,14.95,.93,16.36,15.97,1.41,15.04-8.46,16.92-8.46,16.92,0,0,27.73,11.59,15.98,36.34,0,0-1.51,8.19-21.13,8.19-2.26,0-4.77-.11-7.54-.35,0,0-4.15,23.98-27.98,23.98-.23,0-.46,0-.69,0-24.44-.47-26.32-14.57-26.32-14.57,0,0-2.79,20.7-23.75,20.7-1.81,0-3.76-.15-5.86-.49,0,0-11.92-1.41-13.71-9.4,0,0-9.3,10.98-24.82,10.98-2.67,0-5.53-.33-8.55-1.09-20.6-5.19-20.72-17.88-20.72-17.88,0,0-7.22,12.88-20.91,12.88-2.22,0-4.61-.34-7.17-1.13-18.33-5.64-20.68-23.97-20.68-23.97,0,0-5.35,2.61-11.63,2.61-7.91,0-17.29-4.12-19.39-22.75-3.76-33.43,21.62-37.96,21.62-37.96,0,0-17.39-14.22-9.87-35.87,4.88-14.04,15.29-16.51,22.01-16.51,3.64,0,6.19,.72,6.19,.72,0,0-12.22-22.32,1.88-34.07,9.09-7.58,17.01-11.05,24.07-11.05,3.89,0,7.52,1.05,10.94,3.06,2.46-5.42,5.68-10.7,9.45-15.3,5.49-6.7,15.03-10.96,23.98-10.96m0-8h0c-11.41,0-23.25,5.45-30.17,13.89-2.55,3.12-4.93,6.57-7.03,10.22-2.34-.6-4.74-.91-7.18-.91-9.22,0-18.77,4.22-29.19,12.9-8,6.67-11.19,16.97-8.97,29.03,.18,.99,.39,1.95,.62,2.88-11.32,1.81-19.97,9.41-24.16,21.46-3.83,11.04-2.92,22.28,2.65,32.5,.58,1.06,1.17,2.05,1.78,2.98-1.51,.97-3.06,2.14-4.58,3.51-6.75,6.1-14.31,17.71-11.99,38.35,1.16,10.36,4.53,18.2,10.01,23.31,4.58,4.28,10.58,6.54,17.33,6.54,2.25,0,4.38-.25,6.3-.61,3.11,7.4,9.76,17.34,23.66,21.62,3.19,.98,6.39,1.48,9.52,1.48,8.04,0,14.35-3.19,18.92-6.8,4.68,5.39,11.65,9.27,20.75,11.56,3.5,.88,7.04,1.33,10.51,1.33,10.09,0,18.05-3.74,23.37-7.32,1.57,1.25,3.5,2.41,5.87,3.41,3.74,1.58,7.21,2.12,8.14,2.25,2.41,.38,4.76,.57,7.01,.57,12.71,0,20.85-5.97,25.72-12.86,5.07,3.61,12.72,6.51,24.2,6.73,.29,0,.56,0,.85,0,15.84,0,24.82-8.45,29.57-15.54,1.91-2.85,3.27-5.68,4.23-8.11,.58,.01,1.16,.02,1.72,.02,21.77,0,27.27-9.3,28.63-13.33,4.01-8.76,4.5-17.22,1.46-25.15-2.56-6.69-7.18-11.68-11.53-15.15,2.29-3.94,3.69-9.34,3.01-16.57-.87-9.24-5.47-15.1-10.71-18.63,3-6.18,4.11-14.88-.09-26.18-6.04-16.24-18.54-22.11-26.9-24.23-.19-7.08-1.83-17.28-8.78-24.23-3.99-3.99-9.31-6.1-15.39-6.1-2.79,0-5.48,.44-7.87,1.07-3.8-9.31-12.21-19.87-28.24-22.57-2.48-.42-4.92-.63-7.26-.63-10.89,0-18.1,4.35-22.69,9.02-4.82-5.47-10.91-10.52-18.95-11.48-1.35-.16-2.74-.24-4.14-.24h0Z"/><path class="d" d="M142.24,25.33l1.97,8.46s9.88-4.23,14.1,0,4.7,8.93,4.23,12.69,5.9,0,5.9,0c0,0,6.32-2.35,6.32,6.11s3.8,6.11,3.8,6.11c0,0,6.54-4.7,7.01,6.58,0,0-.47,4.23,6.58,0"/><path class="d" d="M142.24,206.28l4.31-7.05s11.75,7.05,16.92-10.34"/><path d="M91.97,221.44c3.77,2.9,16.11,5.57,16.11,5.57-3.46,6.52,5.71,84.19,5.71,84.19,17.21,6.36,9.04,10.81,9.04,10.81l7.35,18.33c7.35,21.62-7.35,27.73-7.35,27.73,0,0-23.58,7.32-40.68,7.32-10.63,0-18.75-2.83-17.13-12.02,4.23-23.97,26.26-26.79,26.26-26.79l4.13-7.52c-10.98-3.76,3.42-14.1,3.42-14.1-4.26-3.29-6.84-93.52-6.84-93.52m-8.51-16.63l.52,16.86c0,.23,.66,22.91,1.83,45.71,.69,13.45,1.42,24.33,2.18,32.34,.53,5.58,1.03,9.61,1.6,12.6-3.5,3.48-7.03,8.51-6.19,14.19,.14,.97,.46,2.21,1.13,3.53-2.55,.83-5.7,2.13-8.98,4.14-6.91,4.24-15.71,12.5-18.41,27.81-1.21,6.86,1.14,11.41,3.33,14.02,4.18,4.98,11.27,7.4,21.68,7.4,18.1,0,42.04-7.37,43.05-7.68l.35-.11,.34-.14c7.48-3.11,19.58-14.98,11.86-37.69l-.07-.2-.08-.2-5.66-14.12c.6-1.43,.93-3.07,.8-4.87-.45-6.26-5.77-10.12-11.55-12.79-3.78-32.93-6.81-68.6-5.7-75.47l4.62-8.69-10.33-2.24c-5.34-1.16-11.52-3.13-12.96-4.12l-13.35-10.26h0Z"/><path d="M185.41,216.78c2.53,6.07,.83,16.54,1.2,23.48,.43,8,1.13,15.99,1.96,23.96,1.65,15.91,3.89,31.75,5.76,47.63,17.39,5.64,11.28,12.69,11.28,12.69l4.23,9.4c15.98,3.29,23.21,31.02,23.21,31.02-6.4,11.28-28.38,15.04-28.38,15.04,0,0-1.25,.06-3.28,.06-7.78,0-27.03-.89-31.5-9.46-5.64-10.81,6.95-39.01,6.95-39.01-15.61-4.23,1.04-15.98,3.39-17.39,4.8-2.88-2.43-42.51-2.92-47.65-.97-10.23-1.99-20.46-3.05-30.68-.24-2.3-1.65-6.86-.96-9.07,.13-.43,.43-.95,.85-1.52,2.66-3.64,7.01-7.15,11.26-8.5m4.56-9.85l-6.99,2.22c-5.59,1.78-11.45,6.15-15.3,11.4-.96,1.32-1.63,2.58-2.03,3.86-1.09,3.49-.35,7.16,.3,10.41,.13,.65,.31,1.54,.34,1.87,1.16,11.18,2.16,21.19,3.05,30.61,.11,1.15,.4,3.07,.94,6.66,.82,5.43,2.06,13.64,2.84,21.12,.84,8.05,.8,12,.66,13.8-4.31,3.08-12.63,10.22-11.44,18.76,.33,2.41,1.43,5.29,4.35,7.75-.99,2.68-2.12,5.93-3.13,9.42-3.89,13.38-4.14,23.03-.77,29.49,3.1,5.94,9.83,10.01,20.01,12.08,6.8,1.39,13.86,1.68,18.59,1.68,2.16,0,3.52-.06,3.66-.07l.48-.02,.48-.08c2.63-.45,25.96-4.81,33.99-18.98l1.6-2.82-.82-3.14c-.81-3.09-7.93-28.56-25.13-35.56l-1.33-2.96c.44-1.9,.48-4.06-.15-6.33-1.39-5-5.49-8.96-12.48-12.01-.56-4.57-1.14-9.14-1.7-13.59-1.21-9.54-2.46-19.41-3.47-29.1-.94-9.02-1.55-16.5-1.93-23.56-.1-1.88-.01-4.29,.08-6.84,.23-6.36,.5-13.56-1.89-19.29l-2.82-6.77h0Z"/><path class="d" d="M92,329.63s8.16,2.57,13.02,0"/><path class="d" d="M125.89,319.29s-1.29,3.99-6.14,5.45"/><path class="d" d="M89.32,335.42s7.8-1.34,12.96,2.06"/><path class="d" d="M171.84,331.59s3.98,1.18,10.3-1.96"/><path class="d" d="M210.84,320.71s-3.42,6.29-8.76,5.09"/><path class="d" d="M210.84,332.94s-15.75-1.13-25.3,5.18"/></g></g></g></svg>