<?xml version="1.0" encoding="UTF-8"?><svg xmlns="http://www.w3.org/2000/svg" viewBox="0 0 742.44 489.51"><defs><style>.d,.e,.f,.g,.h,.i{stroke:#000;}.d,.e,.f,.h{stroke-miterlimit:10;}.d,.e,.g,.h,.i{fill:none;}.d,.e,.g,.i{stroke-width:3px;}.d,.h,.i{stroke-linecap:round;}.g,.i{stroke-linejoin:round;}.h{stroke-width:4px;}</style></defs><g id="a"/><g id="b"><g id="c"><g><g><path d="M175.8,28.23c51.28,0,106.64,30.91,139.06,66.96,5.77,6.41,11.44,13.04,15.35,20.73,3.51,6.89,5.49,14.44,7.45,21.92,3.77,14.41,7.55,28.82,11.32,43.22,3,11.45,6.03,22.98,11.01,33.71,5.55,11.94,13.71,24.36,10.58,37.15-3.53,14.42-19.95,21.7-34.73,23-22.6,1.98-36.38,18.36-56.74,26.31-15.29,5.97-31.54,9.45-47.9,10.63-4.41,.32-8.82,.47-13.24,.47-18.11,0-36.19-2.58-53.8-7.05-6.09-1.55-12.13-3.32-18.09-5.29-27.81-9.2-54.55-22.97-75.58-43.37-21.03-20.39-36-47.86-37.91-77.1-.39-5.94-.3-12.12-2.84-17.5-1.84-3.9-4.93-7.04-7.67-10.36-8.9-10.77-14.67-24.53-14.03-38.48,.64-13.95,8.34-27.84,20.82-34.11,7.55-3.79,16.18-4.66,24.42-6.54,35.75-8.16,65.02-35.64,101.07-42.37,7.02-1.31,14.19-1.93,21.44-1.93m0-8c-7.87,0-15.57,.69-22.91,2.06-19.85,3.71-37.52,13.18-54.6,22.35-15.71,8.43-30.56,16.39-46.78,20.09-1.99,.46-4.02,.85-6.16,1.27-6.62,1.29-13.47,2.62-20.07,5.93C10.76,79.22,.86,95.27,.06,112.82c-.69,15.13,4.94,30.73,15.85,43.94,.6,.72,1.21,1.44,1.83,2.16,1.94,2.27,3.78,4.41,4.78,6.53,1.47,3.11,1.69,7.29,1.93,11.71,.05,.97,.1,1.93,.16,2.89,1,15.22,5.25,30.35,12.63,44.95,6.92,13.69,16.24,26.26,27.69,37.37,19.95,19.34,46.4,34.56,78.64,45.22,6.21,2.06,12.48,3.89,18.64,5.45,19.07,4.84,37.83,7.3,55.77,7.3,4.63,0,9.28-.17,13.81-.49,17.63-1.27,34.53-5.02,50.24-11.15,8.57-3.35,15.85-7.93,22.89-12.36,10.13-6.37,19.69-12.39,31.63-13.44,9.1-.8,17.96-3.52,24.96-7.66,8.88-5.25,14.7-12.65,16.84-21.4,3.29-13.44-2.8-25.65-8.17-36.43-1.04-2.08-2.02-4.04-2.92-5.99-4.7-10.12-7.66-21.43-10.53-32.37l-5.66-21.61-5.66-21.61c-2.04-7.78-4.15-15.83-8.06-23.52-4.39-8.64-10.58-15.83-16.54-22.46-31.16-34.65-88.08-69.61-145.01-69.61h0Z"/><path class="d" d="M181.9,155.12c3.89-15.65,4.24-38.72-12.87-46.75-12.8-6.01-28.57,.65-34.16,13.48l-20.3,63.87c8.88-2.79,17.77-5.91,27.06-7,3.06-.36,6.16-.57,9.24-.25s5.84,1.59,8.83,2.5c1.78,.54,4.55,.52,4.9-1.84,.2-1.37-.53-2.99-.65-4.37s-.06-2.86,.17-4.16c.61-3.37,2.36-6.26,4.8-8.62,1.67-1.61,12.79-6.14,12.97-6.85Z"/><path class="h" d="M199.44,167.51c-8.19-16.2-33.94-10.16-35.18,7.56s24.21,31.67,33.39,12.54"/><path class="d" d="M251.65,113.01s16.83,5.95,18.66,21.26"/><path class="d" d="M143.44,98.51s14.31-10.07,28-7"/><path class="d" d="M277.31,177.23s-1.65,16.47-4.41,19.41"/><path class="d" d="M287.46,181.79s-1.71,9.65-3.01,11.72"/><path d="M170.21,110.05c2.65,2.72,4.3,6.31,1.23,9.3-3.24,3.15-6.98,6.17-9.79,9.68,.73-.86,5.94,2.94,6.53,3.4,6.81,5.29-.71,20.87-2.56,27.77s-3.71,13.73-5.61,20.58c0,0-17.99-4.93-45.44,3.93l20.3-63.87s4.91-9.7,15.09-14.48c6.71-3.16,15.09-1.6,20.24,3.69Z"/><path class="d" d="M204.9,194.16c-.41-.39-.37-1.19,.31-2.82,4.11-9.89,7.6-20,11.23-30.08l5.09-14.12,.25-.7s7.09-19.36,24.22-17.61c22.75,2.32,21.36,35.3,18.4,50.86-2.64,13.82-7.49,26.11-12.76,39.08-3.29-3-6.81-5.77-10.37-8.42-6.94-5.17-14.35-10-22.42-13.21-2.23-.88-4.51-1.64-6.86-2.13-1.17-.25-2.36-.36-3.56-.43-1.69-.1-3,.08-3.54-.43Z"/><path d="M258.62,137.06s2.94,7.11-2.77,10.31-9.25,5.98-9.25,5.98c0,0-1.23,1.49,4.65,4.36,7.16,3.49,3.8,16.78,2.37,22.67-2.48,10.19-7.13,32.64-7.13,32.64-9.26-6.82-19.33-13.56-30.06-17.77-3.02-1.18-6.09-2.13-9.36-1.94-2.54,.15-3.12-1.29-2.52-3.5,.75-2.82,1.72-5.45,2.78-8.19,2.84-7.36,5.91-14.63,9.03-21.88,2.35-5.48,4.75-10.94,7.17-16.39,.75-1.69,1.66-5.68,3.1-6.93,.04-.03,19.5-16.88,32.01,.62Z"/><path class="d" d="M148.1,257.59s9.52,11.81,25.53,8.65"/><path class="d" d="M251.65,218.77l8.69,8.98s4.25,5.03,10.78,7.68,11.88,3.43,15.7,9.54-11.71,6.75-11.71,6.75c0,0-16.68,1.19-23.08-3.22-3.34,1.08-6.94,1.82-10.44,1.97-4.11,.18-7.53-1.53-10.82-3.8-1.42-.98-3.41-3.25-5.11-3.57-1.91-.36-3.3,1.1-4.94,1.77-11.72,4.77-19.1-6.28-25.29-14.17-4.04-5.15-8.33-13.91-14.5-16.56-6.17-2.64-14.11,2.27-19.38,5.12-6.61,3.58-12.26,8.86-20.2,9.02-7.84,.15-17.83-1.66-18.57-11.27,0,0-24.54,6.7-25.84-15.11,0,0-23.27-.67-21.28-14.24,0,0,.2-3.85,9.09-.71,5.47,1.93,11.37,2.07,17.09,1.48,4.36-.45,11.16-.66,13.61-5.06"/><path class="d" d="M205.44,194.51s-6.9-.59-7.1-.76"/><path class="d" d="M96.94,201.89s6.81,.55,11.51-1.38"/><path class="d" d="M122.78,217s6.54-1.52,9.45-3.97"/><path class="d" d="M226.3,243.1s-4.55-3.66-8.86-10.59"/><path class="d" d="M252.03,248.49s-11.74-8.06-14.82-15.99"/><circle cx="131.64" cy="38.08" r="2"/><circle cx="219.77" cy="50.86" r="2"/><circle cx="267.64" cy="77.08" r="2"/><circle cx="235.64" cy="55.08" r="2"/><circle cx="243.64" cy="53.08" r="2"/><circle cx="250.64" cy="64.08" r="2"/><circle cx="261.64" cy="64.08" r="2"/><circle cx="272.64" cy="63.08" r="2"/><circle cx="233.64" cy="43.08" r="2"/><circle cx="214.64" cy="42.08" r="2"/><circle cx="198.64" cy="41.08" r="2"/><circle cx="199.64" cy="35.08" r="2"/><circle cx="186.64" cy="37.08" r="2"/><circle cx="182.64" cy="30.08" r="2"/><circle cx="168.64" cy="37.08" r="2"/><circle cx="162.64" cy="31.08" r="2"/><circle cx="150.64" cy="36.08" r="2"/><circle cx="285.64" cy="76.08" r="2"/><circle cx="280.64" cy="86.08" r="2"/><circle cx="298.64" cy="88.08" r="2"/><path d="M145.22,229.95c-.98,10.68,2.56,22.77,13.56,26.1,9.84,2.98,21.68,3.4,29.96-3.79,4.37-3.79,7.7-9.74,10.71-14.82l-16.86-22.39c-1.84-2.45-6.09-2.11-8.62-1.25-4.27,1.45-8.79,3.62-12.75,5.81-3.93,2.17-7.36,5.14-11.51,6.9-1.6,.68-4.26,1.09-4.48,3.43Z"/><circle cx="312.64" cy="95.08" r="2"/><circle cx="317.64" cy="107.08" r="2"/><circle cx="322.64" cy="124.08" r="2"/><path class="e" d="M157.43,253.23c-2.87-3.88,6.74-8.67,9.38-10.12,6.74-3.71,13.53-5.97,21.29-6.31,5.04-.22,9.99,1.78,9.99,1.78,.66,.35-6.17,9.52-6.88,10.28-3.99,4.23-9.7,6.4-15.33,7.3s-12.45,1.34-17.21-1.8c-.55-.36-.96-.74-1.24-1.12Z"/><path class="f" d="M110.35,30.85c-.29,.03-.59,.05-.88,.06-5.41,.12-10.16-3.15-15.45-.32-4.73,2.53-7.69,7.37-12.36,10-3.41,1.92-7.63,2.06-10.68,4.69-2.5,2.16-5.51,4.32-7.41,7.21-2.04,3.11-2.52,6.97-4.52,10.13-1.01,1.59-5.73,5.28-4.24,7.37,1.02,1.43,7.47,.86,9.17,.74,2.81-.2,5.91-.77,8.56-1.74,2.48-.91,4.47-2.88,7.06-3.54,2.96-.75,6.19-.15,9.22-.7,9.63-1.77,15.92-7.49,23.07-13.62,4.94-4.24,9.62-8.77,14.18-13.42,3.34-3.4,3.02-6.36-1.71-8.35s-9.47,.98-14.01,1.5Z"/><path class="f" d="M334.19,116.78c1.9-.23,3.83,.32,5.62,1.04,6.52,2.63,11.95,7.7,15.41,13.83,1.87,3.32,3.18,6.95,3.96,10.68,.68,3.31,0,7.76,1.9,10.3,3.98,5.31,6.81,10.05,8.28,16.69,1.5,6.8,1.2,14.02-1.12,20.6-.66,1.87-1.47,3.71-1.86,5.66-.42,2.16-.31,4.39-.54,6.58-.48,4.38-2.44,8.58-5.48,11.77-7.4-7.5-14.7-15.51-18.47-25.35-1.12-2.93-1.92-6.1-1.42-9.21,.11-.7,.29-1.42,.09-2.1-.17-.57-.58-1.03-.97-1.48-3.66-4.12-6.95-8.58-9.79-13.31-2.35-3.9-4.45-8.23-4.18-12.78,.06-1.12,.27-2.23,.17-3.35-.11-1.15-.55-2.24-.9-3.34-2.2-6.73-1.39-14.38,2.17-20.51,1.5-2.59,3.7-5.05,6.63-5.63,.18-.04,.35-.06,.53-.08Z"/><path d="M121.29,301.42l30.08,10.43s-13.68,21.86-13.69,21.87c-6.73,10.75-9.51,21.93,6.47,23.91,.59,.07,1.17,.11,1.74,.11,2.21,0,4.33-.51,6.41-1.32-4.98,9.15-10.06,18.26-15.09,27.38-.16,0-.32,0-.48,0-10.77,0-21.97-7.29-21.97-7.29-28.88-18.81-3.6-53.21,6.52-75.09h0m0-8h-5.12l-2.15,4.64c-1.51,3.27-3.43,6.93-5.46,10.81-5.83,11.13-12.45,23.74-14.53,36.37-2.66,16.13,3,29.26,16.37,37.97,1.36,.89,13.6,8.59,26.34,8.59,.21,0,.43,0,.64,0l4.62-.09,2.23-4.04c1.62-2.93,3.24-5.86,4.86-8.79,3.37-6.1,6.86-12.4,10.25-18.63l10.41-19.13-20.32,7.85c-1.35,.52-2.51,.78-3.52,.78-.26,0-.51-.02-.76-.05-3.44-.43-4.55-1.25-4.76-1.43-.07-.4-.36-3.19,4.09-10.3h0s.41-.65,13.69-21.87l5.33-8.51-9.49-3.29-15.04-5.21-10.34-3.59q-5.97-2.07-7.32-2.07h0Zm23.18,44.54h0Zm0,0h0Zm0,0h0Zm0,0h0Z"/><path d="M181.02,318.45l32.39,3.33-59.86,115.42c24.42,2.62,20.07,42.16,20.07,42.16-10.07,.22-20.14,.41-30.21,.58-23.94,.41-47.88,.76-71.82,.83-3.08,0-6.16,.02-9.24,.02-7.2,0-14.4-.04-21.59-.2-9.83-.21-20.64,1.11-19.87-12.05,.02-.34,1.36-22.05,18.68-31.03,17.45-9.05,24.55-7.95,38.11-8.97,1.1-.08,2.31-.12,3.62-.12,14.84,0,41.45,4.89,41.45,4.89l58.24-114.87m-4.65-8.52l-2.49,4.9-55.57,109.6c-8.9-1.47-25.83-4-36.98-4-1.54,0-2.96,.05-4.22,.14-2.04,.15-3.94,.26-5.78,.36-10.28,.56-19.16,1.05-35.42,9.48-21.18,10.99-22.92,36.58-22.98,37.66-.36,6.11,1.14,11.01,4.47,14.55,5.46,5.83,13.8,5.88,20.5,5.93,.91,0,1.82,.01,2.72,.03,6.29,.14,13.2,.2,21.76,.2,3.09,0,6.17,0,9.26-.02,25.5-.08,50.67-.47,71.93-.84,8.26-.14,19.16-.34,30.24-.58l7.01-.15,.77-6.97c.03-.27,.71-6.62,.08-14.56-.9-11.29-3.91-20.2-8.96-26.48-2.21-2.75-4.81-4.97-7.74-6.62l55.55-107.12,5.41-10.44-11.7-1.2-32.4-3.33-5.47-.56h0Z"/><path d="M256.36,340.04c21.35,0,19.36,36.24,20.45,50.59,.62,8.24,5.58,87.24,.85,87.74-.01,0-24.14,2.57-40.99,2.57-8.43,0-15.04-.64-15.91-2.57-7.75-17.14-.75-34.98,14.74-44.1,0,0-6.34-29.35-4.85-51.02l-39.14,1,13.85-27.97h30.59s7.16-15.75,19.68-16.22c.25,0,.49-.01,.73-.01m0-8h0c-.34,0-.69,0-1.04,.02-12.28,.47-20.26,10.13-24.09,16.22h-30.85l-2.2,4.45-13.85,27.97-5.89,11.89,13.26-.34,30.72-.79c.13,15.02,2.7,31.04,4.2,39.15-6.86,5.26-12.02,12.22-14.77,20.05-3.5,9.97-2.93,20.98,1.61,31,2.77,6.11,10.29,7.27,23.2,7.27,17.01,0,40.83-2.51,41.84-2.62,1.27-.14,5.53-.98,7.44-6.18,.42-1.15,.73-2.5,.98-4.23,.35-2.45,.57-5.76,.68-10.11,.17-6.97,.05-16.62-.37-28.69-.72-20.67-2.12-42.7-2.45-47.09-.14-1.81-.22-4.05-.32-6.65-.33-8.54-.78-20.23-3.71-30.04-5.27-17.6-16.17-21.3-24.39-21.3h0Z"/><polygon points="121.29 301.42 140.85 328.67 151.37 311.85 121.29 301.42"/><polygon points="181.02 318.45 203.94 340.04 213.41 321.78 181.02 318.45"/><polygon points="228.99 403.37 241.38 383.8 229.64 383.25 228.99 403.37"/><path class="d" d="M121.77,431.32s7.22,1.71,9.79,8.48"/><path class="d" d="M234.49,433.26s4.09-3.31,10.87,0"/><polygon points="191.5 384.25 214.64 353.2 207.11 352.08 191.5 384.25"/><polygon points="30.75 165.03 42.64 111.36 12.65 147.26 30.75 165.03"/></g><g><path d="M608.82,8c18,0,30.38,10.28,30.38,10.28,0,0,25.54,14.09,28.82,36.34,3.28,22.24,1.65,25.81,1.65,25.81,0,0,17.03,7.6,15.08,15.43l-7.29,6.88-10.66-12.21-3.85,11.5s58.91,48.06,50.4,118.78c0,0,32.84,25.19,16.48,51.79-8.21,13.34-19.22,16.67-28.17,16.67s-15.73-3.28-15.73-3.28c0,0-39.12,37.08-90.57,37.08-3.2,0-6.45-.14-9.74-.45-62.93-5.83-122.68-26.76-160.45-80.44-27.98-39.77-16.93-62.02-16.93-62.02,0,0-33.5-31.03-19.88-62.85,9.32-21.77,31.27-25.21,44.22-25.21,5.97,0,10.03,.73,10.03,.73,0,0,7.42-21.22,62.94-34.41-.06,.01-.11,.02-.17,.02-3.16,0-11.38-18.14-12.08-20.29-4.46-13.53,1.91-19.87,12.35-19.87,1.96,0,4.07,.22,6.27,.66,11.97,2.4,26.24-.1,37.77,4.83,7.56,3.23,13.12,5.6,13.12,5.6l10.87-7.89s9-10.84,29.83-13.2c1.82-.21,3.59-.3,5.31-.3m0-8c-2.07,0-4.16,.12-6.21,.35-20.64,2.34-31.32,12.01-34.3,15.16l-6.53,4.74c-2.3-.98-5.4-2.3-8.94-3.82-8.32-3.56-17.09-3.86-25.57-4.16-4.96-.17-9.65-.34-13.77-1.16-2.72-.54-5.36-.82-7.84-.82-7.95,0-14.42,2.89-18.21,8.12-2.84,3.93-5.45,10.98-1.74,22.24,.62,1.87,3.16,7.48,5.65,12.18,.17,.31,.33,.62,.49,.93-18.48,5.39-33.09,12.27-43.54,20.53-4.78,3.78-7.9,7.26-9.91,10.01-1.65-.12-3.61-.21-5.81-.21-6.78,0-16.91,.88-26.65,5.1-11.6,5.02-19.99,13.42-24.93,24.97-6.59,15.4-4.78,32.85,5.23,50.46,4.46,7.84,9.6,14.04,12.96,17.71-.77,3.42-1.4,8.29-.97,14.48,1.08,15.46,7.94,32.27,20.39,49.97,18.48,26.27,43.37,46.74,73.98,60.83,26.03,11.98,57.08,19.71,92.27,22.97,3.45,.32,6.98,.48,10.48,.48,45.2,0,80.85-26.38,92.27-35.93,3.45,1.05,8.38,2.13,14.04,2.13,10.21,0,24.57-3.55,34.98-20.48,8.41-13.68,7.66-29.02-2.18-44.38-4.27-6.67-9.39-11.89-12.73-14.95,2.5-29.44-5.65-59.41-23.7-86.95-5.56-8.48-11.28-15.57-16.21-21.08,.4-.26,.78-.56,1.13-.89l7.29-6.88c1.11-1.05,1.9-2.4,2.27-3.88,1.16-4.64,.37-11.71-9.91-19.09-1.55-1.11-3.12-2.09-4.52-2.91,0-4.42-.53-11.33-2.15-22.34-3.55-24.08-27.95-39.31-32.25-41.83-3.04-2.32-16.38-11.63-34.86-11.63h0Z"/><path class="d" d="M492.14,117.31s15.4-14.18,32.59-6.71"/><path class="d" d="M609.06,130.73s24.39,5.27,27.02,21.7"/><path class="d" d="M544.85,214.11s-25.81-2.68-17.25-15.33,22.04-1.92,22.04-1.92"/><path class="d" d="M574.56,241.91c-44.02,10.74-69.01-16.29-69.01-16.29,7.73-12.26-1.92-23.96-1.92-23.96"/><path class="d" d="M479.68,229.45s18.27,9.78,25.88-3.83"/><path class="d" d="M598.52,252.45s-29.09,1.33-23.2-19.56c0,0,2.18-9.95,11.7-12.06"/><circle cx="484.89" cy="205.77" r="1.92"/><circle cx="592.23" cy="229.73" r="1.92"/><circle cx="597.98" cy="242.19" r="1.92"/><circle cx="605.65" cy="232.6" r="1.92"/><circle cx="484.89" cy="216.31" r="1.92"/><circle cx="493.51" cy="208.64" r="1.92"/><path class="g" d="M568.81,203.73s4.86-59.45,29.71-57.22,22.59,42.16,22.59,42.16l-1.5,20.65s-43.06-10.98-50.8-5.59Z"/><path d="M612.62,154.28c-1.51-1.12-3.14,1.44-3.26,2.48-.13,1.18,.71,3.02,.97,4.18,.89,4.03,3.54,10.87-2.4,12.49-3.87,1.05-9.84-1.96-12.32,2.5,.21-.38,6.95,2,7.66,2.31,2.58,1.11,4.95,2.75,6.01,5.46,1.25,3.2,.97,6.78,1.29,10.14,.29,2.99,.45,6.02,0,9-.41,2.66-.39,2.92-2.62,2.87-3.01-.07-6.26-1.01-9.23-1.49l-15.88-2.57h-10.18l-3.85,2.08,6.39-32.19,8.35-18.1,7.94-6.51,10.19,.1c3.64,2.4,7.45,4.66,10.94,7.25Z"/><path class="i" d="M486.07,181.81c.7-5.14,1.45-10.27,2.27-15.39,.56-3.51,1.12-7.04,1.85-10.52,2.57-12.29,12.54-23.71,24.12-28.11,8.82-3.35,17.5,.68,22.64,8.16,6.6,9.61,5.07,21.01,3.34,31.85-.79,4.94-1.66,9.88-2.84,14.74-.69,2.83-1.36,7.74-3.79,9.73,0,0-43.99-15.73-47.58-10.46Z"/><path d="M534.23,132.65c-1.34-.92-5,1.06-6.06,1.86-1.97,1.49-1.79,2.64-1.6,5.05,.27,3.48,.88,6.99,1.59,10.41,0,0,1.42,6.83-8.23,7.59,0,0-4.02,.51-5.88,2.07s9.38,.57,9.99,8.26c.4,5-1.29,12.25-3.39,16.8-.9,1.95-1.17,1.73-3.35,1.5-1.71-.18-3.42-.55-5.1-.88-4.57-.91-9.11-1.97-13.63-3.1-3.57-.9-7.29,.17-10.69-.55-3.79-.8,.32-11.82,.72-14.07l3.3-18.59,11.73-15.58,13.32-6.82,10.59,1.43,6.68,4.62Z"/><path class="i" d="M502.09,57.63s26.5-6.18,33.16-5.94"/><path class="i" d="M562.81,28.43s108.1,52.78,100.15,72.65l-46.78-12.6c-16.06-4.5-34.64-7.85-48.55-17.46-14.84-10.25-28.61-23.62-39.97-37.59-5.5-6.76-11.84-12.93-19.23-17.6"/><path class="i" d="M573.68,21.5s62.18,28.46,65.52,35.68"/><path d="M629.61,65.55s15.76-19.75,39.94-9.97c0,0,6.9,25.47-3.56,43.5,0,0-14.82-18.97-36.38-33.53Z"/><path d="M408.25,180.16l14.82-55.38-31.21,33.44s5.18,23.84,10.53,22.52,5.86-.57,5.86-.57Z"/><path d="M490.14,308.99l29.6,9.13-9.6,15.61c-11.66,20.13-7.45,26.07-7.45,26.07,3.96,2.75,11.03,3.18,15.13,3.18,1.92,0,3.19-.1,3.19-.1l-13.04,25.91c-19.57-.51-31.59-15.55-31.59-15.55-13.77-10.31,13.76-64.26,13.76-64.26m0-8c-2.94,0-5.73,1.63-7.13,4.36-.29,.57-7.19,14.15-12.47,29.26-5.14,14.71-10.61,35.13,.24,44.39,3.05,3.47,16.43,17.25,36.98,17.79,.07,0,.14,0,.21,0,3.02,0,5.78-1.7,7.15-4.4l13.04-25.91c1.3-2.58,1.11-5.65-.5-8.05-1.49-2.23-3.99-3.55-6.65-3.55-.2,0-.4,0-.6,.02h0s-1.04,.07-2.59,.07c-3.42,0-5.95-.32-7.71-.72,.44-2.71,1.95-7.9,6.89-16.44l9.55-15.51c1.3-2.11,1.55-4.7,.67-7.01-.87-2.32-2.77-4.1-5.13-4.83l-29.6-9.13c-.78-.24-1.57-.36-2.36-.36h0Z"/><path d="M548.87,325.61l29.38,4.95-55.83,110.19c26.51,9.28,17.64,40.76,17.64,40.76l-145.68-2.88c-.75-4.21,.27-8.68,1.33-12.74,2.54-9.71,5.61-19.8,13.96-26.06,7.58-5.68,17.33-7.84,26.58-8.74,3.58-.35,7.18-.5,10.78-.5,6.89,0,13.8,.56,20.61,1.4,2.04,.25,23.07,4.51,25.27,4.51,.11,0,.17-.01,.18-.03,.02-.04,55.78-110.85,55.78-110.85m0-8c-2.98,0-5.77,1.67-7.14,4.4,0,0-42.22,83.92-53.2,105.72-3.59-.64-8.3-1.55-11.39-2.13-5.56-1.06-7.59-1.44-8.52-1.56-8-.98-15.06-1.46-21.59-1.46-3.99,0-7.88,.18-11.56,.54-13.04,1.27-23.05,4.64-30.6,10.3-10.26,7.69-13.98,19.26-16.9,30.44-1.25,4.79-2.5,10.39-1.47,16.17,.67,3.76,3.9,6.51,7.72,6.59l145.68,2.88c.05,0,.11,0,.16,0,3.57,0,6.72-2.38,7.7-5.83,.27-.96,2.62-9.71,1.37-20.03-1.41-11.63-6.96-20.78-15.9-26.51l52.17-102.96c1.15-2.27,1.15-4.95,0-7.22s-3.3-3.86-5.81-4.28l-29.38-4.95c-.45-.07-.89-.11-1.33-.11h0Z"/><path d="M615.96,348.85c1.09,0,2.25,.09,3.48,.28,18.31,2.8,17.86,21.25,17.86,21.25,0,0,5.13,98.88,1.35,111.14h-55.44s-6.78-35.79,15.73-42.43c0,0-6.59-20.73-4.5-49.62l-37.47,1.55,12.84-25.24h29.13s1.9-16.92,17.01-16.92m0-8h0c-13.29,0-20.21,8.95-23.2,16.92h-22.94c-3.01,0-5.77,1.69-7.13,4.37l-12.84,25.24c-1.29,2.53-1.14,5.56,.4,7.95,1.48,2.3,4.02,3.68,6.73,3.68,.11,0,.22,0,.33,0l28.76-1.19c-.3,16.28,1.85,29.33,3.49,36.8-8.22,5.19-13.41,14.6-14.86,27.27-1.24,10.86,.59,20.71,.66,21.12,.72,3.78,4.02,6.51,7.86,6.51h55.44c3.51,0,6.61-2.29,7.65-5.65,.82-2.67,2.75-8.93,1.09-62.77-.76-24.56-1.94-48.07-2.09-50.87,.09-8.91-4.91-25.99-24.65-29.01-1.6-.24-3.17-.37-4.69-.37h0Z"/><polygon points="490.14 308.99 510.13 333.72 519.73 318.11 490.14 308.99"/><polygon points="556.98 391 582.71 364.81 567.95 362.23 556.98 391"/><polygon points="593.49 389.45 614.52 388.79 593.2 419.66 593.49 389.45"/><polygon points="548.87 325.61 570.6 345.67 578.25 330.56 548.87 325.61"/><path class="i" d="M489.26,434.55s11.07-1.01,15.09,6.58"/><path class="i" d="M597.99,438.12s3.58-3.54,9.69-1.26"/></g></g></g></g></svg>