<?xml version="1.0" encoding="UTF-8"?><svg xmlns="http://www.w3.org/2000/svg" viewBox="0 0 159.98 237.98"><defs><style>.d,.e{stroke-width:3px;}.d,.e,.f,.g{fill:none;stroke:#231f20;stroke-miterlimit:10;}.d,.f,.g{stroke-linecap:round;}.h{fill:#231f20;}.f{stroke-width:8px;}.g{stroke-width:2px;}</style></defs><g id="a"/><g id="b"><g id="c"><g><path class="d" d="M70.33,112.03s2.8,1.86,5.59,.93"/><path class="d" d="M52.61,103.64s9.32-13.99,16.78,1.86c0,0,3.8,7.46,9.83,0,4.6-5.69,9.75-5.59,9.75-5.59,9.32,1.86,8.39,9.32,8.39,9.32"/><ellipse class="h" cx="74.99" cy="99.44" rx="2.8" ry="2.33"/><path class="d" d="M57.18,98.25s-2.7-22.59,5.69-25.39,6.53,19.58,6.53,19.58c0,0-.33,5.12-1.1,9.09,0,0-6.56-7.73-11.13-3.28Z"/><path class="h" d="M58.58,78.58c1.23,1.73,2.45,3.45,3.68,5.18,.68,.96,1.7,1.68,1.23,2.83-.17,.41-3.11,4.03-3.29,3.91,.52,.36,1.56,.35,2.16,.46,1.68,.3,1.5,1.24,1.52,2.77,0,.34,.18,4.13-.09,4.21l-6.63,1.25-.41-12.33,1.82-8.28Z"/><path class="e" d="M83.79,100.85c-.05-2.82-.02-5.64,.06-8.46,.12-4.25-.03-9.18,1.38-13.25,1.02-2.93,3.25-5.34,6.55-5.34,4.66,0,4.66,7.46,4.66,7.46,0,0,.06,18.17-1.37,21.21,0,0-6.21-4.4-11.28-1.62Z"/><path class="h" d="M85.23,79.14l3.52,4.83c.53,.73,1.31,1.51,1.69,2.33,.71,1.53-2.48,4.16-3.32,5.22l1.88,.43c.87,.2,1.58,.13,1.84,1.1,.21,.78,0,1.88,0,2.68v4.13s-5.72-.87-7.05,.99c0,0-.44-21.97,1.44-21.71Z"/><path class="d" d="M82.41,52.9c-6.33-.44-12.88,1.52-17.91,5.9-9.55,8.32-14.44,21.82-16.52,34-1.92,11.21-.37,23.27,5.75,32.86,2.82,4.43,6.77,8.4,11.77,10.01,3.42,1.1,7.15,1.03,10.64,.19,8.68-2.08,15.76-8.71,20.13-16.5,4.36-7.79,6.32-16.68,7.64-25.51,1.62-10.8,2.11-22.78-4.3-31.62-4.16-5.74-10.56-8.85-17.2-9.32Z"/><path class="d" d="M90.93,128s16.23,20.86,17.16,29.25"/><path class="d" d="M68.3,137.67s-4.96,21.45-3.1,27.97"/><path class="d" d="M99.51,114.13s26.3,8.62,28.16,17.01"/><path class="d" d="M103.91,93.84s27.3,1.89,30.19,7.01"/><path class="d" d="M104.86,78.58s28.4-6.18,34.93-2.45"/><path class="d" d="M99.61,62.21s17.8-20.59,25.26-19.65"/><path class="d" d="M84.93,52.37s5.44-27.53,10.1-29.39"/><path class="d" d="M56.76,23.98s11.24,32.36,12.63,31.53"/><path class="d" d="M27.9,53.75s24.15,14.5,28.86,13.31"/><path class="d" d="M18.58,82.66s29.05,5.79,30.84,3.36"/><path class="d" d="M18.58,114.13s28.36-3.76,28.63-5.97"/><path class="d" d="M53.73,125.65s-25.83,14.81-27.69,21.34"/><path class="h" d="M96.06,8c.94,0,1.95,.12,3.02,.36,6.35,1.46,8.09,9.61,8.57,15.15,.69,8.02-2.06,16.48-7.02,22.78,0,.01-7.46,9.33-7.46,9.33l1.86,.93,9.32-11.19s11.19-10.26,16.78-14.92c2.31-1.92,4.59-2.74,6.73-2.74,7.12,0,12.51,9.13,10.99,16.72-1.87,9.33-17.72,17.72-17.72,17.72-5.29,2.8-10.34,6.18-15.46,9.3-.31,.17-.59,.34-.83,.5,.28-.17,.55-.33,.83-.5,5.26-2.9,21.23-7.55,32.95-7.55,7.98,0,13.99,2.16,13.28,8.51-1.66,14.92-14.84,15.75-17.76,15.75-.37,0-.57-.01-.57-.01-3.89,0-7.79,.07-11.69,.07-5.55,0-11.1-.15-16.61-.89l-.93,2.8,7.46-.93c1.2-.15,2.46-.22,3.76-.22,7.24,0,15.69,2.14,22.15,4.18,7.37,2.34,13.48,7.07,11.48,15.59-1.33,5.67-6.44,7.8-11.68,7.8-2.44,0-4.92-.46-7.05-1.25-3.07-1.13-28.65-8.42-27.97-11.19l-1.24,5.03c.16-.15,.52-.22,1.03-.22,4.43,0,20.44,5.22,20.44,5.22,7.25,2.5,13.78,6.78,19.09,12.29,6.09,6.33,2.79,12.59-4.33,16.2-1.76,.89-3.54,1.28-5.33,1.28-8.48,0-17-8.67-23.54-12.37-4.66-2.64-9.46-5.11-13.73-8.37-.18-.14-.35-.27-.52-.4,.17,.14,.35,.27,.52,.4,5.52,4.24,12.41,8.85,16.58,14.35,3.14,4.14,7.96,12.72,8.75,17.87,0,0,.93,12.12-5.59,14.92-1.18,.51-2.34,.74-3.45,.74-8.3,0-14.7-12.65-17.84-18.38-3.57-6.52-6.13-13.47-9.09-20.27l-5.05,3.94c.93,5.18,.93,13.47-.44,25.14-1.37,11.67-4.22,14.44-10.44,17.59-1.23,.62-2.44,.9-3.6,.9-3.48,0-6.58-2.46-8.89-5.4-3-3.82-2.48-7.99-1.48-12.47,.79-3.53,1.87-7.05,3.18-10.42l4.76-15.33c-3.65,8.57-9.89,17.24-12.12,26.23-.81,3.28-1.51,6.59-2.13,9.91l14.39,14.62s2.8-4.66,7.46-4.66,4.66,6.53,4.66,6.53c0,0,8.39,6.53,12.12,11.19,4.5,5.63-3.54,15.44-7.31,19.58-5.42,5.96-13.42,10.26-21.6,10.26-5.6,0-5.6-7.46-4.66-13.05,.93-5.59,7.46-11.19,7.46-11.19l-.64-2.8s-.96,.41-2.15,.41c-.6,0-1.25-.1-1.87-.41-1.5-.75-.78-4.62-.66-5.87,.26-2.76,.82-3.59-.75-5.84-3.36-4.84-9.46-6.93-12.4-12.39-2.82-5.24-3.64-11.84-1.2-17.38,4.48-10.21,9.43-21.1,16.86-29.37h0c-.53,.59-16.77,18.63-16.77,18.63-4.42,3.98-8.62,5.02-11.83,5.02-3.56,0-5.89-1.29-5.89-1.29,0,0-7.46-4.66-1.86-13.99,5.59-9.32,29.55-20.07,29.55-20.07-.52-1.75-1.95-2.36-3.75-2.36-3.38,0-8.05,2.19-10.33,3.16-3.84,1.62-7.61,2.7-11.8,2.91-1.03,.05-2.56,.14-4.21,.14-3.04,0-6.5-.29-8.16-1.6-.01,0-8.08-6.42-2.93-15.77,3.41-6.18,14.21-7.33,20.35-8.21,5.52-.79,11.19-1.3,16.78-1.3,.17,0,.35,0,.52,0,.13-.69-.03-1.75-.31-2.27,.24,.44-3.5,.56-6.74,.56-2.2,0-4.17-.05-4.51-.1-2.89-.36-5.76-.63-8.65-.91-5.3-.51-11.5-1.3-14.31-6.5-.02-.03-5.48-10.15,2.9-14.8,1.76-.98,4.38-1.36,7.43-1.36,11.47,0,28.94,5.48,28.94,5.48l.29-2.52-21.76-7.8c-5.66-2.99-11.56-7.95-10.58-15.02,.7-5.05,4.31-9.48,9.33-10.65,1.14-.26,2.3-.39,3.48-.39,10.88,0,23.07,10.57,27.45,19.37-.03-.06-8.9-17.91-8.9-17.91,0,0-12.36-29.81,5.31-30.41,.13,0,.26,0,.38,0,17.33,0,20.29,40.25,20.29,40.25h2.24l1.38-6.08c2.07-9.12,.2-38.29,15.01-38.29m0-8c-11.57,0-16.55,9.84-18.48,15.71-.27,.82-.52,1.67-.75,2.52-4.11-7.75-10.34-14.11-19.69-14.11-.22,0-.44,0-.66,.01-6.11,.21-11.12,2.88-14.11,7.52-4.1,6.37-3.47,15.33-1.88,22.54-2.52-.72-5.06-1.12-7.59-1.12h0c-1.81,0-3.59,.2-5.29,.6-8.06,1.87-14.27,8.84-15.44,17.34-.46,3.34-.27,8.53,3.46,13.84-1.38,.38-2.62,.87-3.74,1.49-10.03,5.57-10.64,17.09-6.06,25.59,.95,1.76,2.1,3.23,3.37,4.44-2.61,1.63-4.88,3.78-6.46,6.64-6.67,12.1,.33,22.23,4.97,25.9,2.39,1.9,5.57,2.93,10.07,3.23-1.31,1.38-2.42,2.79-3.27,4.21-7.07,11.78-1.19,21.34,4.48,24.89l.17,.11,.18,.1c.69,.38,4.41,2.3,9.77,2.3,.84,0,1.77-.05,2.77-.17-1.19,6.22-.11,13.03,3.13,19.06,2.4,4.46,5.94,7.22,8.79,9.43,1.43,1.11,2.7,2.1,3.57,3.08-.05,.36-.09,.75-.13,1.18-.01,.1-.03,.23-.05,.38-.26,2.1-.85,6.81,1.58,10.37-1.64,2.47-3.07,5.4-3.6,8.53-1.34,8.04-.33,14.11,3.01,18.05,2.36,2.79,5.75,4.32,9.54,4.32,9.9,0,20.19-4.81,27.52-12.88,13.89-15.28,11.82-24.72,7.63-29.96-2.93-3.67-7.88-7.96-10.91-10.46-.13-.54-.3-1.11-.5-1.69-.35-.99-.79-1.91-1.3-2.75,3.7-4.07,5.53-9.46,6.52-17.85,.18-1.49,.33-2.94,.47-4.35,4.17,7.66,11.72,20.99,24.01,20.99,2.24,0,4.46-.47,6.61-1.38,10.8-4.63,10.92-19.67,10.36-23.45-.14-.91-.35-1.85-.62-2.82,1.51,.33,3.06,.51,4.65,.51,3.13,0,6.14-.72,8.95-2.14,6.57-3.33,10.72-8.32,11.69-14.05,.81-4.78-.71-9.64-4.29-13.82,4.29-2.39,7.31-6.3,8.49-11.32,1.85-7.88-.53-14.76-6.49-19.66,4.77-3.61,8.44-9.29,9.37-17.63,.61-5.52-1.53-9.22-3.43-11.34-3.19-3.56-8.04-5.52-14.79-5.96,2.42-2.98,4.33-6.34,5.06-9.99,1.31-6.57-.59-13.97-4.97-19.32-3.69-4.5-8.61-6.98-13.87-6.98-4.14,0-8.24,1.59-11.85,4.59-.1,.08-.2,.16-.3,.25-.02-.57-.06-1.14-.1-1.71-1.43-16.76-9.86-21.14-14.75-22.26-1.64-.38-3.26-.57-4.81-.57h0Z"/><path class="h" d="M133.02,154.45l15.53,4.66c4.32,12.5,3.46,25.66-1.4,37.82-.64,1.6-1.24,3.01-2,4.04-.81,1.1-1.81,1.76-3.24,1.76-.82,0-1.77-.22-2.91-.69-3.32-1.38-7.1-4.78-8.78-7.99-3.42-6.52-.44-12.65,2.74-18.44-.92,1.15-1.83,2.35-2.74,3.53l-2.55-4v-17.46l5.34-3.23m-1.1-8.68l-3.04,1.83-5.34,3.23-3.86,2.33v24.31l1.25,1.97,.92,1.44c-1.49,4.91-1.91,10.78,1.29,16.89,2.55,4.85,7.69,9.54,12.79,11.66,2.11,.88,4.06,1.3,5.98,1.3,3.84,0,7.27-1.77,9.66-4.99,1.35-1.82,2.23-3.88,3.01-5.84,5.8-14.53,6.33-29.54,1.53-43.4l-1.34-3.87-3.92-1.18-15.53-4.66-3.4-1.02h0Z"/><path class="f" d="M84.93,165.64s3.58,3.67,11.5,2.77"/><path class="g" d="M130.22,179.14s1.18-3.24,4.91-6.04"/><path class="g" d="M57.74,206.67s7.5-6.01,14-3.01"/><path class="g" d="M59.9,203.87s2.53-.75,4.85-3.17"/><path class="g" d="M75.46,188.02s.93,1.86-.93,3.73"/></g></g></g></svg>