<?xml version="1.0" encoding="UTF-8"?><svg xmlns="http://www.w3.org/2000/svg" viewBox="0 0 229.01 250.44"><defs><style>.d{fill:none;stroke:#231f20;stroke-linecap:round;stroke-miterlimit:10;stroke-width:3px;}.e{fill:#231f20;}</style></defs><g id="a"/><g id="b"><g id="c"><g><path class="d" d="M123.56,104.44c-.79-4.27-7.05-7.44-9.77-3.81-3.38,4.52,.84,9.27,5.27,10.02"/><path class="d" d="M103.56,115.44s15,13,28,4"/><path class="d" d="M142.86,122.62s-17.35,3.24-8.32-11.97"/><circle class="e" cx="140.06" cy="112.94" r="1"/><circle class="e" cx="143.56" cy="116.44" r="1"/><circle class="e" cx="137.56" cy="117.44" r="1"/><path class="d" d="M103.67,48.72c-2.74,.54-5.45,2.1-7.67,4.27-5.73,5.59-8.08,13.63-8.44,21.45-.27,5.94,.21,12.36,2.67,17.95,1.56,3.55,4.6,8.75,8.79,9.2,7.93,.85,13.86-6.53,16.31-13.13,.49-1.31,.89-2.66,1.23-4.02,2.32-9.28,2.8-23.04-2.96-31.49-2.63-3.85-6.3-4.94-9.93-4.23Z"/><path class="d" d="M142.56,51.21s-16,1.24-16,26.24,10,26.54,10,26.54c0,0,12,3.46,17-12.54s1-29,1-29c0,0-4-12.47-12-11.24Z"/><path class="e" d="M91.93,8c1.48,0,2.97,.12,4.46,.37,16.11,2.69,26.28,20.72,30.18,35.23-1.48-5.53,8.43-15.82,12.09-18.78,5.98-4.84,14.11-8.77,22.07-8.77,1.4,0,2.79,.12,4.17,.38,15.7,2.95,31.95,16.71,35.6,32.68,6.32,27.58-13.57,55.79-30.67,74.98-14.22,15.96-34.42,26.52-52.26,37.8-13.93-12.17-30.36-23.52-41.57-38.35-9.99-13.22-16.55-28.89-22.43-44.1-.64-1.66-1.12-3.4-1.56-5.12-3.03-11.78-3.31-24.74,1.01-36.24,5.57-14.86,22.09-30.08,38.92-30.08M91.93,0c-20.77,0-39.91,17.93-46.41,35.27-5.79,15.45-3.88,30.84-1.26,41.04,.46,1.79,1.02,3.88,1.85,6.02,5.72,14.79,12.73,31.76,23.51,46.03,8.77,11.61,20.2,20.95,31.25,29.99,4.01,3.28,7.79,6.37,11.44,9.56l4.49,3.92,5.04-3.19c3.38-2.14,6.79-4.21,10.39-6.41,15.38-9.37,31.28-19.05,43.56-32.83,11.39-12.78,19.67-24.6,25.33-36.15,8-16.33,10.41-31.78,7.17-45.94-4.21-18.39-22.23-35.05-41.92-38.75-1.83-.34-3.73-.52-5.65-.52-8.94,0-18.82,3.84-27.1,10.55-1.63,1.32-3.89,3.47-6.13,5.96-1.54-2.81-3.24-5.45-5.06-7.85C115.56,7.65,107.01,2.03,97.7,.48,95.82,.16,93.87,0,91.93,0h0Z"/><path class="e" d="M103.64,48.72c.3,5.68,.56,11.37,.91,17.05,.1,1.65-3.26,3.81-4.4,4.91-.55,.53-2.11,1.56-2.33,2.27-.78,2.47,4.43,3.72,5.3,5.76,1.4,3.29,.83,8.03,.41,11.41-1.04,8.31-2.59,11.53-2.6,11.55-.2,.42-4.57-1.44-4.88-1.6-5.33-2.67-6.4-7.67-7.56-12.87-1.94-8.68-2.27-16.72,1.38-25.01,2.4-5.45,6.69-13.23,13.77-13.47Z"/><path class="e" d="M142.57,51.21c-.87,.15-.09,9.76-.07,10.63,.04,2.24,.16,4.58-.17,6.8-.12,.8-.23,1.38-.7,2.03-.35,.49-5.17,4.21-5.03,4.42l3.26,4.86c.49,.73,.98,1.46,1.3,2.27,.44,1.11,.54,2.31,.6,3.5,.14,2.83,.05,5.67-.27,8.49-.43,3.75-1.58,7.89-4.87,9.72-4.14-2.26-6.88-6.53-8.24-11.05s-1.47-9.3-1.44-14.01c.02-4,.15-8.04,1.04-11.94,1.65-7.26,6.77-14.59,14.61-15.71Z"/><path class="e" d="M81.06,140.94l9,9c-6,0-12,22-12,22l-7,27c7,9-5,13-5,13,5.86,9.77-3.75,16.05-12.1,18.71-2.39,.76-4.85,1.11-7.31,1.11-6.03,0-12.06-2.1-17.12-5.34-7.46-4.78-11.69-13-15.57-20.7-4.71-9.34-7.66-20.41-4.9-30.78,4-15,24.99-17,25-17,.55-.05,1.08-.08,1.59-.08,14.76,0,17.97,20.71,21.28,31.24,.89-.62,5.91-1.56,6.12-2.16,.07-.23,6.02-19.06,9-29,3-10,9-17,9-17m-.45-11.77l-5.62,6.56c-.29,.34-7.14,8.42-10.59,19.91-1.25,4.16-3.01,9.86-4.64,15.11-1.01-2.73-2.21-5.44-3.67-7.95-6.21-10.69-14.54-12.94-20.43-12.94-.77,0-1.56,.04-2.35,.11-1.08,.1-26.59,2.74-31.97,22.91-2.92,10.95-1.02,23.55,5.49,36.45,4,7.93,8.98,17.79,18.4,23.83,6.65,4.26,14.26,6.61,21.44,6.61,3.36,0,6.64-.5,9.74-1.49,5.46-1.74,15.1-5.96,18.4-14.7,.78-2.06,1.36-4.82,.93-8.07,2.06-1.74,3.99-4.12,4.95-7.28,.78-2.57,1.09-6.29-1.01-10.58l6.13-23.65c1.75-6.36,4.56-13.34,6.41-16.06h17.18l-13.66-13.66-9-9-6.11-6.11h0Z"/><path class="d" d="M28.56,156.44c9.63-.73,14.85,8.28,17.47,16.24,1.34,4.06,2.17,8.25,2.83,12.47,.99,6.3,4.02,11.27,9.02,15.28,2.68,2.15,5.77,4.48,7.31,7.64,2.06,4.21,2.69,9,4.37,13.37"/><path class="d" d="M55.09,197.88s-18.53,26.56-31.53,26.56"/><line class="d" x1="57.32" y1="180.51" x2="66.81" y2="191.37"/><path class="e" d="M140.95,159.4s2.61,9.04,7.61,20.04c1.71,3.75,4.13,6.58,8.15,6.58,.39,0,.79-.03,1.2-.08,5.38-.69,11.79-1.85,16.83-3.85,2.67-1.06,5.3-2.28,7.82-3.65-2-5,2-8,2-8,2.58-1.62,4.33-2.19,5.65-2.19,2.76,0,3.64,2.51,6.35,3.19,.36,.09,.73,.13,1.09,.13,3.61,0,6.91-4.13,6.91-4.13,0-2.32,1.32-2.81,2.44-2.81,.81,0,1.51,.26,1.51,.26,1.82,.67,4.27,7.63,5.05,9.21,3.01,6.09,5.66,12.51,6.94,19.22,2.56,13.43-4.58,27.77-13.93,37.12-5,5-24,12-27,12s-1.47-4.77-1.94-4.89c-3.24-.78-5-5.29-6.06-8.11-1.62-4.21-3.75-11.06-1.4-15.31,2.32-4.2,8.17-4.46,11.4-7.69,4-4,3-12,3-12-3-1-4.73-5.09-4.73-5.09l-10.27,4.09c-3.87,1.94-9.24,3.44-14.41,3.44s-10.5-1.61-13.56-6.02c-2.04-2.93-3.39-6.39-4.63-9.72-1.78-4.79-3.25-9.73-4.4-14.71l8.39-7.04m4.27-14.02l-9.41,7.89-4.2,3.52-2.88,2.42c-2.05,1.72-4.17,3.5-4.17,7.23v.91l.2,.89c1.23,5.33,2.81,10.61,4.69,15.69,1.41,3.79,3,7.81,5.56,11.49,4.23,6.1,11.38,9.45,20.13,9.45,5.87,0,12.29-1.5,17.67-4.12l3.61-1.44c-.14,.68-.32,1.23-.54,1.48-.34,.33-1.77,.98-2.71,1.4-2.95,1.32-7.4,3.32-10.02,8.06-2.99,5.41-2.69,12.62,.92,22.02,.93,2.47,2.52,6.71,5.73,9.77,.29,1.72,.99,3.63,2.56,5.33,1.84,1.98,4.39,3.07,7.19,3.07,3.93,0,12.36-3.31,15.8-4.73,8.19-3.38,13.86-6.61,16.85-9.61,5.69-5.68,10.24-12.48,13.18-19.66,3.41-8.33,4.43-16.85,2.95-24.62-1.61-8.48-5.12-16.19-7.62-21.26-.08-.16-.33-.78-.52-1.24-2.49-5.98-4.58-10.34-8.94-11.94-.63-.23-2.27-.75-4.27-.75-2.64,0-5.03,.87-6.9,2.51-1.11,.97-1.98,2.17-2.58,3.53-1.55-1.1-3.97-2.42-7.3-2.42-3.04,0-6.18,1.08-9.89,3.4l-.29,.18-.27,.2c-2.71,2.03-5.01,5.5-5.6,9.62-.78,.34-1.57,.67-2.37,.99-3.52,1.4-8.52,2.52-14.85,3.34-.21-.24-.6-.79-1.09-1.87-4.67-10.28-7.18-18.87-7.21-18.95l-3.42-11.79h0Z"/><path class="d" d="M196.56,170.44s2.5,2.5,1.5,8.5"/><path class="d" d="M179.56,205.44s6.82-3,10.91,0"/><path class="d" d="M183.56,195.44s5,0,7-4"/><path class="d" d="M203.94,167.44c3.4,5.95,6.2,12.35,8,18.91,3.2,11.67,.34,26.79-7.79,36.25-7.31,8.5-18.45,12.89-29.09,16.35"/></g></g></g></svg>