<?xml version="1.0" encoding="UTF-8"?><svg xmlns="http://www.w3.org/2000/svg" viewBox="0 0 1624.72 616.25"><defs><style>.d,.e,.f,.g,.h,.i,.j{stroke-miterlimit:10;}.d,.e,.f,.k,.h,.i,.j,.l{fill:none;}.d,.e,.f,.k,.l{stroke-width:3px;}.d,.e,.h,.i,.j,.l{stroke-linecap:round;}.d,.h{stroke:#231f20;}.e,.f,.g,.k,.i,.j,.l{stroke:#000;}.m{fill:#231f20;}.k,.l{stroke-linejoin:round;}.i{stroke-width:8px;}.j{stroke-width:4px;}</style></defs><g id="a"/><g id="b"><g id="c"><g><g><path d="M1119.4,198.78c45.47,0,94.57,27.41,123.32,59.38,5.11,5.69,10.15,11.57,13.62,18.39,3.11,6.11,4.87,12.81,6.61,19.44,3.35,12.78,6.7,25.56,10.04,38.33,2.66,10.16,5.34,20.38,9.77,29.9,4.92,10.59,12.16,21.61,9.38,32.95-3.13,12.78-17.69,19.24-30.8,20.39-20.04,1.76-32.26,16.28-50.32,23.33-13.56,5.3-27.97,8.38-42.48,9.42-3.91,.28-7.82,.42-11.74,.42-16.06,0-32.1-2.29-47.71-6.25-5.4-1.37-10.76-2.94-16.04-4.69-24.67-8.16-48.38-20.37-67.03-38.46-18.65-18.09-31.92-42.45-33.62-68.37-.34-5.26-.26-10.75-2.52-15.52-1.64-3.46-4.37-6.24-6.8-9.19-7.89-9.55-13.01-21.75-12.44-34.12,.57-12.37,7.4-24.69,18.47-30.25,6.7-3.36,14.35-4.14,21.66-5.8,31.7-7.24,57.67-31.61,89.63-37.58,6.22-1.16,12.58-1.71,19.01-1.71m0-8c-7.03,0-13.92,.62-20.48,1.85-17.74,3.31-33.47,11.75-48.69,19.91-13.88,7.44-26.99,14.48-41.26,17.73-1.75,.4-3.54,.75-5.43,1.12-5.94,1.15-12.07,2.35-18.03,5.34-13.16,6.61-22.14,21.15-22.87,37.03-.62,13.64,4.44,27.7,14.26,39.59,.53,.65,1.08,1.29,1.63,1.92,1.68,1.96,3.27,3.82,4.11,5.59,1.23,2.6,1.42,6.22,1.62,10.04,.05,.86,.09,1.72,.15,2.57,.89,13.62,4.69,27.15,11.3,40.21,6.18,12.23,14.51,23.46,24.74,33.38,17.79,17.25,41.37,30.81,70.08,40.31,5.53,1.83,11.11,3.46,16.59,4.85,16.98,4.31,33.7,6.5,49.68,6.5,4.13,0,8.27-.15,12.31-.44,15.73-1.13,30.81-4.48,44.82-9.95,7.68-3,14.18-7.09,20.46-11.04,9.27-5.83,17.28-10.87,27.65-11.78,8.2-.72,16.2-3.18,22.52-6.92,8.09-4.79,13.4-11.54,15.35-19.54,3-12.24-2.48-23.23-7.32-32.93-.92-1.84-1.78-3.57-2.58-5.29-4.13-8.9-6.75-18.89-9.28-28.56l-5.99-22.86-4.05-15.47c-1.82-6.95-3.7-14.13-7.21-21.04-3.94-7.76-9.47-14.19-14.8-20.11-27.76-30.88-78.5-62.03-129.27-62.03h0Z"/><path class="e" d="M1124.81,311.31c3.45-13.88,3.76-34.34-11.41-41.46-11.35-5.33-25.34,.58-30.29,11.95l-18,56.64c7.88-2.47,15.76-5.24,24-6.21,2.71-.32,5.47-.51,8.19-.22s5.18,1.41,7.83,2.22c1.58,.48,4.04,.46,4.34-1.63,.18-1.21-.47-2.65-.57-3.87s-.06-2.54,.15-3.69c.54-2.98,2.09-5.55,4.25-7.65,1.48-1.43,11.34-5.44,11.5-6.07Z"/><path class="j" d="M1140.36,322.3c-7.26-14.36-30.1-9.01-31.2,6.7s21.47,28.09,29.61,11.12"/><path class="e" d="M1186.66,273.97s14.92,5.28,16.55,18.85"/><path class="e" d="M1090.7,261.11s12.69-8.93,24.83-6.21"/><path class="e" d="M1209.42,330.92s-1.46,14.61-3.91,17.21"/><path class="e" d="M1218.42,334.96s-1.51,8.56-2.67,10.39"/><path d="M1114.44,271.35c2.35,2.41,3.81,5.6,1.09,8.25-2.87,2.8-6.19,5.47-8.68,8.58,.65-.76,5.27,2.6,5.8,3.02,6.04,4.69-.63,18.51-2.27,24.63s-3.29,12.17-4.97,18.25c0,0-15.96-4.37-40.29,3.48l18-56.64s4.35-8.6,13.38-12.84c5.95-2.8,13.38-1.42,17.95,3.27Z"/><path class="e" d="M1145.2,345.93c-.37-.35-.33-1.05,.27-2.5,3.65-8.77,6.74-17.74,9.96-26.68l4.52-12.52,.22-.62s6.29-17.17,21.48-15.62c20.18,2.06,18.95,31.31,16.32,45.11-2.34,12.26-6.64,23.15-11.31,34.66-2.92-2.66-6.04-5.11-9.2-7.47-6.15-4.58-12.73-8.87-19.88-11.71-1.97-.78-4-1.45-6.08-1.89-1.04-.22-2.1-.32-3.16-.38-1.5-.08-2.66,.07-3.14-.38Z"/><path d="M1192.84,295.29s2.61,6.3-2.45,9.15-8.21,5.3-8.21,5.3c0,0-1.09,1.32,4.12,3.87,6.35,3.09,3.37,14.88,2.1,20.11-2.2,9.04-6.32,28.95-6.32,28.95-8.21-6.05-17.14-12.03-26.66-15.76-2.68-1.05-5.4-1.89-8.3-1.72-2.25,.13-2.76-1.14-2.24-3.1,.67-2.5,1.53-4.84,2.46-7.26,2.52-6.53,5.24-12.97,8.01-19.4,2.09-4.86,4.21-9.7,6.36-14.54,.67-1.5,1.47-5.04,2.75-6.15,.03-.03,17.29-14.97,28.38,.55Z"/><path class="e" d="M1094.83,402.19s8.45,10.47,22.64,7.67"/><path class="e" d="M1186.66,367.76l7.71,7.96s3.77,4.46,9.56,6.81,10.54,3.04,13.92,8.46-10.39,5.99-10.39,5.99c0,0-14.79,1.06-20.46-2.86-2.96,.95-6.15,1.61-9.26,1.75-3.64,.16-6.67-1.36-9.6-3.37-1.26-.86-3.03-2.88-4.53-3.17-1.7-.32-2.93,.98-4.38,1.57-10.39,4.23-16.94-5.57-22.43-12.57-3.58-4.57-7.39-12.34-12.86-14.69-5.47-2.34-12.51,2.01-17.19,4.54-5.86,3.17-10.87,7.86-17.91,8s-15.81-1.47-16.47-10c0,0-21.77,5.94-22.92-13.4,0,0-20.64-.59-18.88-12.63,0,0,.18-3.41,8.06-.63,4.85,1.71,10.08,1.83,15.15,1.31,3.86-.4,9.9-.58,12.07-4.48"/><path class="e" d="M1145.69,346.24s-6.12-.52-6.3-.67"/><path class="e" d="M1049.46,352.78s6.04,.49,10.2-1.22"/><path class="e" d="M1072.38,366.19s5.8-1.35,8.38-3.52"/><path class="e" d="M1164.18,389.33s-4.04-3.25-7.86-9.39"/><path class="e" d="M1187,394.12s-10.41-7.14-13.14-14.18"/><circle cx="1080.23" cy="207.52" r="1.77"/><circle cx="1158.39" cy="218.85" r="1.77"/><circle cx="1200.84" cy="242.1" r="1.77"/><circle cx="1172.46" cy="222.59" r="1.77"/><circle cx="1179.56" cy="220.82" r="1.77"/><circle cx="1185.76" cy="230.57" r="1.77"/><circle cx="1195.52" cy="230.57" r="1.77"/><circle cx="1205.27" cy="229.69" r="1.77"/><circle cx="1170.69" cy="211.95" r="1.77"/><circle cx="1153.84" cy="211.06" r="1.77"/><circle cx="1139.65" cy="210.18" r="1.77"/><circle cx="1140.54" cy="204.85" r="1.77"/><circle cx="1129.01" cy="206.63" r="1.77"/><circle cx="1125.46" cy="200.42" r="1.77"/><circle cx="1113.04" cy="206.63" r="1.77"/><circle cx="1107.72" cy="201.31" r="1.77"/><circle cx="1097.08" cy="205.74" r="1.77"/><circle cx="1216.8" cy="241.21" r="1.77"/><circle cx="1212.37" cy="250.08" r="1.77"/><circle cx="1228.33" cy="251.86" r="1.77"/><path d="M1092.28,377.67c-.87,9.47,2.27,20.19,12.02,23.14,8.73,2.64,19.22,3.02,26.57-3.36,3.88-3.36,6.82-8.64,9.5-13.14l-14.95-19.85c-1.63-2.17-5.4-1.87-7.65-1.11-3.79,1.29-7.79,3.21-11.31,5.15-3.48,1.92-6.52,4.56-10.21,6.12-1.42,.6-3.78,.96-3.97,3.04Z"/><circle cx="1240.75" cy="258.06" r="1.77"/><circle cx="1245.18" cy="268.71" r="1.77"/><circle cx="1249.62" cy="283.78" r="1.77"/><path class="f" d="M1103.1,398.32c-2.54-3.44,5.98-7.69,8.32-8.98,5.98-3.29,12-5.3,18.88-5.6,4.47-.19,8.86,1.58,8.86,1.58,.58,.31-5.47,8.44-6.1,9.11-3.53,3.75-8.6,5.67-13.6,6.47s-11.04,1.19-15.26-1.59c-.49-.32-.85-.65-1.1-1Z"/><path class="g" d="M1061.35,201.1c-.26,.03-.52,.05-.78,.05-4.8,.11-9.01-2.79-13.7-.28-4.2,2.25-6.82,6.53-10.96,8.87-3.02,1.71-6.77,1.82-9.47,4.16-2.21,1.91-4.89,3.83-6.57,6.39-1.81,2.76-2.23,6.18-4.01,8.98-.9,1.41-5.08,4.68-3.76,6.53,.91,1.27,6.62,.76,8.13,.65,2.49-.18,5.24-.68,7.59-1.55,2.2-.81,3.96-2.56,6.26-3.14,2.62-.67,5.49-.13,8.18-.63,8.54-1.57,14.12-6.64,20.46-12.08,4.38-3.76,8.53-7.78,12.58-11.9,2.96-3.02,2.67-5.64-1.52-7.41s-8.39,.87-12.42,1.33Z"/><path class="g" d="M1259.86,277.31c1.68-.2,3.4,.28,4.98,.92,5.78,2.34,10.6,6.83,13.67,12.26,1.66,2.94,2.82,6.16,3.51,9.47,.61,2.93,0,6.88,1.68,9.14,3.53,4.71,6.04,8.91,7.34,14.8,1.33,6.03,1.07,12.43-.99,18.27-.59,1.66-1.31,3.29-1.65,5.02-.38,1.92-.27,3.89-.48,5.83-.42,3.88-2.16,7.61-4.86,10.44-6.56-6.65-13.04-13.76-16.38-22.48-1-2.6-1.7-5.41-1.26-8.17,.1-.62,.26-1.26,.08-1.86-.15-.51-.51-.92-.86-1.31-3.25-3.65-6.16-7.61-8.68-11.8-2.08-3.46-3.94-7.3-3.71-11.33,.06-.99,.24-1.98,.15-2.97-.1-1.02-.48-1.99-.8-2.96-1.95-5.97-1.23-12.76,1.92-18.19,1.33-2.29,3.28-4.47,5.88-4.99,.16-.03,.31-.06,.47-.07Z"/><path d="M1071.06,441.06l26.68,9.25s-12.13,19.38-12.14,19.39c-5.97,9.54-8.44,19.44,5.74,21.2,.52,.06,1.04,.1,1.55,.1,1.96,0,3.84-.45,5.68-1.17-4.41,8.12-8.92,16.19-13.38,24.28-.14,0-.28,0-.42,0-9.56,0-19.48-6.47-19.48-6.47-25.61-16.69-3.19-47.19,5.78-66.59m0-8h-5.12l-2.15,4.64c-1.33,2.88-3.03,6.11-4.82,9.54-5.21,9.93-11.11,21.18-12.98,32.52-2.42,14.69,2.74,26.64,14.92,34.58h0c.69,.47,1.42,.88,2.14,1.28,1.66,.93,3.39,1.8,5.15,2.57,5.9,2.6,11.47,3.91,16.55,3.91,.19,0,.39,0,.58,0l4.62-.09,2.23-4.04c1.43-2.59,2.86-5.19,4.3-7.78,2.99-5.41,6.09-11.01,9.1-16.54l10.41-19.14-20.32,7.85c-1.09,.42-2.01,.63-2.8,.63-.19,0-.38-.01-.56-.03-2-.25-3.01-.64-3.45-.87,.05-.83,.48-3.31,3.51-8.15l12.14-19.39,5.33-8.51-9.49-3.29-13.34-4.62-9.17-3.18q-5.44-1.89-6.79-1.89h0Z"/><path d="M1124.02,456.16l28.73,2.95-53.08,102.36c21.65,2.33,17.8,37.39,17.8,37.39-8.93,.2-17.86,.36-26.79,.51-21.23,.37-42.46,.67-63.69,.74-2.74,0-5.48,.02-8.22,.02-6.37,0-12.75-.04-19.12-.17-8.72-.19-18.31,.98-17.62-10.68,.02-.3,1.21-19.55,16.57-27.52,15.48-8.03,21.77-7.05,33.8-7.95,.97-.07,2.05-.11,3.21-.11,13.16,0,36.76,4.33,36.76,4.33l51.65-101.87m-4.65-8.52l-2.49,4.9-48.98,96.61c-8.07-1.32-22.61-3.45-32.29-3.45-1.39,0-2.67,.04-3.81,.13-1.8,.14-3.48,.23-5.11,.32-9.22,.51-17.19,.94-31.78,8.51-19.23,9.98-20.81,33.17-20.87,34.15-.33,5.68,1.08,10.24,4.2,13.58,5.11,5.45,12.72,5.5,18.83,5.54,.8,0,1.6,.01,2.4,.03,5.58,.12,11.71,.18,19.29,.18,2.75,0,5.5,0,8.25-.02,22.62-.07,44.94-.41,63.8-.74,7.32-.13,16.99-.3,26.82-.52l7.01-.15,.77-6.97c.27-2.43,2.31-24.15-8.07-37.06-1.84-2.29-3.98-4.18-6.37-5.65l48.87-94.23,5.41-10.44-11.7-1.2-28.73-2.95-5.47-.56h0Z"/><path d="M1190.84,475.3c18.93,0,17.17,32.14,18.13,44.86,.55,7.3,4.95,77.37,.75,77.81,0,0-21.41,2.28-36.35,2.28-7.47,0-13.34-.57-14.11-2.28-6.88-15.2-.67-31.02,13.07-39.11,0,0-5.63-26.02-4.3-45.24l-34.71,.89,12.29-24.81h27.13s6.35-13.97,17.45-14.39c.22,0,.44-.01,.65-.01m0-8h0c-.31,0-.63,0-.95,.02-11.01,.42-18.23,8.82-21.82,14.38h-27.42l-2.2,4.45-12.29,24.81-5.89,11.89,13.26-.34,26.32-.67c.2,12.79,2.31,26.21,3.63,33.42-6.01,4.73-10.52,10.92-12.96,17.86-3.18,9.06-2.66,19.06,1.46,28.17,2.66,5.87,9.57,6.98,21.4,6.98,14.67,0,35.06-2.1,37.2-2.33h0c3.34-.35,6.09-2.62,7.35-6.06,.4-1.08,.69-2.33,.92-3.94,.31-2.21,.51-5.18,.61-9.07,.16-6.19,.04-14.77-.33-25.49-.64-18.35-1.88-37.9-2.17-41.8-.12-1.59-.2-3.57-.28-5.86-.29-7.62-.69-18.06-3.33-26.86-1.67-5.58-4.01-9.87-7.14-13.12-4.06-4.2-9.37-6.42-15.36-6.42h0Z"/><polygon points="1071.06 441.06 1088.4 465.22 1097.74 450.3 1071.06 441.06"/><polygon points="1124.02 456.16 1144.35 475.3 1152.75 459.11 1124.02 456.16"/><polygon points="1166.57 531.46 1177.55 514.11 1167.14 513.62 1166.57 531.46"/><path class="e" d="M1071.48,556.26s6.4,1.52,8.68,7.52"/><path class="e" d="M1171.44,557.98s3.62-2.94,9.64,0"/><polygon points="1133.32 514.51 1153.84 486.97 1147.16 485.98 1133.32 514.51"/><polygon points="990.76 320.1 1001.31 272.51 974.71 304.34 990.76 320.1"/></g><g><path d="M375.81,157.85c1.61,0,3.28,.09,4.98,.28,19.51,2.21,27.95,12.37,27.95,12.37l10.18,7.39s5.22-2.22,12.3-5.25c10.81-4.62,24.18-2.28,35.39-4.53,2.07-.41,4.04-.62,5.88-.62,9.78,0,15.75,5.94,11.58,18.62-.66,2.01-8.36,19.01-11.32,19.01-.06,0-.11,0-.16-.02,52.03,12.36,58.98,32.24,58.98,32.24,0,0,3.8-.69,9.4-.69,12.13,0,32.7,3.22,41.43,23.62,12.76,29.82-18.63,58.89-18.63,58.89,0,0,10.36,20.85-15.86,58.12-35.39,50.3-91.37,69.91-150.35,75.38-3.08,.29-6.12,.42-9.12,.42-48.21,0-84.87-34.75-84.87-34.75,0,0-6.41,3.08-14.74,3.08s-18.7-3.12-26.39-15.62c-15.33-24.93,15.44-48.53,15.44-48.53-7.98-66.27,47.22-111.31,47.22-111.31l-3.6-10.78-9.99,11.44-6.83-6.45c-1.83-7.34,14.13-14.46,14.13-14.46,0,0-1.53-3.34,1.55-24.18s27-34.05,27-34.05c0,0,11.6-9.64,28.47-9.64m0-8h0c-17.4,0-30,8.74-32.94,10.98-4.15,2.43-27.09,16.81-30.44,39.54-1.48,10.03-1.98,16.47-2.01,20.66-6.77,3.92-15.97,11.24-13.52,21.08,.37,1.48,1.16,2.83,2.27,3.88l6.83,6.45c.21,.2,.42,.38,.65,.55-4.55,5.12-9.78,11.63-14.86,19.39-16.92,25.83-24.59,53.93-22.31,81.55-3.15,2.91-7.88,7.77-11.83,13.94-9.33,14.56-10.04,29.13-2.05,42.12,9.88,16.06,23.51,19.43,33.21,19.43,5.22,0,9.78-.97,13.04-1.94,10.97,9.13,44.34,33.61,86.57,33.61,3.29,0,6.61-.15,9.86-.45,33.03-3.06,62.18-10.32,86.62-21.57,28.76-13.24,52.16-32.47,69.53-57.17,11.72-16.67,18.18-32.51,19.2-47.08,.4-5.75-.14-10.26-.84-13.48,3.17-3.49,7.9-9.24,12.01-16.47,9.46-16.64,11.17-33.15,4.93-47.73-4.68-10.94-12.63-18.9-23.62-23.66-9.2-3.98-18.77-4.82-25.17-4.82-1.95,0-3.7,.07-5.2,.18-1.91-2.58-4.83-5.79-9.21-9.25-9.73-7.69-23.28-14.11-40.37-19.15,.06-.11,.11-.22,.17-.32,2.34-4.43,4.74-9.72,5.32-11.49,3.54-10.76,1.03-17.52-1.7-21.3-3.65-5.04-9.85-7.82-17.47-7.82-2.36,0-4.87,.26-7.45,.78-3.82,.77-8.19,.92-12.82,1.08-8,.28-16.27,.57-24.14,3.94-3.19,1.36-5.99,2.56-8.12,3.47l-5.85-4.25c-2.89-3.04-13.01-12.13-32.41-14.33-1.94-.22-3.92-.33-5.88-.33h0Z"/><path class="e" d="M485.14,260.28s-14.43-13.29-30.53-6.29"/><path class="e" d="M375.58,272.85s-22.85,4.94-25.32,20.34"/><path class="e" d="M435.75,350.99s24.19-2.51,16.17-14.37c-8.02-11.86-20.66-1.8-20.66-1.8"/><path class="e" d="M407.91,377.03c41.25,10.06,64.66-15.27,64.66-15.27-7.24-11.49,1.8-22.45,1.8-22.45"/><path class="e" d="M496.82,365.35s-17.12,9.17-24.25-3.59"/><path class="e" d="M385.46,386.91s27.26,1.24,21.74-18.33c0,0-2.05-9.32-10.97-11.3"/><circle cx="491.94" cy="343.17" r="1.8"/><circle cx="391.36" cy="365.62" r="1.8"/><circle cx="385.97" cy="377.29" r="1.8"/><circle cx="378.78" cy="368.31" r="1.8"/><circle cx="491.94" cy="353.05" r="1.8"/><circle cx="483.86" cy="345.86" r="1.8"/><path class="k" d="M413.3,341.26s-4.55-55.71-27.84-53.62-21.17,39.5-21.17,39.5l1.41,19.35s40.35-10.29,47.6-5.24Z"/><path d="M372.25,294.92c1.42-1.05,2.95,1.35,3.05,2.32,.12,1.11-.67,2.83-.91,3.92-.83,3.77-3.31,10.19,2.25,11.7,3.63,.98,9.22-1.83,11.55,2.35-.2-.36-6.51,1.88-7.18,2.16-2.42,1.04-4.64,2.57-5.63,5.11-1.17,3-.91,6.36-1.21,9.5-.27,2.8-.43,5.64,0,8.44,.38,2.49,.36,2.74,2.46,2.69,2.82-.06,5.86-.95,8.65-1.4l14.88-2.41h9.53l3.61,1.95-5.99-30.17-7.82-16.96-7.44-6.1-9.55,.1c-3.41,2.25-6.98,4.36-10.25,6.8Z"/><path class="l" d="M490.83,320.72c-.65-4.81-1.36-9.62-2.12-14.42-.52-3.29-1.05-6.59-1.73-9.86-2.41-11.51-11.75-22.22-22.6-26.34-8.27-3.14-16.4,.64-21.22,7.65-6.19,9-4.75,19.68-3.13,29.85,.74,4.63,1.55,9.26,2.66,13.82,.64,2.65,1.27,7.25,3.55,9.11,0,0,41.22-14.74,44.58-9.81Z"/><path d="M445.71,274.65c1.26-.86,4.68,.99,5.68,1.75,1.84,1.39,1.67,2.47,1.5,4.74-.25,3.26-.83,6.55-1.49,9.75,0,0-1.33,6.4,7.71,7.12,0,0,3.77,.48,5.51,1.94s-8.79,.53-9.36,7.74c-.37,4.69,1.21,11.48,3.17,15.74,.84,1.83,1.1,1.62,3.14,1.4,1.6-.17,3.2-.51,4.78-.83,4.28-.85,8.54-1.84,12.77-2.91,3.34-.84,6.83,.16,10.02-.51,3.56-.75-.3-11.07-.67-13.19l-3.09-17.42-10.99-14.6-12.48-6.39-9.92,1.34-6.26,4.33Z"/><path class="l" d="M475.82,204.36s-24.83-5.79-31.07-5.56"/><path class="l" d="M418.92,177s-101.29,49.45-93.84,68.07l43.83-11.81c15.05-4.21,32.46-7.36,45.49-16.36,13.91-9.6,26.81-22.13,37.45-35.22,5.15-6.34,11.09-12.11,18.02-16.49"/><path class="l" d="M408.74,170.5s-58.27,26.67-61.4,33.44"/><path d="M356.33,211.77s-14.77-18.51-37.42-9.34c0,0-6.47,23.86,3.33,40.76,0,0,13.89-17.78,34.09-31.42Z"/><path d="M563.75,319.17l-13.89-51.89,29.24,31.33s-4.86,22.34-9.86,21.1-5.49-.54-5.49-.54Z"/><path d="M487.02,439.88s25.8,50.55,12.89,60.21c0,0-11.27,14.09-29.6,14.57l-12.22-24.28s1.19,.09,2.99,.09c3.85,0,10.47-.41,14.18-2.98,0,0,3.94-5.57-6.98-24.43l-9-14.62,27.73-8.55m0-8c-.78,0-1.58,.12-2.36,.36l-27.73,8.55c-2.36,.73-4.26,2.51-5.13,4.83-.87,2.32-.62,4.9,.67,7.01l8.94,14.53c4.33,7.49,5.81,12.17,6.31,14.75-1.57,.32-3.76,.56-6.64,.56-1.43,0-2.4-.07-2.41-.07-.19-.01-.38-.02-.57-.02-2.66,0-5.17,1.33-6.66,3.56-1.6,2.39-1.79,5.46-.5,8.03l12.22,24.28c1.36,2.71,4.13,4.4,7.15,4.4,.07,0,.14,0,.21,0,19.39-.51,32.04-13.46,34.99-16.81,10.37-8.88,5.2-28.21,.35-42.12-4.96-14.2-11.44-26.95-11.71-27.48-1.4-2.73-4.18-4.36-7.13-4.36h0Z"/><path d="M431.98,455.47s52.25,103.83,52.27,103.87c.01,.02,.07,.03,.17,.03,2.06,0,21.76-3.99,23.67-4.23,6.39-.79,12.86-1.31,19.32-1.31,3.38,0,6.75,.14,10.1,.47,8.67,.85,17.81,2.87,24.91,8.19,7.82,5.86,10.7,15.32,13.08,24.42,.99,3.8,1.95,8,1.25,11.94l-136.51,2.69s-8.32-29.5,16.53-38.19l-52.32-103.26,27.53-4.63m0-8c-.44,0-.89,.04-1.33,.11l-27.53,4.63c-2.51,.42-4.67,2.01-5.81,4.28-1.15,2.27-1.14,4.95,0,7.22l48.68,96.08c-8.28,5.46-13.43,14.07-14.75,24.96-1.18,9.77,1.04,18.06,1.3,18.97,.97,3.45,4.12,5.83,7.7,5.83,.05,0,.11,0,.16,0l136.51-2.69c3.81-.08,7.04-2.83,7.72-6.59,.99-5.52-.19-10.83-1.38-15.37-2.76-10.57-6.28-21.49-16.02-28.8-7.15-5.36-16.62-8.55-28.93-9.75-3.47-.34-7.13-.51-10.88-.51-6.14,0-12.77,.45-20.29,1.37-.88,.11-2.79,.47-8.01,1.47-2.79,.53-6.99,1.34-10.3,1.93-6.05-12.03-22.69-45.09-49.68-98.73-1.37-2.73-4.16-4.4-7.14-4.4h0Zm59.41,108.28h0Z"/><path d="M369.12,477.24c14.16,0,15.94,15.85,15.94,15.85h27.29l12.03,23.65-35.11-1.45c1.96,27.08-4.21,46.5-4.21,46.5,21.09,6.22,14.74,39.76,14.74,39.76h-51.95c-3.54-11.49,1.27-104.14,1.27-104.14,0,0-.42-17.28,16.74-19.91,1.15-.18,2.24-.26,3.26-.26m0-8c-1.44,0-2.95,.12-4.47,.35-18.83,2.88-23.6,19.16-23.53,27.67-.14,2.68-1.24,24.68-1.95,47.66-1.56,50.53,.26,56.45,1.04,58.98,1.03,3.36,4.13,5.65,7.65,5.65h51.95c3.84,0,7.14-2.73,7.86-6.51,.07-.39,1.8-9.69,.63-19.95-1.36-11.88-6.2-20.76-13.86-25.73,1.52-7,3.43-18.92,3.21-33.72l26.41,1.09c.11,0,.22,0,.33,0,2.72,0,5.26-1.38,6.73-3.68,1.54-2.39,1.69-5.42,.4-7.95l-12.03-23.65c-1.36-2.68-4.12-4.37-7.13-4.37h-21.18c-.47-1.22-1.06-2.52-1.79-3.83-4.33-7.75-11.53-12.02-20.26-12.02h0Z"/><polygon points="487.02 439.88 468.29 463.06 459.29 448.44 487.02 439.88"/><polygon points="424.39 516.74 400.27 492.19 414.11 489.78 424.39 516.74"/><polygon points="390.17 515.28 370.47 514.67 390.45 543.59 390.17 515.28"/><polygon points="431.98 455.47 411.62 474.26 404.45 460.1 431.98 455.47"/><path class="l" d="M487.84,557.54s-10.37-.95-14.14,6.17"/><path class="l" d="M385.96,560.89s-3.35-3.32-9.08-1.18"/></g><g><g><path class="d" d="M157.13,274.91c2.31,.57,4.53,2.48,5.92,5.06,3.91,7.26,4.17,15.79,3.81,23.84-1.19,26.15-10.68,19.08-10.72,19.06-9.09-6.79-9.14-19.69-8.62-29.92,.23-4.64,.44-9.84,2.54-14.08,1.78-3.59,4.48-4.61,7.07-3.97Z"/><path class="d" d="M123.94,276.15c6.8-1.07,10.35,7.7,11.06,12.94,1.09,8.1,1.04,16.87-.13,24.95-.47,3.26-1.1,8.47-3.99,10.63-4.18,3.13-8.83-2.01-10.64-5.46-4.47-8.51-3.11-18.16-2.6-27.35,.27-4.92-.36-14.68,6.3-15.73Z"/><path class="h" d="M150.19,319.3s-1.19,7.15-8.34,1.19"/><circle class="m" cx="168.65" cy="323.47" r="1.19"/><circle class="m" cx="164.48" cy="326.45" r="1.19"/><circle class="m" cx="169.25" cy="330.02" r="1.19"/><circle class="m" cx="126.96" cy="329.43" r="1.19"/><circle class="m" cx="122.79" cy="332.4" r="1.19"/><circle class="m" cx="127.56" cy="334.79" r="1.19"/><path class="d" d="M140.66,343.12s5.96-4.08,9.53-1.44c0,0,9.53,3.83,9.53-4.51,0-3.19-1.22-7.48-3.81-9.57-3.09-2.49-6.88-.11-9.47,1.94-1.55,1.23-6.35,5.32-8.51,4.06"/><path class="m" d="M151.91,330.2c.86-.37,1.91-.21,2.94,.81,1.6,1.59,1.86,4.97,1.03,6.97-.14,.34-.32,.68-.62,.89-2.41,1.74-5.02-3.45-5.17-4.99-.16-1.68,.64-3.18,1.81-3.68Z"/><path class="m" d="M154.95,280s7.15,2.38,7.15,8.34c0,5.96-1.62,10.91-1.62,10.91-.23,2.56-.28,5.34,.32,7.85,.4,1.7,1.6,2.73,2.06,4.32,.65,2.21,.32,6.11-1.96,7.29-2.08,1.08-3.7-.72-4.56-2.48-2.58-5.27-3.13-7.59-3.13-7.59,0,0-.64-7.21,.55-11.97,1.19-4.76-.55-9.7-.55-9.7,0,0-3.03-6.97,1.74-6.97Z"/><path class="m" d="M124.01,281.34c.1-.03,.21-.05,.31-.06,.83-.11,2.12,.6,2.79,.99,3.99,2.34,4.24,7.33,3.42,11.42-2.38,11.91,.4,16.5,.4,16.5,0,0,3.17,10.88-2.79,10.89-6.57,0-6.73-9.65-5.9-14.04,.59-3.12,1.15-6.26,1.57-9.41,.2-1.52,1.11-4.91,.16-6.33-1.01-1.5-1.92-3.26-2.4-5.01-.48-1.74,.56-4.44,2.43-4.95Z"/><path class="m" d="M107.49,188.26c5.81,0,58.18,49.99,58.18,49.99,3.92,3.74,6.04,12.34,7.74,17.33,5.17,15.16,7.67,30.93,9.74,46.75,1.46,11.14,3.4,21.81,3.41,33.14,0,12.1-1.03,24.17-1.83,36.24,4.5,0,6.25,4.63,4.14,8.19-.11,.19-2.13,2.61-2.79,2.61-.07,0-.12-.02-.16-.08,2.38,3.57-1.19,7.14-1.19,7.14,1.19,5.96-2.38,19.06-11.91,29.78-6.69,7.53-19.59,11.5-31.8,11.5-8.32,0-16.32-1.85-21.81-5.67-6.78-4.72-11.58-9.05-12.47-17.46-.13-1.22,1.07-10.5,.57-11-.01-.01-2.38-2.38-2.38-2.38-2.38-3.57,0-7.15,0-7.15-4.36-2.91-2.41-8.32,2.38-8.8,5.68-.57,.58-61-.12-66.35-1.6-12.12-6.59-24.36-10.24-35.97-2.84-9.03-5.73-18.05-8.7-27.04-2.38-22.63,19.06-60.75,19.06-60.75,.05-.01,.12-.02,.18-.02m0-8c-.72,0-1.44,.09-2.13,.26l-3.34,.84-1.69,3c-.23,.41-5.66,10.11-10.85,22.78-7.22,17.64-10.32,32.01-9.19,42.73l.09,.85,.27,.81c2.84,8.62,5.68,17.44,8.66,26.94,.94,3,1.98,6.07,2.99,9.04,2.88,8.5,5.86,17.29,6.95,25.58,.27,2.02,1.47,15.25,2.19,29.81,.88,17.78,.45,25.66,.05,28.99-3.29,1.68-5.73,4.63-6.63,8.28-.75,3.04-.31,6.14,1.15,8.82-.39,2.96,.03,6.43,2.26,9.79l.44,.66,.56,.56,.03,.03c-.08,.97-.17,2.01-.24,2.75-.3,3.37-.4,4.59-.27,5.8,1.29,12.09,8.86,18.3,15.86,23.17,6.58,4.58,15.94,7.1,26.38,7.1,12.17,0,28.48-3.73,37.77-14.18,6.35-7.14,9.77-14.42,11.52-19.27,1.78-4.92,2.67-9.61,2.63-13.59,1.05-1.92,1.73-4.13,1.79-6.43,.38-.46,.75-.95,1.01-1.4,2.57-4.34,2.68-9.64,.28-13.85-.77-1.36-1.77-2.53-2.93-3.49,.02-.3,.04-.59,.06-.89,.69-9.87,1.41-20.08,1.4-30.28,0-9.46-1.27-18.45-2.5-27.13-.33-2.3-.66-4.69-.97-7.04-2.38-18.17-5-33.34-10.1-48.29-.27-.8-.57-1.76-.9-2.77-1.86-5.91-4.18-13.27-8.89-17.76l-.02,.02c-3.79-3.77-19.22-18.09-27.05-25.16-8.12-7.34-14.86-13.21-20.03-17.44-10.06-8.23-13.25-9.62-16.61-9.62h0Z"/><path class="d" d="M128.15,203.82s-12.75,17.85-31.09,5.92"/><path class="d" d="M165.67,238.25s-3.57,13.16-21.44-3.51c.68,5.44-.12,20.46-8.94,18.89-1.21-.22-2.24-.99-3.18-1.77-4.1-3.4-7.49-7.02-10.31-11.38,.98,5.95,1.86,15.36-5.19,18.03-8.13,3.07-12.18-10.19-14.18-15.54-1.2,4.11-7.81,11.7-13.04,9.52"/><path class="d" d="M186.52,367.54s-35.86,35.58-80.39,8.6"/><path class="d" d="M191.28,379.45s-33.72,28.43-91.71,5.98"/><path class="d" d="M188.9,388.98s-34.63,28.52-83.38,8.15"/><path class="m" d="M179.37,430.07s25.01,21.44,26.2,32.16c1.19,10.72-14.29,20.25-14.29,20.25l-3.57,3.57s3.57,10.72,0,13.1c-1.79,1.19-2.98,1.49-3.72,1.49s-1.04-.3-1.04-.3v3.57c0,.08,7.96,3.86,8.59,4.33,4.89,3.68,6.37,10.2,4.78,16.09-1.57,5.85-8.68,6.91-14.6,6.91-1.63,0-3.16-.08-4.47-.16-9.3-.59-17.76-4.88-24.08-11.69-15.48-16.67,11.91-35.73,11.91-35.73,0,0,.73-6.57,7.9-6.57,1.99,0,4.48,.51,7.59,1.8,0,0,16.67-9.53,13.1-20.25l-21.83-22.77,7.54-5.82m.27-10.31l-5.15,3.97-7.54,5.82-7.05,5.44,6.17,6.43,20.04,20.89c-.49,2.19-3.52,5.37-6.64,7.73-2.28-.64-4.42-.95-6.47-.95-8.2,0-12.87,4.97-14.83,9.77-5.1,4.05-16.23,14.24-17.59,26.84-.75,6.96,1.58,13.57,6.74,19.13,7.86,8.47,18.32,13.52,29.44,14.23,1.31,.08,3.07,.18,4.98,.18,8.61,0,19.47-2.23,22.32-12.83,2.54-9.47-.48-19.11-7.69-24.55-.15-.11-.29-.22-.46-.33,1.38-2.83,1.74-6.52,1.07-11.02-.1-.68-.22-1.34-.35-1.97,4.44-2.98,18.43-13.52,16.91-27.21-.45-4.03-2.56-10.98-15.72-24.74-6.6-6.91-12.97-12.38-13.23-12.61l-4.94-4.23h0Z"/><path class="m" d="M109.01,431.26s10.98,10.31,17.22,10.31c.21,0,.42-.01,.62-.04,0,0,13.24,21.88,10.86,27.84-2.38,5.96-15.48,14.29-15.48,14.29l-2.38,1.19s5.96,8.34-1.19,10.72c0,0-1.61,.53-3.02,.53-.71,0-1.37-.13-1.76-.53v6.81s15.5,11.05,10.74,21.77c-1.83,4.11-6.47,5.14-10.96,5.14-2.19,0-4.35-.25-6.12-.49-9.2-1.29-16.23-4.02-21.95-11.57-5.8-7.65-7.78-17.2-1.47-25.23l15.48-15.48s.91-6.38,7.52-6.38c.94,0,2.01,.13,3.2,.43,0,0,3.57,1.19,5.96,4.76,0,0,14.29-5.96,11.91-14.29,0,0-19.28-25.01-19.17-29.78m-7.58-18.09l-.42,17.91c-.07,3.07,.71,6.8,10.99,21.46,3.05,4.34,6.07,8.41,7.94,10.9-.53,.6-1.37,1.32-2.36,2.02-2.24-1.57-4.16-2.28-4.74-2.47l-.29-.1-.3-.07c-1.77-.44-3.5-.67-5.14-.67-8.15,0-12.81,5.33-14.64,10.18l-14.03,14.03-.34,.34-.3,.38c-7.9,10.05-7.37,23.47,1.38,35.01,8.1,10.68,18.3,13.4,27.21,14.66,1.75,.25,4.4,.57,7.24,.57,5.18,0,14.44-1.28,18.27-9.89,4.37-9.82-.93-19.47-7.12-26.02,2.27-1.55,3.91-3.69,4.75-6.28,.32-1,.95-3.54,.32-6.95,5.01-3.52,12.84-9.76,15.27-15.82,1.99-4.97,.61-11.53-4.77-22.61-3.14-6.48-6.54-12.1-6.68-12.34l-2.68-4.43-4.76,.58c-2.14-.48-7.73-4.34-11.76-8.12l-13.06-12.26h0Z"/><path class="d" d="M186.52,502.73s-4.17,0-7.74-2.38"/><path class="d" d="M163.89,482.48s-.06,4.24,2.05,6.88"/><path class="d" d="M116.24,497.78s-2.11,2.34-7.74-4.69"/><path class="d" d="M98.4,474.14s-.62,5.96,1.77,7.15"/><path class="d" d="M116.24,501.2s-5.46-2.05-8.98,.33"/></g><g><path d="M46.96,213.52c.32,0,.65,0,.99,.03,6.18,.36,6.6,11.94,6.6,11.94,0,0,.21-.02,.57-.02,2.11,0,9.46,.8,11.11,11.67,1.65,10.9-5.47,15.7-7.56,16.86-.35,.16-.56,.29-.56,.29,0,0,.21-.09,.56-.29,.63-.29,1.71-.7,2.82-.7,1.48,0,3,.73,3.55,3.45,1.19,5.87-13.08,13.26-13.08,13.26l7.43,36.78,40.67,18.16c2.12,7.29-5.18,7.8-5.18,7.8-21.65-2.06-45.56-20.07-45.56-20.07l-8.86-40.67s-3.9-.18-11.2-1.28-6.07-8.75-6.07-8.75c-6.37-2.25-9.4-12.09-9.4-12.09,0,0-7.93-20.11-5.22-25.84,1.12-2.38,2.75-3.07,4.27-3.07,2.14,0,4.08,1.38,4.08,1.38,1.65-3.6,3.52-4.7,5.18-4.7,2.61,0,4.71,2.7,4.71,2.7,0,0-.74-3.68,5.62-5.61,.58-.18,1.12-.25,1.61-.25,4.15,0,5.4,5.53,5.68,5.53,.05,0,.07-.19,.07-.65,0-3.04,1.75-5.86,7.16-5.86m0-8h0c-3.54,0-6.22,.82-8.21,1.89-1.65-.68-3.28-.91-4.71-.91-1.3,0-2.62,.2-3.93,.6-2.42,.73-4.31,1.71-5.79,2.77-.71-.13-1.45-.21-2.22-.21h0c-2.04,0-5.26,.55-8.28,3.36-.32-.02-.64-.04-.97-.04-5.01,0-9.21,2.79-11.5,7.65-2.09,4.42-1.74,10.6,1.14,20.68,1.53,5.35,3.31,10.06,3.77,11.23,.74,2.28,3.45,9.58,9.2,14.14,.38,1.94,1.15,4.11,2.63,6.13,1.62,2.21,4.67,5.02,10,5.82,2.24,.34,4.18,.59,5.82,.79l7.62,34.96,.63,2.9,2.37,1.79c1.05,.79,25.98,19.4,49.61,21.64l.66,.06,.66-.05c1.17-.08,7.16-.75,10.72-5.85,1.65-2.36,3.26-6.39,1.58-12.16l-1.03-3.56-3.39-1.51-36.9-16.48-5.5-27.2c.92-.61,1.88-1.28,2.84-2,7.2-5.44,10.27-11.09,9.12-16.8-.26-1.26-.66-2.43-1.18-3.49,2.24-4.19,3.39-9.46,2.44-15.73-1.49-9.83-6.83-15.09-12.5-17.26-1.67-6.67-5.72-12.68-13.22-13.12-.49-.03-.98-.04-1.45-.04h0Z"/><path class="e" d="M52.09,234.65s-7.47,2.84-11.06,1,1.68-12.39,13.91-10.76"/><line class="e" x1="40.05" y1="223.82" x2="41.3" y2="229.99"/><line class="e" x1="28.49" y1="225.53" x2="31.1" y2="232.05"/><line class="e" x1="18.11" y1="228.26" x2="21.21" y2="235.66"/><path class="e" d="M42.14,240.55s-10.15-.86-7.75,11"/><path class="e" d="M48.84,259.37s-8.22,3.91-11.75,2.37"/><path class="e" d="M52.06,270.5s-5.84,2.53-11.5,2"/><path class="e" d="M40.63,236.25s-3.07,2.32-8.62,.34c0,0-1.75,4.09-8.96,1.81,0,0-2.3,4.94-7.22,4.09"/></g><g><path d="M238.43,199.21c.2,0,.4,0,.61,.03,6.72,.64,6.72,4.45,6.72,4.45,0,0,1.85-3.71,4.89-3.71,1.52,0,3.33,.93,5.36,3.71,0,0,2.13-2.29,4.7-2.29,1.28,0,2.67,.57,3.95,2.29,3.84,5.15,0,26.76,0,26.76,0,0-1.04,10.4-6.92,13.93,0,0,2.76,7.36-4.28,9.92-7.04,2.56-10.88,3.52-10.88,3.52l-.64,42.26s-20.17,22.73-41.3,29.13c0,0-.29,.04-.76,.04-1.86,0-6.47-.61-5.96-6.76l36.82-26.25v-38.1s-15.69-4.48-15.69-10.56c0-3.5,2.12-4.25,3.92-4.25,.73,0,1.4,.12,1.86,.23,.39,.12,.61,.17,.61,.17,0,0-.23-.08-.61-.17-2.31-.73-10.36-4.08-10.91-15.26-.64-13.06,9.28-13.94,9.28-13.94,0,0-1.92-11.61,4.16-13.21,1.28-.34,2.41-.49,3.4-.49,3.68,0,5.38,2.13,5.89,4.65,.09,.45,.15,.64,.2,.64,.31,0,.41-6.75,5.59-6.75m0-8c-1.64,0-4.46,.32-7.13,2.13-1.41-.44-2.93-.67-4.54-.67-1.7,0-3.53,.25-5.43,.75-7.33,1.93-10.12,8.71-10.43,15.65-5.08,3.22-9.47,9.47-8.97,19.62,.32,6.43,2.52,11.43,5.59,15.13-.32,1.16-.48,2.42-.48,3.75,0,5.86,4.17,10.84,12.38,14.78,1.13,.54,2.25,1.02,3.3,1.45v28.31l-33.46,23.86-3.02,2.15-.31,3.7c-.47,5.6,1.6,9.13,3.41,11.1,2.56,2.79,6.3,4.32,10.52,4.32,.86,0,1.49-.07,1.79-.11l.65-.09,.63-.19c23.03-6.98,44.08-30.48,44.96-31.48l1.97-2.22,.04-2.97,.55-36.41c1.6-.52,3.51-1.18,5.71-1.98,5.11-1.86,7.55-5.23,8.71-7.74,1.06-2.31,1.39-4.62,1.37-6.62,1.98-2.34,3.57-5.31,4.74-8.88,1.04-3.19,1.45-5.99,1.57-6.99,.21-1.2,1.04-6.28,1.49-11.96,.84-10.58-.06-16.78-3-20.73-2.65-3.55-6.33-5.51-10.36-5.51-1.26,0-2.43,.19-3.51,.5-2.45-1.51-4.75-1.92-6.55-1.92-1.63,0-3.15,.34-4.51,.9-1.68-.77-3.77-1.36-6.34-1.61-.46-.04-.92-.07-1.37-.07h0Z"/><path class="e" d="M223.47,222.99s8,1.33,11.2-1.23-4.16-11.99-16.01-7.91"/><line class="e" x1="233.27" y1="209.8" x2="233.27" y2="216.19"/><line class="e" x1="245.12" y1="209.18" x2="243.84" y2="216.19"/><line class="e" x1="256" y1="209.8" x2="254.4" y2="217.78"/><path class="e" d="M234.55,226.86s9.92-2.9,9.92,9.39"/><path class="e" d="M231.67,246.94s8.96,2.24,12.17,0"/><path class="e" d="M230.71,258.66s6.32,1.34,11.85-.32"/><path class="e" d="M235.19,222.28s3.52,1.69,8.64-1.39c0,0,2.56,3.72,9.28,0,0,0,3.29,4.45,8,2.62"/></g></g><g><g><path class="d" d="M1466.58,368.4c-.77-4.17-6.89-7.27-9.54-3.73-3.3,4.42,.82,9.06,5.15,9.79"/><path class="d" d="M1447.04,379.15s14.66,12.7,27.36,3.91"/><path class="d" d="M1485.44,386.16s-16.95,3.17-8.13-11.69"/><circle class="m" cx="1482.7" cy="376.7" r=".98"/><path class="m" d="M1487.1,380.12c0,.54-.44,.98-.98,.98s-.98-.44-.98-.98c0-.54,.44-.98,.98-.98s.98,.44,.98,.98Z"/><circle class="m" cx="1480.26" cy="381.1" r=".98"/><path class="d" d="M1447.14,313.95c-2.67,.52-5.32,2.05-7.5,4.17-5.6,5.47-7.9,13.32-8.25,20.96-.26,5.8,.2,12.08,2.61,17.54,1.52,3.47,4.5,8.55,8.59,8.99,7.75,.83,13.55-6.39,15.94-12.83,.48-1.28,.87-2.6,1.2-3.93,2.27-9.07,2.74-22.52-2.9-30.77-2.57-3.77-6.16-4.83-9.7-4.13Z"/><path class="d" d="M1485.15,316.37s-15.64,1.21-15.64,25.64,9.77,25.94,9.77,25.94c0,0,11.73,3.38,16.61-12.26,4.89-15.64,.98-28.34,.98-28.34,0,0-3.91-12.19-11.73-10.98Z"/><path class="m" d="M1435.67,274.15c1.45,0,2.91,.12,4.36,.36,15.74,2.63,25.68,20.25,29.49,34.43-1.45-5.4,8.24-15.46,11.81-18.35,5.85-4.73,13.79-8.57,21.57-8.57,1.37,0,2.73,.12,4.07,.37,15.34,2.89,31.22,16.33,34.79,31.93,6.17,26.95-13.26,54.52-29.97,73.28-13.9,15.6-33.64,25.91-51.07,36.94-13.62-11.89-29.67-22.98-40.62-37.48-9.76-12.92-16.17-28.23-21.92-43.09-.63-1.62-1.09-3.32-1.52-5.01-2.96-11.51-3.23-24.17,.98-35.41,5.44-14.52,21.58-29.4,38.03-29.4m0-8c-20.38,0-39.15,17.59-45.53,34.59-5.67,15.14-3.81,30.22-1.24,40.21,.45,1.76,1,3.81,1.81,5.9,5.59,14.46,12.45,31.06,23,45.03,8.58,11.36,19.76,20.5,30.56,29.34,3.91,3.2,7.61,6.23,11.18,9.34l4.49,3.92,5.04-3.19c3.3-2.09,6.63-4.11,10.15-6.26,15.04-9.16,30.59-18.63,42.61-32.12,11.14-12.5,19.25-24.07,24.78-35.37,7.84-15.99,10.2-31.14,7.02-45.02-4.13-18.04-21.81-34.38-41.11-38.01-1.8-.34-3.66-.51-5.55-.51-8.78,0-18.47,3.77-26.6,10.35-1.56,1.26-3.7,3.29-5.84,5.66-1.48-2.67-3.1-5.18-4.83-7.47-6.74-8.9-15.14-14.42-24.28-15.94-1.86-.31-3.76-.47-5.67-.47h0Z"/><path class="m" d="M1447.11,313.95c.29,5.55,.54,11.11,.89,16.66,.1,1.61-3.19,3.72-4.3,4.79-.54,.52-2.06,1.53-2.28,2.21-.77,2.41,4.33,3.63,5.18,5.63,1.36,3.22,.81,7.84,.4,11.15-1.01,8.12-2.53,11.27-2.54,11.28-.2,.41-4.47-1.41-4.77-1.56-5.2-2.61-6.26-7.5-7.39-12.57-1.89-8.48-2.22-16.34,1.35-24.44,2.34-5.32,6.54-12.92,13.46-13.16Z"/><path class="m" d="M1485.15,316.37c-.85,.15-.09,9.53-.07,10.38,.04,2.19,.16,4.47-.17,6.65-.12,.78-.23,1.35-.68,1.98-.34,.48-5.05,4.12-4.92,4.32l3.18,4.75c.48,.71,.95,1.42,1.27,2.22,.43,1.08,.53,2.26,.59,3.42,.14,2.77,.05,5.54-.27,8.29-.42,3.66-1.54,7.71-4.76,9.5-4.04-2.21-6.72-6.39-8.05-10.8s-1.44-9.08-1.41-13.69c.02-3.91,.14-7.86,1.01-11.67,1.61-7.09,6.61-14.26,14.28-15.35Z"/><path class="m" d="M1425.05,404.07l8.79,8.8c-5.86,0-11.73,21.5-11.73,21.5l-6.84,26.39c6.84,8.79-4.89,12.7-4.89,12.7,5.73,9.55-3.67,15.68-11.82,18.28-2.34,.75-4.74,1.09-7.15,1.09-5.89,0-11.79-2.05-16.73-5.22-7.29-4.67-11.42-12.71-15.22-20.23-4.61-9.13-7.49-19.95-4.79-30.08,3.91-14.66,24.42-16.61,24.43-16.62,.53-.05,1.05-.08,1.56-.08,14.43,0,17.56,20.24,20.8,30.53,.87-.6,5.77-1.53,5.99-2.11,.07-.23,5.88-18.63,8.79-28.34,2.93-9.77,8.8-16.61,8.8-16.61m-.45-11.77l-5.62,6.56c-.28,.33-7,8.26-10.38,19.52-1.18,3.93-2.83,9.28-4.38,14.25-.95-2.5-2.07-4.99-3.41-7.3-6.11-10.52-14.32-12.73-20.13-12.73-.76,0-1.54,.04-2.32,.11-9.7,.95-27.2,6.76-31.4,22.52-2.86,10.75-1.01,23.11,5.37,35.75,3.92,7.77,8.8,17.43,18.04,23.36,6.53,4.18,14,6.48,21.05,6.48,3.31,0,6.53-.49,9.58-1.47,5.36-1.71,14.85-5.87,18.09-14.47,.76-2.01,1.33-4.7,.93-7.87,2.01-1.72,3.88-4.05,4.82-7.14,.77-2.54,1.08-6.19-.97-10.41l5.97-23.04c1.68-6.13,4.39-12.87,6.18-15.56h17.13l-13.66-13.66-8.79-8.8-6.11-6.11h0Z"/><path class="d" d="M1373.74,419.21c9.41-.71,14.51,8.09,17.07,15.87,1.31,3.97,2.12,8.07,2.76,12.19,.96,6.15,3.93,11.01,8.81,14.93,2.61,2.1,5.64,4.38,7.15,7.47,2.01,4.12,2.63,8.79,4.27,13.06"/><path class="d" d="M1399.67,459.71s-18.11,25.96-30.81,25.96"/><line class="d" x1="1401.84" y1="442.73" x2="1411.12" y2="453.35"/><path class="m" d="M1483.58,422.1s2.55,8.84,7.44,19.58c1.67,3.67,4.04,6.43,7.97,6.43,.38,0,.77-.03,1.17-.08,5.26-.68,11.53-1.81,16.44-3.76,2.61-1.04,5.18-2.22,7.64-3.57-1.95-4.89,1.95-7.82,1.95-7.82,2.53-1.58,4.24-2.14,5.52-2.14,2.7,0,3.56,2.45,6.2,3.11,.36,.09,.71,.13,1.06,.13,3.52,0,6.75-4.04,6.75-4.04,0-2.27,1.29-2.74,2.38-2.74,.79,0,1.47,.25,1.47,.25,1.77,.65,4.18,7.45,4.94,9,2.94,5.96,5.53,12.23,6.78,18.78,2.5,13.12-4.47,27.14-13.62,36.28-4.89,4.89-23.45,11.73-26.39,11.73s-1.43-4.67-1.89-4.78c-3.16-.76-4.89-5.17-5.92-7.93-1.58-4.11-3.66-10.81-1.37-14.96,2.27-4.11,7.99-4.36,11.14-7.51,3.91-3.91,2.93-11.73,2.93-11.73-2.93-.98-4.62-4.97-4.62-4.97l-10.04,4c-3.78,1.89-9.03,3.36-14.08,3.36s-10.26-1.57-13.25-5.88c-1.99-2.87-3.32-6.24-4.52-9.5-1.74-4.68-3.18-9.51-4.3-14.37l8.2-6.88m4.28-14.03l-9.42,7.9-8.2,6.88-3.76,3.15,1.1,4.78c1.2,5.22,2.75,10.38,4.59,15.35,1.38,3.72,2.94,7.65,5.45,11.27,4.17,6.01,11.21,9.32,19.82,9.32,5.76,0,12.06-1.47,17.34-4.04l3.2-1.28c-.12,.47-.26,.84-.42,1.04-.32,.3-1.68,.91-2.59,1.32-2.9,1.3-7.28,3.27-9.87,7.95-2.95,5.34-2.66,12.43,.89,21.67,.91,2.42,2.47,6.56,5.6,9.57,.29,1.69,.99,3.57,2.53,5.24,1.83,1.97,4.37,3.06,7.16,3.06,3.73,0,11.32-2.91,15.51-4.64,8.02-3.31,13.58-6.49,16.53-9.43,5.57-5.57,10.04-12.24,12.92-19.27,3.35-8.18,4.35-16.53,2.9-24.16-1.58-8.31-5.02-15.86-7.46-20.82-.07-.16-.32-.76-.51-1.2-2.45-5.89-4.51-10.18-8.85-11.77h0c-1.57-.61-3.14-.74-4.23-.74-2.62,0-5,.86-6.87,2.5-1.05,.92-1.88,2.04-2.47,3.31-1.54-1.06-3.88-2.28-7.06-2.28-3,0-6.1,1.06-9.76,3.35l-.29,.18-.27,.2c-2.66,1.99-4.93,5.38-5.53,9.42-.73,.32-1.47,.63-2.22,.93-3.41,1.35-8.24,2.44-14.37,3.24-.2-.25-.55-.77-.98-1.71-4.59-10.1-7.01-18.41-7.03-18.49l-3.41-11.82h0Z"/><path class="d" d="M1537.92,432.89s2.44,2.44,1.47,8.31"/><path class="d" d="M1521.3,467.1s6.66-2.93,10.66,0"/><path class="d" d="M1525.21,457.33s4.89,0,6.84-3.91"/><path class="d" d="M1545.13,429.96c3.32,5.81,6.06,12.07,7.82,18.47,3.12,11.41,.33,26.18-7.61,35.42-7.14,8.31-18.03,12.6-28.43,15.98"/></g><g><path d="M1326.07,312.75c4.32,0,12.69,7.64,12.69,7.64,1.21-4.28,4.88-6.03,8.02-6.03,2.63,0,4.89,1.23,4.98,3.23,.2,4.37-6.7,8.61-6.7,8.61,3.58,1.58,2.86,9.45,2.86,9.45,5.51,4.89-1.63,11.36-.95,12.79,.69,1.44,21.86,20.94,21.86,20.94,0,0,18.26,.1,26.75,.4,8.49,.3,6.17,4.81,6.17,4.81-1.84,1.97-6.22,2.24-8.67,2.63-4.62,.74-9.33,1.11-14.01,1.15-.3,0-.59,0-.89,0-4.48,0-9.38-.28-13.49-2.02-5.56-2.35-9.62-7.1-13.57-11.48-3.47-3.84-6.88-7.75-10.23-11.7-2.05,1.23-4.42,1.54-6.31,1.54-1.98,0-3.44-.35-3.44-.35-1.37-.88-2.08-1.85-2.99-3.03-1.65-2.12-4.33-2.43-6.27-4.23-.62-.57-1.27-2.21-1.87-2.58-.02-.01-8.47-5.16-9.67-8.85-1.2-3.69,3.52-6.2,3.52-6.2-.44-4.16,3.59-5.62,3.59-5.62v-1.74c-.24-3.4,1.53-3.44,3.87-4.52,1.29-.6,.69-.44,1.3-1.96,.35-.86,1.17-1.66,1.76-2.27,.43-.45,1.01-.64,1.7-.64m0-8h0c-2.89,0-5.54,1.1-7.46,3.09l-.14,.14c-.68,.71-1.73,1.78-2.58,3.26-2.25,1.08-5.69,3.4-6.35,8.5-1.42,1.47-2.57,3.3-3.19,5.44-3.24,3.18-5.27,7.85-3.61,12.97,1.65,5.1,7.56,9.66,11.73,12.35,.46,.75,1.08,1.65,1.99,2.49,1.69,1.57,3.44,2.44,4.71,3.08,.29,.15,.66,.33,.89,.46,1,1.29,2.38,3.02,4.75,4.56l1.15,.75,1.34,.32c.4,.09,2.51,.56,5.29,.56,1.28,0,2.52-.1,3.7-.28,2.32,2.68,4.62,5.29,6.89,7.8l.69,.77c4.14,4.6,8.83,9.81,15.71,12.72,5.52,2.33,11.49,2.65,16.6,2.65,.32,0,.64,0,.95,0,5.14-.04,10.26-.46,15.21-1.25,.33-.05,.7-.1,1.09-.15,3.45-.47,8.67-1.17,12.17-4.92l.76-.82,.51-1c1.3-2.54,1.91-6.58-.28-10.3-2.27-3.86-6.55-5.93-12.73-6.15-6.47-.23-18.26-.34-23.88-.38-5.89-5.44-11.92-11.11-15.51-14.6,.57-1.29,1.08-2.77,1.35-4.42,.56-3.45-.1-6.73-1.87-9.54-.03-.71-.09-1.5-.19-2.31-.11-.9-.27-1.73-.45-2.51,2.48-2.74,4.64-6.41,4.44-10.8-.29-6.29-5.75-10.85-12.98-10.85-3.43,0-6.63,1.02-9.27,2.83-3.58-2.42-7.71-4.45-11.43-4.45h0Z"/><path class="e" d="M1340.18,323.58s-.53,3.84-3.9,5.01-13.3-6.7-14.23-11.27"/><path class="e" d="M1317.45,323.87s6.35,9.55,13.69,9.65c0,0,4.2,.25,5.14-4.92"/><path class="e" d="M1313.86,329.49s4.23,8.61,12.19,9.5c0,0,4.6-.09,5.09-5.47"/><path class="e" d="M1319.43,345.28s4.05,1.04,5.63-.89,1.46-5.04,1.46-5.04"/><path class="e" d="M1348.24,335.89s-1.82,4.86-4.37,5.62"/><path class="e" d="M1332.6,336.03s-1.32,3.36,1.52,5.71"/><path class="e" d="M1326.56,350.14s4.39,.54,5.94-1.1"/><path class="e" d="M1347.29,348.68s-1.5,2.67-6.08,4.74"/></g><g><path d="M1540.59,362.75c.38,0,.78,.02,1.22,.07,8.36,.86,36.6,14.12,36.6,14.12,0,0,13.83,14.98,14.41,19.02,0,0,1.89-.84,4.08-.84,2.94,0,6.42,1.51,6.59,8.62,0,0,16.42,10.37,12.68,23.34,0,0-1.73,4.61-4.9,4.61,0,0-1.15,4.9-7.2,5.76,0,0-4.57,2.47-7.2,2.47-.61,0-1.12-.13-1.44-.46,0,0-2.38,.79-5.04,.79s-5.62-.79-6.77-3.96c0,0-6.78-2.31-7.42-4.9-.64-2.59,4.83-17.87,4.83-17.87,0,0-4.32-5.9,1.44-12.03,0,0-5.47-14.77-8.64-15.63-3.17-.86-36.88-16.14-36.88-16.14,0,0-3.1-6.98,3.67-6.98m0-8h0c-6.22,0-9.27,3.27-10.53,5.21-3.53,5.42-1,11.8-.45,13.02l1.24,2.78,2.77,1.26c11.24,5.09,29.53,13.31,36.07,15.86,.93,1.43,2.37,4.38,3.72,7.57-2.62,4.94-2.27,9.84-1.04,13.5-5.1,14.81-4.4,17.64-3.97,19.38,1.14,4.58,5.45,7.55,9.7,9.42,2.7,3.51,7.05,5.52,12.26,5.52,1.76,0,3.4-.22,4.7-.47,.55,.09,1.15,.14,1.78,.14,3.51,0,7.49-1.67,9.83-2.83,5.07-1.13,8.35-4.05,10.29-6.95,3.29-1.9,5.55-5.25,6.68-8.26l.11-.29,.09-.3c3.72-12.88-5.18-24.01-12.81-30-.66-3.33-2.04-6.07-4.13-8.17-2.55-2.56-5.91-3.95-9.75-4.01-2.34-3.48-6.26-8.45-12.86-15.61l-1.06-1.15-1.42-.67c-4.92-2.31-29.93-13.88-39.17-14.83-.7-.07-1.39-.11-2.05-.11h0Z"/><path class="e" d="M1581.69,400.36s4.3,8.12,9.55,4.99,1.6-11.93,1.6-11.93"/><path class="e" d="M1581.01,413.53s3.47,1.45,5.45,0"/><path class="e" d="M1603.48,403.74s-.42,2.81-2,4.13"/><circle cx="1594.82" cy="432.73" r=".86"/><circle cx="1604.17" cy="429.26" r=".69"/><circle cx="1611.41" cy="424.38" r=".82"/></g></g><ellipse cx="792.93" cy="537.75" rx="112.5" ry="28.5"/><ellipse cx="529.43" cy="611.75" rx="85" ry="4.5"/><ellipse cx="1021.43" cy="611.75" rx="85" ry="4.5"/><ellipse cx="164.43" cy="546.25" rx="22" ry="4"/><ellipse cx="102.43" cy="543.75" rx="18" ry="3.5"/><ellipse cx="1366.43" cy="514.25" rx="40" ry="7"/><ellipse cx="1566.43" cy="509.25" rx="15" ry="2"/><g><path d="M826.53,8c4.47,0,8.1,3.63,8.1,8.1v56c0,4.47-3.63,8.1-8.1,8.1s-8.1-3.63-8.1-8.1V16.1c0-4.47,3.63-8.1,8.1-8.1m0-8c-8.88,0-16.1,7.22-16.1,16.1v56c0,8.88,7.22,16.1,16.1,16.1s16.1-7.22,16.1-16.1V16.1c0-8.88-7.22-16.1-16.1-16.1h0Z"/><path d="M934.31,46.38c2.07,0,4.14,.79,5.73,2.37,3.16,3.16,3.16,8.29,0,11.45l-39.6,39.6c-1.58,1.58-3.65,2.37-5.73,2.37s-4.14-.79-5.73-2.37c-3.16-3.16-3.16-8.29,0-11.45l39.6-39.6c1.58-1.58,3.65-2.37,5.73-2.37m0-8c-4.3,0-8.34,1.67-11.38,4.72l-39.6,39.6c-3.04,3.04-4.72,7.08-4.72,11.38s1.67,8.34,4.72,11.38c3.04,3.04,7.08,4.72,11.38,4.72s8.34-1.67,11.38-4.72l39.6-39.6c3.04-3.04,4.72-7.08,4.72-11.38s-1.67-8.34-4.71-11.38-7.08-4.72-11.38-4.72h0Z"/><path d="M972.99,150.75c4.47,0,8.1,3.63,8.1,8.1s-3.63,8.1-8.1,8.1h-56c-4.47,0-8.1-3.63-8.1-8.1s3.63-8.1,8.1-8.1h56m0-8h-56c-8.88,0-16.1,7.22-16.1,16.1s7.22,16.1,16.1,16.1h56c8.88,0,16.1-7.22,16.1-16.1s-7.22-16.1-16.1-16.1h0Z"/><path d="M712.91,46.38c2.07,0,4.14,.79,5.73,2.37l39.6,39.6c3.16,3.16,3.16,8.29,0,11.45-1.58,1.58-3.65,2.37-5.73,2.37s-4.14-.79-5.73-2.37l-39.6-39.6c-3.16-3.16-3.16-8.29,0-11.45h0c1.58-1.58,3.65-2.37,5.73-2.37m0-8c-4.3,0-8.34,1.67-11.38,4.72-3.04,3.04-4.71,7.08-4.71,11.38s1.67,8.34,4.72,11.38l39.6,39.6c3.04,3.04,7.08,4.72,11.38,4.72s8.34-1.67,11.38-4.72c3.04-3.04,4.71-7.08,4.71-11.38s-1.67-8.34-4.71-11.38l-39.6-39.6c-3.04-3.04-7.08-4.72-11.38-4.72h0Z"/><path d="M818.98,107.58c27.22,0,53.6,18.72,53.12,48l36.78,59.27,36.1,55.95s13.05,15.8,4.96,41.62-47.4,69.75-47.4,69.75c0,0-27.36,29.67-38.15,33.53-10.79,3.85-100.58,5.79-104.81,9.83,0,0-40.85-8.04-11.95-61.34h-8.09s-1.93,11.05-26.59,18.37c-3.08,.91-6.42,1.31-9.92,1.31-24.56,0-56.74-19.68-56.74-19.68,0,0-25.05-36.73-33.91-70.64-8.86-33.91-7.71-40.85-7.71-40.85,0,0,5.78-18.11,31.98-19.27,0,0-3.85-33.91,11.95-45.86,15.42-11.66,33.04-19.28,47.85-19.28,.36,0,.73,0,1.09,.01,0,0,9.63-26.97,26.2-34.3,6.2-2.74,13.21-3.81,20.04-3.81,11.42,0,22.34,2.98,28.13,6.12,0,0,10.79-25.82,42-28.52,1.69-.15,3.38-.22,5.07-.22m0-8c-1.92,0-3.85,.08-5.76,.25-25.05,2.17-38.69,17.19-44.76,26.35-7.32-2.49-16.29-3.98-24.67-3.98-8.71,0-16.54,1.51-23.28,4.49-8.44,3.73-16.18,11.53-22.99,23.17-2.34,4-4.15,7.76-5.42,10.61-14.99,1.23-32.34,8.62-48.33,20.72-8.4,6.35-13.46,17.45-15.03,32.98-.46,4.52-.54,8.75-.49,12.16-11.38,2.08-18.69,7.17-23.05,11.48-5.95,5.88-7.95,11.8-8.16,12.45l-.18,.55-.09,.57c-.43,2.59-.53,12.09,7.86,44.19,9.11,34.85,33.99,71.58,35.04,73.13l.97,1.42,1.47,.9c1.39,.85,34.41,20.86,60.92,20.86,4.42,0,8.52-.55,12.2-1.64,6.51-1.93,11.71-4.16,15.86-6.47-2.87,11.45-2.32,21.45,1.65,29.89,7.56,16.07,24.58,19.59,25.3,19.73l4.07,.8,1.9-1.82c6.29-1.44,31.85-2.98,49.06-4.02,32.48-1.96,48.4-3.1,54.02-5.11,3.59-1.28,10.19-4.75,25.98-19.98,8.26-7.97,15.07-15.34,15.36-15.65l.04-.04,.04-.04c1.65-1.85,40.56-45.53,49.07-72.69,8.59-27.4-3.66-45.46-6.05-48.63l-35.88-55.6-35.56-57.3c-.36-13.37-5.53-25.46-15.02-35.12-11.62-11.81-28.41-18.58-46.09-18.58h0Z"/><path class="i" d="M771.43,132.08s-6.48,47.21,0,62.39,20.13,43.84,55.9,38.79c16.93-2.4,35.54-15.81,43.4-31.24,7.28-14.28,1.53-33.98,3.24-49.83"/><path class="i" d="M769.1,181.56s30.97-40.41,72.99-11.31"/><path class="i" d="M792.99,225.74l13.48,29.34c1.84,4.01,3.27,10.11,6.24,13.57,10.11,11.79,30.94,19.07,44.67,27.31"/><path class="i" d="M706.33,205.8s30.04,105.43,38.62,113.79c8.58,8.37,38.15,18.41,38.15,18.41"/><path class="i" d="M658.65,269.65s20.93,51.47,30.14,62.44,53.68,36.26,53.68,36.26"/><line class="i" x1="658.24" y1="354.5" x2="673.6" y2="344.8"/><line class="i" x1="703.28" y1="327.48" x2="729.67" y2="314.55"/><line class="i" x1="758.62" y1="297.93" x2="787.72" y2="277.73"/><path class="i" d="M742.47,368.35s22.29-27.03,47.44-28.72c12.5-.84,25.01-1.59,37.52-2.32,5.73-.33,13.67,1.53,18.57-2.32,3.98-3.14,5.69-10.59,7.32-15.18,5.08-14.27,9.34-31.14,4.85-46.11"/><path class="i" d="M759.58,425.52s-6.39-25.77,4.12-36.27,40.09-8.89,40.09-8.89c0,0,15.04,17.38,5.25,40.21"/></g></g></g></g></svg>