<?xml version="1.0" encoding="UTF-8"?><svg xmlns="http://www.w3.org/2000/svg" viewBox="0 0 121.29 303.97"><defs><style>.d{stroke-width:3px;}.d,.e{fill:none;stroke:#231f20;stroke-linecap:round;stroke-miterlimit:10;}.f{fill:#231f20;}</style></defs><g id="a"/><g id="b"><g id="c"><g><path class="d" d="M48.72,80.75c-1.94,.48-3.8,2.08-4.97,4.25-3.28,6.09-3.51,13.25-3.2,20.02,1,21.96,8.97,16.02,9,16,7.63-5.7,7.67-16.53,7.24-25.12-.2-3.9-.37-8.26-2.13-11.82-1.49-3.01-3.76-3.87-5.93-3.33Z"/><path class="d" d="M76.59,81.79c-5.71-.9-8.69,6.46-9.28,10.87-.92,6.8-.88,14.17,.11,20.95,.4,2.74,.92,7.11,3.35,8.93,3.51,2.63,7.42-1.69,8.93-4.58,3.75-7.15,2.61-15.25,2.19-22.96-.23-4.13,.3-12.32-5.29-13.2Z"/><path class="e" d="M54.55,118.02s1,6,7,1"/><circle class="f" cx="39.05" cy="121.52" r="1"/><circle class="f" cx="42.55" cy="124.02" r="1"/><circle class="f" cx="38.55" cy="127.02" r="1"/><circle class="f" cx="74.05" cy="126.52" r="1"/><circle class="f" cx="77.55" cy="129.02" r="1"/><circle class="f" cx="73.55" cy="131.02" r="1"/><path class="d" d="M62.55,138.02s-5-3.42-8-1.21c0,0-8,3.21-8-3.79,0-2.68,1.02-6.28,3.2-8.04,2.59-2.09,5.78-.09,7.95,1.63,1.3,1.03,5.33,4.47,7.14,3.41"/><path class="f" d="M53.11,127.17c-.72-.31-1.61-.18-2.47,.68-1.35,1.33-1.56,4.17-.87,5.85,.12,.28,.27,.57,.52,.75,2.03,1.46,4.22-2.9,4.34-4.19,.13-1.41-.54-2.67-1.52-3.09Z"/><path class="f" d="M50.55,85.02s-6,2-6,7,1.36,9.16,1.36,9.16c.2,2.15,.23,4.48-.27,6.59-.34,1.42-1.34,2.29-1.73,3.63-.54,1.85-.27,5.13,1.65,6.12,1.75,.91,3.1-.61,3.83-2.08,2.17-4.42,2.63-6.37,2.63-6.37,0,0,.54-6.05-.46-10.05s.46-8.15,.46-8.15c0,0,2.54-5.85-1.46-5.85Z"/><path class="f" d="M76.53,86.15c-.09-.02-.17-.04-.26-.05-.69-.09-1.78,.5-2.35,.83-3.35,1.97-3.56,6.15-2.87,9.59,2,10-.34,13.85-.34,13.85,0,0-2.66,9.14,2.34,9.14,5.52,0,5.65-8.1,4.95-11.79-.5-2.62-.97-5.26-1.31-7.9-.17-1.28-.94-4.12-.14-5.31,.85-1.26,1.61-2.74,2.01-4.21,.4-1.46-.47-3.73-2.04-4.16Z"/><path class="f" d="M90.4,8c.06,0,.11,0,.15,.02,0,0,18,32,16,51-2.49,7.55-4.92,15.12-7.3,22.7-3.06,9.74-7.26,20.03-8.6,30.2-.59,4.49-4.87,55.22-.1,55.71,4.03,.41,5.66,4.95,2,7.39,0,0,2,3,0,6l-2,2c-.42,.42,.58,8.22,.48,9.24-.75,7.06-4.78,10.69-10.47,14.66-4.61,3.21-11.32,4.76-18.31,4.76-10.25,0-21.08-3.33-26.69-9.65-8-9-11-20-10-25,0,0-3-3-1-6-.03,.05-.07,.07-.13,.07-.56,0-2.25-2.03-2.34-2.19-1.77-2.99-.3-6.88,3.48-6.88-.68-10.13-1.54-20.27-1.54-30.43,0-9.51,1.64-18.47,2.86-27.82,1.74-13.28,3.84-26.52,8.18-39.25,1.43-4.19,3.21-11.41,6.5-14.55,0,0,43.97-41.97,48.85-41.97m0-8h0c-3.51,0-6.82,1.88-14.75,8.37-4.36,3.56-10.03,8.5-16.86,14.68-10.98,9.93-21.45,19.89-22.75,21.13h0c-4.19,4-6.19,10.35-7.8,15.45-.26,.83-.51,1.61-.74,2.3-4.32,12.66-6.53,25.46-8.54,40.79-.26,1.98-.54,3.94-.81,5.9-1.04,7.34-2.11,14.93-2.12,22.96,0,8.61,.6,17.21,1.18,25.52v.11c-.87,.81-1.63,1.77-2.25,2.84-2.24,3.93-2.15,8.88,.24,12.92,.19,.32,.43,.66,.69,.99,.12,1.87,.67,3.67,1.5,5.26,.05,7.72,3.89,18.77,12.19,28.11,8.09,9.1,22.18,12.34,32.67,12.34,9.02,0,17.15-2.2,22.88-6.19,6.11-4.25,12.72-9.68,13.86-20.37,.12-1.13,.04-2.2-.23-5.12-.04-.47-.1-1.08-.15-1.71l.16-.16,.44-.66c1.87-2.81,2.43-5.88,2.16-8.69,1.21-2.44,1.56-5.22,.88-7.95-.79-3.16-2.87-5.81-5.65-7.44-1.06-10.05,1.12-41.81,1.99-48.4,.9-6.84,3.38-14.15,5.78-21.23,.85-2.5,1.72-5.08,2.52-7.61,2.51-7.97,4.88-15.36,7.27-22.6l.27-.81,.09-.85c.97-9.21-1.66-21.49-7.8-36.5-4.39-10.71-8.99-18.92-9.18-19.26l-1.69-3-3.34-.84c-.68-.17-1.39-.26-2.1-.26h0Z"/><path class="d" d="M73.05,21.06s10.7,14.99,26.1,4.97"/><path class="d" d="M41.55,49.97s3,11.05,18-2.95c-.57,4.57,.1,17.18,7.5,15.86,1.02-.18,1.88-.83,2.67-1.49,3.44-2.85,6.29-5.89,8.66-9.56-.82,5-1.56,12.9,4.36,15.14,6.82,2.58,10.22-8.56,11.91-13.05,1,3.45,6.56,9.82,10.95,7.99"/><path class="d" d="M24.05,158.52s30.11,29.88,67.5,7.22"/><path class="d" d="M20.05,168.52s28.31,23.87,77,5.02"/><path class="d" d="M22.05,176.52s29.08,23.94,70,6.84"/><path class="f" d="M30.05,211.02l6.33,4.88-18.33,19.12c-3,9,11,17,11,17,2.61-1.09,4.7-1.51,6.37-1.51,6.02,0,6.63,5.51,6.63,5.51,0,0,23,16,10,30-5.31,5.71-12.41,9.32-20.22,9.81-1.1,.07-2.39,.14-3.76,.14-4.97,0-10.94-.89-12.25-5.8-1.33-4.94-.08-10.42,4.02-13.51,.53-.4,7.21-3.57,7.21-3.64v-3s-.25,.25-.88,.25-1.62-.25-3.12-1.25c-3-2,0-11,0-11l-3-3s-13-8-12-17,22-27,22-27m-.27-10.31l-4.94,4.23c-.23,.19-5.62,4.83-11.2,10.67C2.33,227.45,.5,233.57,.1,237.13c-.48,4.31,.51,11,7.92,18.42,2.28,2.28,4.58,4.05,6.1,5.12-.58,3.23-.7,6.83,.47,9.93-6.17,4.94-8.72,13.37-6.5,21.64,1.27,4.72,4.72,8.34,9.73,10.18,2.84,1.04,6.19,1.55,10.26,1.55,1.64,0,3.14-.08,4.26-.15,9.67-.62,18.75-5,25.57-12.35,4.59-4.95,6.67-10.85,6-17.07-1.17-10.83-10.47-19.55-14.99-23.2-1.88-4.32-6.15-8.69-13.5-8.69-1.65,0-3.35,.22-5.13,.67-.76-.6-1.6-1.31-2.38-2.11-1.14-1.17-1.73-2.07-2.02-2.67l16.26-16.96,6.17-6.43-7.05-5.44-6.33-4.88-5.15-3.97h0Z"/><path class="f" d="M89.13,212.02c.09,4-16.09,25-16.09,25-2,7,10,12,10,12,2-3,5-4,5-4,1-.25,1.89-.36,2.68-.36,5.55,0,6.32,5.36,6.32,5.36l13,13c5.3,6.75,3.64,14.76-1.23,21.18-4.81,6.34-10.71,8.63-18.43,9.71-1.49,.21-3.3,.42-5.14,.42-3.77,0-7.66-.86-9.2-4.31-4-9,9.02-18.28,9.02-18.28v-5.72c-.33,.33-.88,.44-1.48,.44-1.19,0-2.54-.44-2.54-.44-6-2-1-9-1-9l-2-1s-11-7-13-12,9.12-23.37,9.12-23.37c.17,.02,.34,.03,.52,.03,5.24,0,14.46-8.66,14.46-8.66m7.58-18.09l-13.05,12.26c-3.06,2.86-7.32,5.86-9.11,6.45l-4.55-.56-2.68,4.43c-.12,.2-3,4.97-5.66,10.46-4.69,9.67-5.86,15.47-4.04,20.02,2.05,5.11,8.1,10.18,12.61,13.4-.25,1.77-.19,3.69,.45,5.64,.64,1.98,1.78,3.69,3.33,5.04-5.03,5.76-8.97,13.87-5.27,22.2,3.51,7.89,11.85,9.06,16.51,9.06,2.47,0,4.75-.28,6.26-.49,7.74-1.09,16.61-3.46,23.69-12.8,7.72-10.18,8.16-22.04,1.15-30.96l-.3-.38-.34-.34-11.54-11.54c-1.9-4.92-6.62-9.16-13.43-9.16-1.48,0-3.04,.2-4.62,.6l-.3,.07-.29,.1c-.46,.15-1.84,.66-3.53,1.73-.11-.09-.22-.18-.32-.26,1.58-2.11,3.79-5.11,6.02-8.28,8.1-11.54,9.54-15.38,9.46-18.78l-.42-17.9h0Z"/><path class="d" d="M24.05,272.02s3.5,0,6.5-2"/><path class="d" d="M43.05,255.02s.05,3.56-1.72,5.78"/><path class="d" d="M83.05,267.86s1.77,1.97,6.5-3.94"/><path class="d" d="M98.04,248.02s.52,5-1.48,6"/><path class="d" d="M83.05,270.74s4.58-1.72,7.54,.28"/></g></g></g></svg>