<?xml version="1.0" encoding="UTF-8"?><svg xmlns="http://www.w3.org/2000/svg" viewBox="0 0 904.96 244.74"><defs><style>.h,.i,.j,.k,.l,.m{stroke:#000;}.h,.i,.j,.l{stroke-miterlimit:10;}.h,.i,.k,.l,.m{fill:none;}.h,.i,.k,.m{stroke-width:3px;}.h,.l,.m{stroke-linecap:round;}.k,.m{stroke-linejoin:round;}.l{stroke-width:4px;}</style></defs><g id="a"/><g id="b"><g id="c"><g><path d="M26,141.4c-7.87-4.2-14.17-10.3-18.9-18.3C2.37,115.1,0,105.76,0,95.1s2.37-19.9,7.1-27.7c4.73-7.8,11.03-13.7,18.9-17.7,7.87-4,16.2-6,25-6s17.33,2.03,25.2,6.1c7.87,4.07,14.23,10,19.1,17.8,4.87,7.8,7.3,16.97,7.3,27.5s-2.43,20-7.3,28c-4.87,8-11.23,14.1-19.1,18.3-7.87,4.2-16.27,6.3-25.2,6.3s-17.13-2.1-25-6.3Zm36.7-6.9c3-4.53,5.13-10.2,6.4-17,1.27-6.8,1.9-14.27,1.9-22.4s-.63-15.47-1.9-22c-1.27-6.53-3.4-12-6.4-16.4s-6.9-6.6-11.7-6.6-8.63,2.2-11.5,6.6c-2.87,4.4-4.9,9.83-6.1,16.3-1.2,6.47-1.8,13.83-1.8,22.1,0,13.33,1.47,24.37,4.4,33.1,2.93,8.73,7.93,13.1,15,13.1,4.8,0,8.7-2.27,11.7-6.8Z"/><path d="M102.04,142.41c2-1,3.67-2.7,5-5.1,1.33-2.4,2-5.73,2-10V25.11c0-4-.63-7.1-1.9-9.3-1.27-2.2-2.87-3.67-4.8-4.4-1.25-.47-2.55-.79-3.87-1-.66-.11-1.32-.19-1.99-.25-.6-.06-1.55,.1-1.99-.43-.34-.41-.33-1.24-.14-1.71,.22-.52,.69-.89,1.24-.99L136.11,.04c1.01-.17,1.93,.6,1.93,1.62V127.31c0,4.27,.67,7.6,2,10,1.33,2.4,3.03,4.1,5.1,5.1,1.74,.84,3.73,1.52,5.99,2.03,.76,.17,1.31,.83,1.31,1.62,0,.91-.74,1.65-1.65,1.65h-54.5c-.91,0-1.65-.74-1.65-1.65,0-.77,.53-1.44,1.28-1.6,2.38-.51,4.42-1.2,6.12-2.05Z"/><path d="M210.04,50.01c6.01,3.07,11.73,7.7,17.15,13.88,.59,.67,.52,1.7-.13,2.3l-13.38,12.29c-1.03,.95-2.68,.26-2.76-1.14-.41-7.48-1.77-13.36-4.08-17.64-2.67-4.93-6.73-7.4-12.2-7.4-5.73,0-10.27,3-13.6,9-3.33,6-5,15.2-5,27.6,0,14.67,1.6,26.13,4.8,34.4,3.2,8.27,8.33,12.4,15.4,12.4,3.6,0,6.87-1.03,9.8-3.1,2.57-1.81,4.84-4.21,6.79-7.21,.47-.72,1.43-.94,2.18-.51l.12,.07c.74,.42,1.05,1.34,.68,2.11-2.93,6.18-7.15,11.3-12.68,15.33-5.93,4.33-12.77,6.5-20.5,6.5-6.93,0-13.23-1.87-18.9-5.6-5.67-3.73-10.2-9.4-13.6-17-3.4-7.6-5.1-16.93-5.1-28s2-21,6-29,9.4-14.03,16.2-18.1c6.8-4.07,14.33-6.1,22.6-6.1,7.07,0,13.8,1.63,20.2,4.9Zm5,93.1c-1.33-1.87-2.33-3.93-3-6.2-.67-2.27-1-4.47-1-6.6V25.11c0-4.13-.63-7.3-1.9-9.5-1.27-2.2-2.87-3.63-4.8-4.3-1.19-.41-2.43-.67-3.67-.86-.73-.11-1.46-.19-2.2-.25-.65-.05-1.52,.09-2.02-.44-.41-.44-.52-1.18-.35-1.75,.18-.6,.69-1.06,1.31-1.17L238.52,.03c1-.17,1.92,.61,1.92,1.63V127.31c0,4.27,.67,7.6,2,10,1.33,2.4,3,4.1,5,5.1,1.7,.85,3.74,1.53,6.12,2.05,.75,.16,1.28,.84,1.28,1.6,0,.91-.74,1.65-1.65,1.65h-33.66c-.44,0-.88-.18-1.19-.5-1.37-1.42-2.47-2.78-3.31-4.1Z"/><path d="M271.84,145.71c-6.01-1.25-12.54-3.21-19.6-5.87-.83-.31-1.39-1.13-1.38-2.02l.35-25.62c.02-1.16,.96-2.09,2.12-2.09h0c.8,0,1.54,.46,1.9,1.18,3.67,7.3,7.31,13.04,10.91,17.22,3.8,4.4,7.57,7.57,11.3,9.5,3.73,1.93,7.67,2.9,11.8,2.9,4.8,0,8.5-1.13,11.1-3.4,2.6-2.27,3.9-5.4,3.9-9.4,0-4.27-1.53-7.67-4.6-10.2-3.07-2.53-7.87-5.2-14.4-8-2.13-.8-3.8-1.47-5-2-1.19-.53-2.77-1.19-4.74-1.98-.04-.02-.08-.03-.11-.05l-3.34-1.57c-5.47-2.67-9.83-5.4-13.1-8.2-3.27-2.8-5.77-5.93-7.5-9.4-1.73-3.47-2.6-7.33-2.6-11.6,0-6.13,1.57-11.57,4.7-16.3,3.13-4.73,7.63-8.43,13.5-11.1,5.87-2.67,12.93-4,21.2-4,4.8,0,10.03,.57,15.7,1.7,5.25,1.05,10.7,2.7,16.35,4.95,.81,.32,1.34,1.12,1.33,1.99l-.17,23.65c0,1.16-.95,2.1-2.12,2.1h-.09c-.85,0-1.62-.52-1.95-1.31-4.12-9.7-8.57-16.46-13.36-20.29s-10.3-6-15.9-6c-5.2,0-9.3,1.17-12.3,3.5-3,2.33-4.5,5.37-4.5,9.1,0,2.53,.8,4.7,2.4,6.5,1.6,1.8,3.73,3.4,6.4,4.8,2.67,1.4,6.67,3.23,12,5.5,2,.8,4,1.67,6,2.6,1.97,.92,4.07,1.97,6.3,3.15,.06,.03,.13,.06,.19,.09l.9,.36c4.27,1.87,7.97,3.97,11.1,6.3,3.13,2.33,5.7,5.37,7.7,9.1,2,3.73,3,8.27,3,13.6,0,10.13-3.53,18.1-10.6,23.9-7.07,5.8-16.33,8.7-27.8,8.7-4.93,0-10.6-.67-17-2Z"/><path d="M356.64,141.81c-7.33-3.93-13.27-9.83-17.8-17.7-4.53-7.87-6.8-17.4-6.8-28.6,0-10.4,2.2-19.53,6.6-27.4,4.4-7.87,10.43-13.9,18.1-18.1,7.67-4.2,16.43-6.3,26.3-6.3,5.87,0,11.83,.77,17.9,2.3,5.73,1.45,11.01,3.35,15.85,5.69,.52,.25,.85,.78,.85,1.36l.18,26.33c0,.84-.67,1.52-1.51,1.52h-.85c-.62,0-1.17-.39-1.4-.96-4.02-10.03-8.26-17.25-12.72-21.64-4.6-4.53-9.63-6.8-15.1-6.8-7.87,0-13.77,3.63-17.7,10.9-3.93,7.27-5.9,16.5-5.9,27.7,.13,8.13,1.4,15.43,3.8,21.9,2.4,6.47,5.8,11.5,10.2,15.1,4.4,3.6,9.67,5.4,15.8,5.4,5.6,0,10.7-1.47,15.3-4.4,4.33-2.76,8.1-6.24,11.31-10.42,.36-.47,.96-.7,1.54-.56h0c.9,.21,1.4,1.16,1.07,2.03-1.64,4.36-4.15,8.61-7.52,12.75-3.8,4.67-8.63,8.47-14.5,11.4-5.87,2.93-12.47,4.4-19.8,4.4-8.13,0-15.87-1.97-23.2-5.9Z"/><path d="M420.33,142.41c2-1,3.67-2.7,5-5.1,1.33-2.4,2-5.73,2-10V25.11c0-4-.63-7.1-1.9-9.3-1.27-2.2-2.83-3.67-4.7-4.4-1.34-.53-2.78-.82-4.21-.97-.49-.05-.98-.09-1.47-.11-.26-.01-.51-.02-.77-.02-.39,0-.79-.16-1.08-.42-.37-.34-.4-.8-.46-1.27-.11-.84,.46-1.62,1.3-1.77L454.49,.02c.96-.16,1.84,.58,1.84,1.56V127.31c0,4.27,.6,7.6,1.8,10s2.7,4.1,4.5,5.1c1.5,.83,3.26,1.51,5.28,2.02,.71,.18,1.22,.8,1.22,1.54v.16c0,.87-.71,1.58-1.58,1.58h-52.84c-.87,0-1.58-.71-1.58-1.58v-.14c0-.75,.53-1.38,1.26-1.55,2.27-.51,4.25-1.19,5.94-2.04Zm64.1,0c1.67-1,3.03-2.7,4.1-5.1,1.07-2.4,1.6-5.73,1.6-10v-45.2c0-6.13-1.5-10.67-4.5-13.6-3-2.93-6.77-4.47-11.3-4.6-3.47-.13-6.93,.6-10.4,2.2-2.47,1.14-4.81,2.65-7.01,4.54-1.02,.87-2.59,.14-2.59-1.2h0c0-.22,.04-.44,.13-.65,2.8-6.53,7.06-11.99,12.77-16.39,5.8-4.47,12.63-6.7,20.5-6.7,5.73,0,10.97,1.23,15.7,3.7,4.73,2.47,8.53,6.17,11.4,11.1,2.87,4.93,4.3,10.8,4.3,17.6v49.2c0,4.27,.67,7.6,2,10,1.33,2.4,2.97,4.1,4.9,5.1,1.65,.85,3.61,1.54,5.89,2.05,.71,.16,1.21,.81,1.21,1.54v.14c0,.87-.71,1.58-1.58,1.58h-51.44c-.87,0-1.58-.71-1.58-1.58v-.2c0-.69,.45-1.32,1.12-1.51,1.8-.51,3.39-1.18,4.78-2.01Z"/><path d="M854.56,142.4c2-1,3.67-2.7,5-5.1,1.33-2.4,2-5.73,2-10V25.1c0-4-.63-7.1-1.9-9.3-1.27-2.2-2.87-3.67-4.8-4.4-1.38-.53-2.84-.85-4.3-1.06-.51-.07-1.02-.13-1.54-.17-.42-.04-.85-.02-1.27-.08-.74-.1-1.04-.84-.98-1.51,.04-.53,.32-1.04,.77-1.33,.18-.11,.38-.19,.58-.22L888.63,.03c1.01-.17,1.93,.6,1.93,1.62V127.3c0,4.27,.67,7.6,2,10,1.33,2.4,3.03,4.1,5.1,5.1,1.74,.84,3.73,1.52,5.99,2.03,.76,.17,1.31,.83,1.31,1.62,0,.91-.74,1.65-1.65,1.65h-54.5c-.91,0-1.65-.74-1.65-1.65,0-.77,.53-1.44,1.28-1.6,2.38-.51,4.42-1.2,6.12-2.05Z"/><g id="d"><g id="e"><g><path d="M750.53,36.12c23.21,0,48.27,13.99,62.94,30.31,2.61,2.9,5.18,5.9,6.95,9.38,1.59,3.12,2.48,6.54,3.37,9.92,1.71,6.52,3.42,13.04,5.12,19.56,1.36,5.18,2.73,10.4,4.98,15.26,2.51,5.4,6.21,11.03,4.79,16.81-1.6,6.53-9.03,9.82-15.72,10.41-10.23,.9-16.47,8.31-25.68,11.91-6.92,2.7-14.28,4.28-21.68,4.81-2,.14-3.99,.21-5.99,.21-8.2,0-16.38-1.17-24.35-3.19-2.76-.7-5.49-1.5-8.19-2.39-12.59-4.16-24.69-10.4-34.21-19.63-9.52-9.23-16.29-21.66-17.16-34.9-.18-2.69-.14-5.49-1.29-7.92-.83-1.77-2.23-3.19-3.47-4.69-4.03-4.87-6.64-11.1-6.35-17.42s3.77-12.6,9.42-15.44c3.42-1.72,7.32-2.11,11.05-2.96,16.18-3.69,29.43-16.13,45.75-19.18,3.18-.59,6.42-.87,9.7-.87m0-3.34c-3.56,0-7.05,.31-10.37,.93-8.98,1.68-16.98,5.97-24.71,10.12-7.11,3.82-13.83,7.42-21.17,9.09-.9,.21-1.82,.38-2.79,.57-3,.58-6.1,1.19-9.08,2.68-6.57,3.3-11.05,10.56-11.41,18.51-.31,6.85,2.24,13.91,7.17,19.89,.27,.33,.55,.65,.83,.98,.88,1.03,1.71,2,2.16,2.96,.67,1.41,.76,3.3,.87,5.3,.02,.44,.05,.87,.07,1.31,.45,6.89,2.38,13.74,5.72,20.34,3.13,6.2,7.35,11.89,12.53,16.91,9.03,8.75,21,15.64,35.59,20.47,2.81,.93,5.65,1.76,8.44,2.47,8.63,2.19,17.12,3.3,25.24,3.3,2.1,0,4.2-.08,6.25-.22,7.98-.57,15.63-2.27,22.74-5.05,3.88-1.52,7.17-3.59,10.36-5.59,4.58-2.88,8.91-5.61,14.32-6.08,4.12-.36,8.13-1.59,11.3-3.47,4.02-2.38,6.65-5.73,7.62-9.69,1.49-6.08-1.27-11.61-3.7-16.49-.47-.94-.91-1.83-1.32-2.71-2.13-4.58-3.47-9.7-4.77-14.65l-2.56-9.78-2.56-9.78c-.92-3.52-1.88-7.16-3.65-10.65-1.99-3.91-4.79-7.16-7.49-10.17-14.1-15.69-39.86-31.51-65.63-31.51h0Z"/><path class="h" d="M753.29,93.55c1.76-7.08,1.92-17.53-5.83-21.16-5.79-2.72-12.93,.29-15.46,6.1l-9.19,28.91c4.02-1.26,8.04-2.67,12.25-3.17,1.38-.16,2.79-.26,4.18-.11s2.64,.72,4,1.13c.81,.24,2.06,.24,2.22-.83,.09-.62-.24-1.35-.29-1.98s-.03-1.29,.08-1.88c.28-1.53,1.07-2.83,2.17-3.9,.76-.73,5.79-2.78,5.87-3.1h0Z"/><path class="l" d="M761.23,99.16c-3.71-7.33-15.36-4.6-15.92,3.42s10.96,14.33,15.11,5.68"/><path class="h" d="M784.86,74.49s7.62,2.69,8.45,9.62"/><path class="h" d="M735.88,67.93s6.48-4.56,12.67-3.17"/><path class="h" d="M796.47,103.56s-.75,7.45-2,8.79"/><path class="h" d="M801.06,105.62s-.77,4.37-1.36,5.3"/><path d="M748,73.35c1.2,1.23,1.95,2.86,.56,4.21-1.47,1.43-3.16,2.79-4.43,4.38,.33-.39,2.69,1.33,2.96,1.54,3.08,2.39-.32,9.45-1.16,12.57s-1.68,6.21-2.54,9.31c0,0-8.14-2.23-20.57,1.78l9.19-28.91s2.22-4.39,6.83-6.55c3.04-1.43,6.83-.72,9.16,1.67h0Z"/><path class="h" d="M763.7,111.22c-.19-.18-.17-.54,.14-1.28,1.86-4.48,3.44-9.05,5.08-13.61l2.3-6.39,.11-.32s3.21-8.76,10.96-7.97c10.3,1.05,9.67,15.98,8.33,23.02-1.19,6.26-3.39,11.82-5.78,17.69-1.49-1.36-3.08-2.61-4.69-3.81-3.14-2.34-6.49-4.53-10.15-5.98-1.01-.4-2.04-.74-3.1-.96-.53-.11-1.07-.16-1.61-.19-.76-.05-1.36,.04-1.6-.19h0Z"/><path d="M788.01,85.38s1.33,3.22-1.25,4.67c-2.58,1.45-4.19,2.71-4.19,2.71,0,0-.56,.67,2.1,1.97,3.24,1.58,1.72,7.59,1.07,10.26-1.12,4.61-3.23,14.77-3.23,14.77-4.19-3.09-8.75-6.14-13.61-8.04-1.37-.53-2.76-.96-4.24-.88-1.15,.07-1.41-.58-1.14-1.58,.34-1.28,.78-2.47,1.26-3.71,1.29-3.33,2.67-6.62,4.09-9.9,1.06-2.48,2.15-4.95,3.25-7.42,.34-.76,.75-2.57,1.4-3.14,.02-.01,8.83-7.64,14.49,.28h0Z"/><path class="h" d="M737.99,139.93s4.31,5.35,11.56,3.92"/><path class="h" d="M784.86,122.36l3.93,4.06s1.92,2.28,4.88,3.48,5.38,1.55,7.11,4.32-5.3,3.06-5.3,3.06c0,0-7.55,.54-10.45-1.46-1.51,.49-3.14,.82-4.73,.89-1.86,.08-3.41-.69-4.9-1.72-.64-.44-1.54-1.47-2.31-1.62-.86-.16-1.49,.5-2.24,.8-5.3,2.16-8.64-2.84-11.45-6.41-1.83-2.33-3.77-6.3-6.56-7.5-2.79-1.19-6.39,1.03-8.77,2.32-2.99,1.62-5.55,4.01-9.14,4.08-3.55,.07-8.07-.75-8.4-5.1,0,0-11.11,3.03-11.7-6.84,0,0-10.53-.3-9.63-6.45,0,0,.09-1.74,4.11-.32,2.48,.87,5.15,.94,7.74,.67,1.97-.2,5.05-.3,6.16-2.29"/><path class="h" d="M763.94,111.38s-3.12-.27-3.21-.34"/><path class="h" d="M714.83,114.72s3.08,.25,5.21-.62"/><path class="h" d="M726.53,121.56s2.96-.69,4.28-1.8"/><path class="h" d="M773.38,133.37s-2.06-1.66-4.01-4.79"/><path class="h" d="M785.03,135.81s-5.31-3.65-6.71-7.24"/><circle cx="730.54" cy="40.58" r=".91"/><circle cx="770.43" cy="46.36" r=".91"/><circle cx="792.09" cy="58.23" r=".91"/><circle cx="777.61" cy="48.27" r=".91"/><circle cx="781.23" cy="47.37" r=".91"/><circle cx="784.4" cy="52.35" r=".91"/><circle cx="789.38" cy="52.35" r=".91"/><circle cx="794.36" cy="51.89" r=".91"/><circle cx="776.7" cy="42.84" r=".91"/><circle cx="768.1" cy="42.39" r=".91"/><circle cx="760.86" cy="41.94" r=".91"/><circle cx="761.32" cy="39.22" r=".91"/><circle cx="755.43" cy="40.13" r=".91"/><circle cx="753.62" cy="36.96" r=".91"/><circle cx="747.28" cy="40.13" r=".91"/><circle cx="744.57" cy="37.41" r=".91"/><circle cx="739.14" cy="39.67" r=".91"/><circle cx="800.24" cy="57.78" r=".91"/><circle cx="797.98" cy="62.3" r=".91"/><circle cx="806.12" cy="63.21" r=".91"/><path d="M736.68,127.42c-.44,4.83,1.16,10.31,6.14,11.81,4.45,1.35,9.81,1.54,13.56-1.72,1.98-1.72,3.49-4.41,4.85-6.71l-7.63-10.13c-.83-1.11-2.76-.96-3.9-.57-1.93,.66-3.98,1.64-5.77,2.63-1.78,.98-3.33,2.33-5.21,3.12-.72,.31-1.93,.49-2.03,1.55h0Z"/><circle cx="812.46" cy="66.38" r=".91"/><circle cx="814.72" cy="71.81" r=".91"/><circle cx="816.99" cy="79.5" r=".91"/><path class="i" d="M742.38,137.96c-1.3-1.76,3.05-3.92,4.25-4.58,3.05-1.68,6.12-2.7,9.64-2.86,2.28-.1,4.52,.81,4.52,.81,.3,.16-2.79,4.31-3.11,4.65-1.81,1.91-4.39,2.9-6.94,3.3s-5.63,.61-7.79-.81c-.25-.16-.43-.33-.56-.51h0Z"/><path class="j" d="M721.1,37.31c-.13,.01-.27,.02-.4,.03-2.45,.05-4.6-1.43-6.99-.14-2.14,1.15-3.48,3.34-5.59,4.53-1.54,.87-3.45,.93-4.83,2.12-1.13,.98-2.49,1.96-3.35,3.26-.92,1.41-1.14,3.15-2.05,4.58-.46,.72-2.59,2.39-1.92,3.34,.46,.65,3.38,.39,4.15,.33,1.27-.09,2.67-.35,3.87-.79,1.12-.41,2.02-1.3,3.2-1.6,1.34-.34,2.8-.07,4.17-.32,4.36-.8,7.21-3.39,10.44-6.16,2.24-1.92,4.35-3.97,6.42-6.07,1.51-1.54,1.37-2.88-.77-3.78s-4.29,.44-6.34,.68h0Z"/><path class="j" d="M822.21,76.2c.86-.1,1.73,.14,2.54,.47,2.95,1.19,5.41,3.49,6.97,6.26,.85,1.5,1.44,3.15,1.79,4.83,.31,1.5,0,3.51,.86,4.66,1.8,2.4,3.08,4.55,3.75,7.55,.68,3.08,.54,6.35-.51,9.32-.3,.85-.67,1.68-.84,2.56-.19,.98-.14,1.99-.24,2.98-.22,1.98-1.1,3.88-2.48,5.33-3.35-3.39-6.65-7.02-8.36-11.47-.51-1.33-.87-2.76-.64-4.17,.05-.32,.13-.64,.04-.95-.08-.26-.26-.47-.44-.67-1.66-1.86-3.15-3.88-4.43-6.02-1.06-1.77-2.01-3.72-1.89-5.78,.03-.51,.12-1.01,.08-1.52-.05-.52-.25-1.01-.41-1.51-1-3.05-.63-6.51,.98-9.28,.68-1.17,1.67-2.29,3-2.55,.08-.02,.16-.03,.24-.04h-.01Z"/><path d="M725.85,159.8l13.6,4.71s-6.18,9.88-6.19,9.89c-3.04,4.86-4.3,9.91,2.92,10.81,.27,.03,.53,.05,.79,.05,1,0,1.96-.23,2.9-.6-2.25,4.14-4.55,8.25-6.82,12.38h-.22c-4.87,0-9.93-3.3-9.93-3.3-13.06-8.5-1.63-24.05,2.95-33.94h0m0-3.99h-2.32l-.97,2.1c-.68,1.48-1.55,3.14-2.47,4.9-2.64,5.04-5.64,10.75-6.58,16.47-1.2,7.31,1.36,13.25,7.41,17.2,.62,.4,6.16,3.89,11.93,3.89h.29l2.09-.04,1.01-1.83c.73-1.33,1.47-2.65,2.2-3.98,1.53-2.76,3.11-5.62,4.64-8.44l4.71-8.66-9.2,3.56c-.61,.24-1.14,.35-1.59,.35-.12,0-.23,0-.34-.02-1.56-.19-2.06-.57-2.16-.65-.03-.18-.16-1.44,1.85-4.66h0s.19-.29,6.2-9.9l2.41-3.85-4.3-1.49-6.81-2.36-4.68-1.63c-1.8-.62-2.91-.94-3.32-.94h0Z"/><path d="M752.89,167.46l14.66,1.51-27.09,52.24c11.05,1.19,9.08,19.08,9.08,19.08-4.56,.1-9.12,.19-13.67,.26-10.84,.19-21.67,.34-32.51,.38-1.39,0-2.79,0-4.18,0-3.26,0-6.52-.02-9.77-.09-4.45-.1-9.34,.5-8.99-5.45,0-.15,.62-9.98,8.45-14.04,7.9-4.1,11.11-3.6,17.25-4.06,.5-.04,1.05-.05,1.64-.05,6.72,0,18.76,2.21,18.76,2.21l26.36-51.99m-2.1-3.84l-1.13,2.22-25.15,49.61c-4.03-.67-11.69-1.81-16.74-1.81-.7,0-1.34,.02-1.91,.06-.92,.07-1.78,.12-2.62,.16-4.65,.25-8.67,.48-16.03,4.29-9.59,4.97-10.37,16.56-10.4,17.05-.16,2.77,.52,4.98,2.02,6.59,2.47,2.64,6.25,2.66,9.28,2.68,.41,0,.82,0,1.23,.01,2.85,.06,5.97,.09,9.85,.09,1.4,0,2.79,0,4.19,0,11.54-.04,22.93-.21,32.56-.38,3.74-.06,8.67-.15,13.69-.26l3.17-.07,.35-3.15c.01-.12,.32-3,.04-6.59-.41-5.11-1.77-9.14-4.06-11.99-1-1.24-2.18-2.25-3.5-3l25.14-48.48,2.45-4.73-5.3-.54-14.66-1.51-2.48-.25h0Z"/><path d="M786.99,177.06c9.66,0,8.76,16.4,9.26,22.9,.28,3.73,2.53,39.49,.38,39.71,0,0-10.93,1.16-18.55,1.16-3.82,0-6.81-.29-7.2-1.16-3.51-7.76-.34-15.83,6.67-19.96,0,0-2.87-13.28-2.2-23.09l-17.72,.45,6.27-12.66h13.85s3.24-7.13,8.91-7.34c.11,0,.22,0,.33,0m.28-3.33h0c-.15,0-.31,0-.47,0-5.56,.21-9.17,4.58-10.9,7.34h-13.96l-1,2.01-6.27,12.66-2.67,5.38,6-.15,13.9-.36c.06,6.8,1.22,14.05,1.9,17.72-3.1,2.38-5.44,5.53-6.69,9.07-1.58,4.51-1.33,9.5,.73,14.03,1.25,2.77,4.66,3.29,10.5,3.29,7.7,0,18.48-1.14,18.94-1.19,.57-.06,2.5-.44,3.37-2.8,.19-.52,.33-1.13,.44-1.91,.16-1.11,.26-2.61,.31-4.58,.08-3.15,.02-7.52-.17-12.99-.33-9.36-.96-19.33-1.11-21.31-.06-.82-.1-1.83-.14-3.01-.15-3.87-.35-9.16-1.68-13.6-2.39-7.97-7.32-9.64-11.04-9.64h0Z"/><polygon points="725.85 159.77 734.71 172.1 739.47 164.49 725.85 159.77"/><polygon points="752.89 167.48 763.26 177.25 767.55 168.98 752.89 167.48"/><polygon points="774.6 205.91 780.21 197.06 774.89 196.81 774.6 205.91"/><path class="h" d="M726.07,218.56s3.27,.77,4.43,3.84"/><path class="h" d="M777.09,219.44s1.85-1.5,4.92,0"/><polygon points="757.63 197.26 768.1 183.21 764.7 182.7 757.63 197.26"/><polygon points="684.87 98.04 690.26 73.75 676.68 90 684.87 98.04"/></g></g></g><g id="f"><g id="g"><g><path d="M625.91,34.48c7.79,0,13.15,4.45,13.15,4.45,0,0,11.06,6.1,12.48,15.73,1.42,9.63,.71,11.17,.71,11.17,0,0,7.37,3.29,6.53,6.68l-3.15,2.98-4.61-5.29-1.66,4.98s25.5,20.8,21.82,51.43c0,0,14.22,10.9,7.13,22.42-3.55,5.78-8.32,7.22-12.19,7.22s-6.81-1.42-6.81-1.42c0,0-16.94,16.05-39.21,16.05-1.39,0-2.79-.06-4.22-.2-27.24-2.52-53.11-11.58-69.46-34.82-12.12-17.22-7.33-26.85-7.33-26.85,0,0-14.5-13.43-8.61-27.21,4.03-9.43,13.54-10.92,19.14-10.92,2.58,0,4.34,.32,4.34,.32,0,0,3.21-9.19,27.25-14.9-.02,0-.05,0-.07,0-1.37,0-4.93-7.85-5.23-8.78-1.93-5.86,.83-8.6,5.35-8.6,.85,0,1.76,.1,2.71,.29,5.18,1.04,11.36-.04,16.35,2.09,3.27,1.4,5.68,2.42,5.68,2.42l4.71-3.41s3.9-4.69,12.91-5.71c.79-.09,1.56-.13,2.3-.13m0-3.32c-.89,0-1.79,.05-2.68,.15-8.8,1-13.49,5.22-14.75,6.52l-2.92,2.12c-1-.43-2.37-1.01-3.95-1.68-3.58-1.53-7.36-1.66-11.02-1.79-2.15-.07-4.19-.15-5.98-.51-1.17-.23-2.3-.35-3.37-.35-3.39,0-6.15,1.23-7.77,3.46-1.21,1.67-2.32,4.68-.73,9.5,.26,.79,1.38,3.25,2.44,5.25,.1,.19,.2,.37,.3,.56-8.06,2.33-14.43,5.32-18.97,8.91-2.1,1.66-3.45,3.18-4.31,4.37-.73-.05-1.6-.1-2.58-.1-2.92,0-7.29,.38-11.48,2.19-4.99,2.16-8.59,5.77-10.72,10.73-2.83,6.63-2.05,14.14,2.26,21.72,1.95,3.42,4.19,6.12,5.64,7.7-.34,1.47-.62,3.59-.43,6.3,.46,6.66,3.43,13.92,8.8,21.56,7.99,11.35,18.74,20.2,31.97,26.29,11.26,5.18,24.68,8.52,39.9,9.93,1.49,.14,3.01,.21,4.52,.21,9.68,0,19.92-2.93,29.6-8.46,4.82-2.76,8.39-5.51,10.3-7.11,1.49,.46,3.63,.94,6.12,.94,4.39,0,10.55-1.53,15.02-8.8,3.61-5.87,3.29-12.46-.94-19.06-1.86-2.91-4.1-5.18-5.54-6.49,1.1-12.74-2.42-25.7-10.23-37.62-2.44-3.73-4.96-6.84-7.12-9.24,.22-.13,.42-.28,.61-.46l3.15-2.98c.46-.44,.79-1,.94-1.61,.49-1.96,.15-4.97-4.23-8.11-.69-.5-1.4-.93-2.02-1.29,0-1.9-.21-4.91-.92-9.73-.69-4.69-3.39-9.34-7.8-13.43-2.71-2.51-5.29-4.1-6.1-4.58-1.28-.98-7.03-5.01-15.01-5.01h0Z"/><path class="h" d="M575.39,81.81s6.67-6.14,14.11-2.9"/><path class="h" d="M626.01,87.62s10.56,2.28,11.7,9.39"/><path class="h" d="M598.21,123.72s-11.17-1.16-7.47-6.64,9.54-.83,9.54-.83"/><path class="h" d="M611.08,135.75c-19.06,4.65-29.87-7.05-29.87-7.05,3.35-5.31-.83-10.37-.83-10.37"/><path class="h" d="M570,130.36s7.91,4.24,11.2-1.66"/><path class="h" d="M621.45,140.31s-12.59,.57-10.05-8.47c0,0,.95-4.31,5.07-5.22"/><circle cx="572.25" cy="120.1" r=".83"/><circle cx="618.72" cy="130.48" r=".83"/><circle cx="621.21" cy="135.87" r=".83"/><circle cx="624.53" cy="131.72" r=".83"/><circle cx="572.25" cy="124.67" r=".83"/><circle cx="575.99" cy="121.35" r=".83"/><path class="k" d="M608.5,119.22s2.1-25.74,12.86-24.77,9.78,18.25,9.78,18.25l-.65,8.94s-18.64-4.75-21.99-2.42h0Z"/><path d="M627.61,97.78c-.66-.49-1.37,.63-1.42,1.08-.05,.51,.31,1.31,.42,1.82,.39,1.75,1.54,4.73-1.05,5.44-1.69,.46-4.28-.85-5.37,1.09,.09-.17,3.03,.87,3.34,1.01,1.13,.48,2.15,1.2,2.62,2.38,.59,1.5,.4,3.2,.6,4.76,.15,1.19,.14,2.4-.04,3.59s-.17,1.26-1.14,1.24c-1.31-.03-2.73-.44-4.02-.65l-6.92-1.12h-4.43l-1.68,.91,2.78-14.02,3.64-7.89,3.46-2.84,4.44,.05c1.59,1.04,3.24,2.03,4.76,3.16h0Z"/><path class="m" d="M572.74,109.73c.3-2.22,.63-4.45,.98-6.66,.24-1.52,.49-3.05,.8-4.56,1.11-5.32,5.43-10.27,10.44-12.17,3.82-1.45,7.58,.29,9.8,3.54,2.86,4.16,2.19,9.1,1.44,13.79-.34,2.14-.72,4.28-1.23,6.38-.3,1.22-.59,3.35-1.64,4.21,0,0-19.04-6.81-20.6-4.53h0Z"/><path d="M593.42,88.44c-.58-.4-2.16,.46-2.62,.81-.85,.64-.77,1.14-.69,2.19,.12,1.51,.38,3.03,.69,4.51,0,0,.61,2.96-3.56,3.29,0,0-1.74,.22-2.54,.9s4.06,.25,4.32,3.57c.17,2.17-.56,5.3-1.46,7.27-.36,.77-.48,.76-1.22,.67-.39-.04-.78-.1-1.17-.17-2.41-.43-4.8-.99-7.17-1.58-1.54-.39-3.15,.07-4.63-.24-1.64-.34,.14-5.12,.31-6.09l1.43-8.05,5.08-6.75,5.76-2.95,4.58,.62,2.89,2h0Z"/><path class="m" d="M579.7,55.97s11.47-2.68,14.36-2.57"/><path class="m" d="M605.99,43.33s46.8,22.85,43.35,31.45l-20.25-5.46c-6.95-1.95-15-3.4-21.02-7.56-6.42-4.44-12.39-10.23-17.3-16.27-2.38-2.93-5.12-5.6-8.33-7.62"/><path class="m" d="M610.69,40.33s26.92,12.32,28.37,15.45"/><path d="M634.9,59.4s6.83-8.55,17.29-4.32c0,0,2.99,11.02-1.54,18.83,0,0-6.41-8.21-15.75-14.52h0Z"/><path d="M539.07,109.02l6.41-23.97-13.51,14.48s2.24,10.32,4.56,9.75c2.31-.57,2.54-.25,2.54-.25h0Z"/><path d="M574.53,164.79l12.81,3.95-4.16,6.75c-5.05,8.71-3.22,11.29-3.22,11.29,1.71,1.19,4.78,1.38,6.55,1.38,.83,0,1.38-.04,1.38-.04l-5.64,11.22c-8.47-.22-13.68-6.73-13.68-6.73-5.96-4.46,5.95-27.82,5.95-27.82m0-3.42c-1.22,0-2.38,.68-2.96,1.81-.12,.24-3.11,6.12-5.39,12.65-2.21,6.33-4.57,15.12,.07,19.07,1.29,1.47,7.05,7.43,15.91,7.66h.09c1.25,0,2.4-.71,2.97-1.83l5.64-11.22c.54-1.07,.46-2.34-.21-3.34-.62-.93-1.66-1.47-2.76-1.47-.08,0-.17,0-.25,0h0s-.46,.03-1.13,.03c-1.47,0-2.66-.15-3.5-.34,.17-1.16,.8-3.45,3.02-7.3l4.13-6.72c.54-.88,.64-1.95,.28-2.91-.36-.96-1.15-1.7-2.13-2l-12.81-3.95c-.32-.1-.65-.15-.98-.15h0Z"/><path d="M599.96,171.99l12.72,2.14-24.17,47.71c11.48,4.02,7.63,17.65,7.63,17.65l-63.07-1.24c-.33-1.82,.12-3.76,.58-5.51,1.1-4.2,2.43-8.57,6.05-11.28,3.28-2.46,7.5-3.39,11.51-3.78,1.55-.15,3.11-.22,4.67-.22,2.98,0,5.97,.24,8.92,.61,.88,.11,9.99,1.95,10.94,1.95,.05,0,.07,0,.08-.01,0-.02,24.15-47.99,24.15-47.99m.07-3.11c-1.24,0-2.4,.69-2.97,1.83,0,0-18.46,36.67-23.14,45.99-1.57-.28-3.68-.68-5.05-.94-2.41-.46-3.29-.62-3.69-.67-3.47-.42-6.53-.63-9.36-.63-1.73,0-3.41,.08-5,.23-5.63,.55-9.96,2-13.21,4.44-4.42,3.31-6.02,8.3-7.28,13.13-.54,2.06-1.08,4.48-.63,6.96,.28,1.56,1.62,2.71,3.21,2.74l63.24,1.25h.07c1.49,0,2.8-.99,3.2-2.43,.05-.17,1.14-4.11,.59-8.64-.61-5.05-3.04-9.02-6.95-11.47l22.71-44.81c.48-.94,.48-2.06,0-3s-1.37-1.61-2.42-1.78l-12.76-2.15c-.19-.03-.37-.05-.55-.05h0Z"/><path d="M628.95,181.95c.47,0,.96,.04,1.5,.12,7.88,1.2,7.68,9.14,7.68,9.14,0,0,2.21,42.53,.58,47.8h-23.84s-2.91-15.39,6.76-18.25c0,0-2.83-8.91-1.93-21.35l-16.12,.67,5.52-10.85h12.53s.82-7.28,7.32-7.28m-.17-3.24h0c-3.73,0-6.8,1.82-8.65,5.13-.36,.64-.64,1.29-.85,1.88h-10.26c-1.25,0-2.39,.7-2.95,1.81l-5.55,10.9c-.53,1.05-.47,2.3,.17,3.29,.61,.95,1.66,1.52,2.79,1.52h.12l12.63-.52c-.15,7.19,.81,12.95,1.53,16.19-3.58,2.22-5.84,6.29-6.46,11.78-.54,4.69,.25,8.94,.29,9.12,.3,1.57,1.67,2.71,3.27,2.71h23.97c1.46,0,2.75-.96,3.18-2.35,.33-1.06,1.17-3.95,.46-27-.33-10.6-.84-20.75-.9-21.93,.04-3.8-2.09-11.08-10.51-12.37-.68-.1-1.36-.16-2-.16h-.24Z"/><polygon points="574.53 164.79 583.18 175.49 587.34 168.74 574.53 164.79"/><polygon points="603.46 200.29 614.61 188.95 608.21 187.84 603.46 200.29"/><polygon points="619.5 199.62 628.6 199.34 619.37 212.7 619.5 199.62"/><polygon points="599.96 171.99 609.36 180.67 612.67 174.13 599.96 171.99"/><path class="m" d="M574.15,219.15s4.79-.44,6.53,2.85"/><path class="m" d="M621.22,220.69s1.55-1.54,4.19-.54"/></g></g></g></g></g></g></svg>