<?xml version="1.0" encoding="UTF-8"?><svg xmlns="http://www.w3.org/2000/svg" viewBox="0 0 1381 694.19"><defs><style>.d,.e,.f,.g,.h,.i,.j,.k,.l,.m,.n{stroke-miterlimit:10;}.d,.e,.f,.g,.h,.o,.p{stroke-width:3px;}.d,.e,.f,.g,.o,.j,.k,.m,.n,.p{fill:none;}.d,.e,.j,.k,.m,.n,.p{stroke-linecap:round;}.d,.f,.j,.k,.m{stroke:#231f20;}.e,.g,.h,.i,.o,.l,.n,.p{stroke:#000;}.q{fill:#231f20;}.o,.p{stroke-linejoin:round;}.k{stroke-width:8px;}.l{fill:#fff;}.m{stroke-width:2px;}.n{stroke-width:4px;}</style></defs><g id="a"/><g id="b"><g id="c"><g><g><path d="M504.68,240.46c6.76,0,13.44,.58,19.97,1.8,33.58,6.27,60.85,31.87,94.16,39.47,7.68,1.75,15.71,2.56,22.75,6.1,11.63,5.84,18.8,18.78,19.4,31.78s-4.78,25.82-13.07,35.85c-2.56,3.1-5.43,6.02-7.15,9.65-2.37,5.01-2.28,10.77-2.65,16.3-1.78,27.23-15.73,52.82-35.32,71.82-19.59,19-44.5,31.83-70.41,40.4-5.55,1.84-11.18,3.49-16.85,4.93-16.4,4.16-33.25,6.57-50.12,6.57-4.11,0-8.22-.14-12.33-.44-15.25-1.09-30.38-4.33-44.63-9.9-18.97-7.41-31.8-22.66-52.86-24.51-13.77-1.21-29.07-7.99-32.36-21.42-2.92-11.91,4.69-23.49,9.86-34.61,4.65-10,7.46-20.74,10.26-31.41l10.55-40.27c1.83-6.97,3.67-14,6.94-20.42,3.64-7.16,8.93-13.34,14.3-19.31,30.2-33.59,81.78-62.38,129.55-62.38m0-8v0c-53.21,0-106.4,32.66-135.5,65.03-5.58,6.2-11.36,12.93-15.49,21.04-3.67,7.22-5.64,14.74-7.55,22.02l-1.81,6.92-8.74,33.35c-2.66,10.17-5.42,20.68-9.78,30.06-.84,1.81-1.75,3.63-2.71,5.57-5.05,10.12-10.77,21.6-7.66,34.31,2.03,8.29,7.54,15.3,15.94,20.28,6.59,3.9,14.93,6.46,23.49,7.21,10.99,.97,19.44,6.28,29.23,12.43,6.58,4.14,13.38,8.42,21.42,11.56,14.68,5.74,30.48,9.24,46.97,10.43,4.24,.3,8.58,.46,12.9,.46,16.75,0,34.28-2.29,52.09-6.81,5.74-1.46,11.6-3.17,17.4-5.09,30.11-9.96,54.82-24.18,73.47-42.25,10.72-10.39,19.43-22.15,25.91-34.96,6.91-13.67,10.89-27.83,11.83-42.09,.06-.89,.11-1.8,.15-2.7,.21-4.06,.42-7.9,1.74-10.7,.9-1.91,2.59-3.88,4.38-5.96,.57-.67,1.15-1.34,1.71-2.02,10.26-12.41,15.54-27.08,14.89-41.31-.76-16.54-10.1-31.68-23.8-38.56-6.21-3.12-12.63-4.37-18.84-5.57-1.99-.39-3.87-.75-5.72-1.17-15.04-3.43-28.84-10.83-43.44-18.67-15.95-8.56-32.45-17.41-51.03-20.87-6.87-1.28-14.08-1.93-21.44-1.93h0Z"/><path class="e" d="M499,358.67c-3.62-14.58-3.95-36.07,11.99-43.55,11.92-5.6,26.62,.61,31.82,12.55l18.91,59.5c-8.27-2.6-16.56-5.51-25.21-6.53-2.85-.34-5.74-.53-8.6-.23s-5.44,1.48-8.22,2.33c-1.66,.51-4.24,.49-4.56-1.71-.19-1.27,.49-2.78,.6-4.07s.06-2.67-.16-3.88c-.57-3.13-2.2-5.83-4.47-8.03-1.55-1.5-11.92-5.72-12.08-6.38Z"/><path class="n" d="M482.65,370.21c7.63-15.09,31.62-9.46,32.78,7.04s-22.55,29.51-31.11,11.69"/><path class="e" d="M434.02,319.44s-15.68,5.54-17.38,19.8"/><path class="e" d="M534.82,305.93s-13.33-9.38-26.08-6.52"/><path class="e" d="M410.11,379.27s1.54,15.35,4.11,18.08"/><path class="e" d="M400.66,383.51s1.59,8.99,2.81,10.92"/><path d="M509.89,316.69c-2.47,2.53-4,5.88-1.15,8.67,3.02,2.94,6.5,5.75,9.12,9.02-.68-.8-5.53,2.74-6.09,3.17-6.34,4.93,.66,19.44,2.39,25.87s3.46,12.79,5.22,19.17c0,0,16.76-4.59,42.33,3.66l-18.91-59.5s-4.57-9.03-14.06-13.49c-6.25-2.94-14.05-1.49-18.86,3.44Z"/><path class="e" d="M477.57,395.04c.39-.36,.35-1.1-.29-2.63-3.83-9.21-7.08-18.63-10.46-28.02l-4.74-13.15-.24-.65s-6.61-18.03-22.57-16.4c-21.2,2.17-19.9,32.89-17.14,47.38,2.45,12.88,6.98,24.32,11.89,36.41,3.06-2.79,6.34-5.37,9.66-7.85,6.46-4.81,13.37-9.32,20.89-12.3,2.07-.82,4.2-1.53,6.39-1.98,1.09-.23,2.2-.34,3.32-.4,1.57-.09,2.79,.07,3.3-.4Z"/><path d="M427.53,341.84s-2.74,6.62,2.58,9.61,8.62,5.57,8.62,5.57c0,0,1.15,1.39-4.33,4.06-6.67,3.25-3.54,15.63-2.21,21.12,2.31,9.5,6.64,30.41,6.64,30.41,8.62-6.35,18.01-12.63,28.01-16.55,2.81-1.1,5.68-1.99,8.72-1.81,2.36,.14,2.9-1.2,2.35-3.26-.7-2.62-1.6-5.08-2.59-7.63-2.64-6.86-5.51-13.63-8.41-20.38-2.19-5.1-4.42-10.19-6.68-15.27-.7-1.58-1.55-5.29-2.89-6.46-.04-.03-18.16-15.73-29.82,.58Z"/><path class="e" d="M530.49,454.13s-8.87,11-23.78,8.06"/><path class="e" d="M434.02,417.97l-8.1,8.36s-3.96,4.68-10.04,7.15c-6.08,2.47-11.07,3.19-14.63,8.89s10.91,6.29,10.91,6.29c0,0,15.54,1.11,21.5-3,3.11,1,6.46,1.7,9.73,1.84,3.83,.17,7.01-1.43,10.08-3.54,1.32-.91,3.18-3.03,4.76-3.33,1.78-.34,3.07,1.02,4.6,1.64,10.92,4.44,17.8-5.85,23.56-13.2,3.76-4.8,7.76-12.96,13.51-15.43,5.74-2.46,13.14,2.11,18.05,4.77,6.16,3.33,11.42,8.26,18.81,8.4,7.3,.14,16.61-1.55,17.3-10.5,0,0,22.86,6.24,24.07-14.08,0,0,21.68-.62,19.83-13.26,0,0-.19-3.58-8.47-.66-5.1,1.8-10.59,1.92-15.92,1.38-4.06-.42-10.4-.61-12.68-4.71"/><path class="e" d="M477.06,395.36s6.43-.55,6.62-.71"/><path class="e" d="M578.15,402.24s-6.35,.51-10.72-1.28"/><path class="e" d="M554.07,416.31s-6.1-1.42-8.8-3.7"/><path class="e" d="M457.63,440.63s4.24-3.41,8.25-9.87"/><path class="e" d="M433.66,445.66s10.94-7.5,13.8-14.89"/><circle cx="545.82" cy="249.63" r="1.86"/><circle cx="463.72" cy="261.54" r="1.86"/><circle cx="419.12" cy="285.96" r="1.86"/><circle cx="448.94" cy="265.47" r="1.86"/><circle cx="441.48" cy="263.61" r="1.86"/><circle cx="434.96" cy="273.85" r="1.86"/><circle cx="424.71" cy="273.85" r="1.86"/><circle cx="414.47" cy="272.92" r="1.86"/><circle cx="450.8" cy="254.29" r="1.86"/><circle cx="468.5" cy="253.36" r="1.86"/><circle cx="483.4" cy="252.43" r="1.86"/><circle cx="482.47" cy="246.84" r="1.86"/><circle cx="494.58" cy="248.7" r="1.86"/><circle cx="498.31" cy="242.18" r="1.86"/><circle cx="511.35" cy="248.7" r="1.86"/><circle cx="516.94" cy="243.11" r="1.86"/><circle cx="528.12" cy="247.77" r="1.86"/><circle cx="402.36" cy="285.03" r="1.86"/><circle cx="407.01" cy="294.35" r="1.86"/><circle cx="390.24" cy="296.21" r="1.86"/><path d="M533.17,428.38c.91,9.95-2.39,21.21-12.63,24.31-9.17,2.78-20.19,3.17-27.91-3.53-4.07-3.53-7.17-9.08-9.97-13.8l15.7-20.85c1.72-2.28,5.67-1.97,8.03-1.17,3.98,1.36,8.19,3.37,11.88,5.41,3.66,2.02,6.85,4.79,10.73,6.43,1.49,.63,3.97,1.01,4.17,3.2Z"/><circle cx="377.2" cy="302.73" r="1.86"/><circle cx="372.54" cy="313.91" r="1.86"/><circle cx="367.89" cy="329.75" r="1.86"/><path class="g" d="M521.8,450.07c2.67-3.61-6.28-8.08-8.74-9.43-6.28-3.46-12.6-5.57-19.84-5.88-4.7-.2-9.31,1.66-9.31,1.66-.61,.32,5.75,8.87,6.41,9.57,3.71,3.94,9.03,5.96,14.29,6.8,5.01,.8,11.6,1.25,16.03-1.68,.51-.34,.89-.69,1.16-1.05Z"/><path class="i" d="M565.65,242.9c.27,.03,.55,.05,.82,.06,5.04,.12,9.47-2.93,14.39-.3,4.41,2.36,7.17,6.86,11.52,9.32,3.17,1.79,7.11,1.92,9.95,4.37,2.33,2.01,5.14,4.02,6.9,6.72,1.9,2.9,2.34,6.49,4.21,9.43,.94,1.48,5.34,4.92,3.95,6.86-.95,1.33-6.96,.8-8.54,.69-2.61-.19-5.51-.72-7.98-1.62-2.31-.85-4.16-2.68-6.57-3.3-2.76-.7-5.77-.14-8.59-.66-8.97-1.65-14.83-6.97-21.49-12.69-4.61-3.95-8.96-8.17-13.21-12.5-3.11-3.17-2.81-5.92,1.6-7.78,4.22-1.77,8.82,.91,13.05,1.4Z"/><path class="i" d="M357.12,322.96c-1.77-.21-3.57,.29-5.23,.97-6.08,2.45-11.14,7.17-14.36,12.88-1.75,3.09-2.97,6.47-3.69,9.95-.64,3.08,0,7.23-1.77,9.6-3.71,4.95-6.35,9.36-7.71,15.55-1.4,6.33-1.12,13.06,1.04,19.19,.62,1.75,1.37,3.45,1.73,5.27,.4,2.01,.29,4.09,.51,6.13,.45,4.08,2.27,8,5.1,10.96,6.89-6.98,13.7-14.45,17.21-23.62,1.05-2.73,1.79-5.69,1.33-8.58-.1-.65-.27-1.33-.08-1.96,.16-.53,.54-.96,.91-1.38,3.41-3.84,6.47-8,9.12-12.4,2.18-3.64,4.14-7.67,3.9-11.91-.06-1.04-.25-2.08-.16-3.12,.1-1.07,.51-2.09,.84-3.11,2.05-6.27,1.29-13.4-2.02-19.11-1.4-2.41-3.45-4.7-6.18-5.25-.16-.03-.33-.06-.49-.08Z"/><path d="M555.46,494.96c9.42,20.38,32.97,52.42,6.07,69.95,0,0-10.43,6.79-20.47,6.79-.15,0-.3,0-.44,0-4.69-8.5-9.42-16.98-14.05-25.51,1.94,.75,3.91,1.23,5.97,1.23,.53,0,1.08-.03,1.62-.1,14.89-1.84,12.3-12.25,6.03-22.27,0-.01-12.75-20.37-12.75-20.37l28.03-9.72m.21-8c-1.56,0-2.95,.48-4.03,.85l-3.18,1.1-9.63,3.34-14.01,4.86-9.49,3.29,5.33,8.51,12.75,20.37c3.54,5.66,3.77,8.31,3.75,9-.38,.23-1.48,.78-3.98,1.08-.21,.03-.42,.04-.64,.04-.88,0-1.89-.23-3.08-.69l-20.32-7.85,10.41,19.13c3.16,5.81,6.41,11.68,9.55,17.37,1.51,2.73,3.02,5.45,4.52,8.18l2.23,4.04,4.62,.09c.2,0,.4,0,.61,0,12.03,0,23.55-7.26,24.82-8.09,12.66-8.25,18.02-20.67,15.5-35.93-1.95-11.85-8.14-23.64-13.59-34.04-1.89-3.61-3.68-7.01-5.08-10.04l-.89-1.93-1.73-1.23c-1.57-1.11-3.07-1.48-4.43-1.48h0Z"/><path d="M499.82,510.83l54.26,107.01s24.79-4.55,38.61-4.55c1.22,0,2.35,.04,3.37,.11,12.64,.95,19.25-.08,35.51,8.35,16.13,8.37,17.38,28.6,17.4,28.91,.72,12.25-9.35,11.02-18.51,11.22-6.7,.14-13.4,.18-20.1,.18-2.87,0-5.75,0-8.62-.02-22.3-.07-44.61-.39-66.91-.78-9.38-.16-18.76-.34-28.14-.54,0,0-4.05-36.84,18.7-39.28l-55.76-107.53,30.18-3.1m4.65-8.52l-5.47,.56-30.18,3.1-11.7,1.2,5.41,10.44,51.51,99.33c-2.6,1.54-4.92,3.57-6.91,6.04-4.77,5.94-7.62,14.33-8.46,24.97-.59,7.45,.05,13.42,.07,13.67l.77,6.97,7.01,.15c8.12,.18,16.81,.34,28.18,.54,19.81,.34,43.26,.7,67.02,.78,2.88,0,5.76,.02,8.64,.02,7.98,0,14.42-.06,20.27-.19,.84-.02,1.68-.02,2.52-.03,6.35-.04,14.25-.09,19.49-5.7,3.2-3.42,4.65-8.12,4.31-13.97-.06-1.02-1.71-25.17-21.7-35.54-15.25-7.91-23.58-8.37-33.22-8.9-1.71-.09-3.48-.19-5.37-.33-1.19-.09-2.53-.13-3.97-.13-10.26,0-25.74,2.29-34.15,3.67l-51.59-101.75-2.49-4.9h0Z"/><path d="M429.63,530.94c.22,0,.45,0,.68,.01,11.66,.44,18.33,15.11,18.33,15.11h28.5l12.91,26.06-36.47-.93c1.39,20.19-4.51,47.53-4.51,47.53,14.44,8.5,20.96,25.12,13.73,41.09-.81,1.8-6.97,2.4-14.82,2.4-15.7,0-38.18-2.4-38.19-2.4-4.4-.47,.21-74.07,.79-81.74,1.01-13.36-.84-47.13,19.05-47.12m0-8h0c-6.18,0-11.66,2.29-15.84,6.62-3.25,3.36-5.67,7.82-7.41,13.61-2.75,9.2-3.17,20.14-3.48,28.12-.09,2.41-.17,4.5-.3,6.17-.31,4.09-1.61,24.62-2.28,43.9-.39,11.25-.51,20.26-.35,26.76,.1,4.07,.31,7.17,.64,9.48,.23,1.66,.53,2.94,.94,4.05,1.89,5.14,6.13,5.98,7.39,6.11,.2,.02,23,2.44,39.04,2.44,12.26,0,19.41-1.13,22.11-7.1,4.28-9.47,4.82-19.87,1.52-29.29-2.56-7.29-7.33-13.78-13.67-18.72,1.39-7.57,3.68-22.02,3.85-35.68l28.06,.72,13.26,.34-5.89-11.89-12.91-26.06-2.2-4.45h-28.78c-3.69-5.77-11.2-14.67-22.72-15.11-.33-.01-.66-.02-.99-.02h0Z"/><polygon points="555.46 494.96 537.24 520.35 527.43 504.68 555.46 494.96"/><polygon points="499.82 510.83 478.46 530.94 469.64 513.93 499.82 510.83"/><polygon points="455.13 589.94 443.59 571.71 454.52 571.19 455.13 589.94"/><path class="e" d="M555.01,615.98s-6.72,1.6-9.12,7.9"/><path class="e" d="M450.01,617.79s-3.81-3.09-10.12,0"/><polygon points="490.06 572.12 468.5 543.2 475.51 542.15 490.06 572.12"/><polygon points="639.81 367.9 628.73 317.91 656.67 351.34 639.81 367.9"/></g><g><path d="M943.22,226.82c16.62,0,28.06,9.5,28.06,9.5,0,0,23.59,13.02,26.62,33.56,3.03,20.54,1.52,23.84,1.52,23.84,0,0,15.73,7.02,13.93,14.26l-6.73,6.36-9.84-11.28-3.55,10.63s54.41,44.39,46.55,109.72c0,0,30.33,23.26,15.22,47.84-7.58,12.32-17.76,15.4-26.02,15.4s-14.53-3.03-14.53-3.03c0,0-36.14,34.25-83.66,34.25-2.96,0-5.95-.13-8.99-.41-58.13-5.39-113.32-24.71-148.2-74.3-25.85-36.74-15.63-57.29-15.63-57.29,0,0-30.94-28.66-18.36-58.05,8.61-20.11,28.89-23.29,40.84-23.29,5.52,0,9.26,.68,9.26,.68,0,0,6.86-19.6,58.14-31.78-.05,.01-.11,.02-.16,.02-2.92,0-10.51-16.76-11.16-18.74-4.12-12.5,1.77-18.35,11.41-18.35,1.81,0,3.76,.21,5.79,.61,11.05,2.21,24.24-.09,34.89,4.47,6.98,2.99,12.12,5.17,12.12,5.17l10.04-7.29s8.32-10.01,27.55-12.19c1.68-.19,3.32-.28,4.91-.28m0-8c-1.93,0-3.89,.11-5.81,.33-19.14,2.17-29.14,11.13-32.01,14.15l-5.71,4.14c-2.09-.89-4.83-2.06-7.94-3.39-7.79-3.33-16.32-3.63-23.84-3.89-4.56-.16-8.86-.31-12.62-1.06-2.55-.51-5.03-.77-7.36-.77-7.55,0-13.7,2.75-17.32,7.76-2.71,3.74-5.2,10.44-1.69,21.1,.58,1.75,2.95,6.97,5.26,11.35l.1,.2c-16.8,4.97-30.12,11.29-39.7,18.86-4.3,3.4-7.17,6.55-9.07,9.09-1.47-.1-3.18-.17-5.07-.17-6.32,0-15.77,.83-24.85,4.76-10.86,4.7-18.72,12.57-23.34,23.38-6.16,14.41-4.48,30.71,4.87,47.15,4.04,7.11,8.69,12.77,11.82,16.21-.69,3.18-1.21,7.62-.82,13.26,1,14.39,7.38,30.02,18.95,46.47,17.13,24.36,40.21,43.33,68.58,56.39,24.11,11.1,52.85,18.26,85.42,21.27,3.21,.3,6.48,.45,9.73,.45,41.61,0,74.49-24.08,85.36-33.12,3.22,.96,7.7,1.9,12.83,1.9,9.59,0,23.07-3.33,32.83-19.2,7.9-12.85,7.2-27.24-2.02-41.64-3.88-6.06-8.52-10.85-11.64-13.72,2.24-27.24-5.33-54.94-22.01-80.41-4.98-7.61-10.1-14-14.58-19.03,.19-.15,.37-.31,.55-.48l6.73-6.36c1.11-1.05,1.9-2.4,2.27-3.88,1.11-4.47,.39-11.26-9.39-18.28-1.35-.96-2.7-1.82-3.93-2.55-.03-4.15-.52-10.5-1.98-20.37-3.31-22.45-25.94-36.64-30.06-39.05-2.92-2.22-15.37-10.84-32.53-10.84h0Z"/><path class="e" d="M835.45,327.79s14.22-13.1,30.1-6.2"/><path class="e" d="M943.45,340.19s22.53,4.87,24.96,20.05"/><path class="e" d="M884.14,417.2s-23.84-2.47-15.93-14.16,20.36-1.77,20.36-1.77"/><path class="e" d="M911.58,442.88c-40.66,9.92-63.74-15.05-63.74-15.05,7.14-11.33-1.77-22.13-1.77-22.13"/><path class="e" d="M823.94,431.37s16.88,9.04,23.9-3.54"/><path class="e" d="M933.71,452.61s-26.87,1.22-21.43-18.07c0,0,2.02-9.19,10.81-11.14"/><circle cx="828.75" cy="409.5" r="1.77"/><circle cx="927.9" cy="431.63" r="1.77"/><circle cx="933.21" cy="443.13" r="1.77"/><circle cx="940.29" cy="434.28" r="1.77"/><circle cx="828.75" cy="419.23" r="1.77"/><circle cx="836.71" cy="412.15" r="1.77"/><path class="o" d="M906.27,407.61s4.49-54.91,27.44-52.85c22.96,2.06,20.86,38.94,20.86,38.94l-1.39,19.08s-39.78-10.14-46.92-5.16Z"/><path d="M946.73,361.94c-1.4-1.04-2.9,1.33-3.01,2.29-.12,1.09,.66,2.79,.9,3.86,.82,3.72,3.27,10.04-2.22,11.53-3.58,.97-9.09-1.81-11.38,2.31,.2-.35,6.42,1.85,7.08,2.13,2.39,1.03,4.57,2.54,5.55,5.04,1.16,2.95,.89,6.27,1.19,9.37,.26,2.76,.42,5.56,0,8.32-.38,2.46-.36,2.7-2.42,2.66-2.78-.06-5.78-.93-8.53-1.38l-14.66-2.37h-9.4l-3.55,1.92,5.9-29.74,7.71-16.72,7.34-6.02,9.41,.1c3.36,2.22,6.88,4.3,10.1,6.7Z"/><path class="p" d="M829.85,387.36c.64-4.75,1.34-9.49,2.09-14.22,.52-3.25,1.03-6.5,1.71-9.72,2.37-11.35,11.58-21.9,22.28-25.96,8.15-3.09,16.17,.63,20.91,7.54,6.1,8.87,4.69,19.4,3.08,29.42-.73,4.56-1.53,9.13-2.63,13.62-.64,2.61-1.25,7.15-3.5,8.98,0,0-40.63-14.53-43.95-9.67Z"/><path d="M874.32,341.95c-1.24-.85-4.62,.98-5.6,1.72-1.82,1.37-1.65,2.44-1.48,4.67,.25,3.21,.82,6.46,1.47,9.61,0,0,1.31,6.31-7.6,7.01,0,0-3.71,.47-5.43,1.92s8.66,.53,9.23,7.63c.37,4.62-1.19,11.31-3.13,15.52-.83,1.8-1.08,1.6-3.09,1.38-1.58-.17-3.16-.51-4.72-.81-4.22-.84-8.41-1.82-12.59-2.87-3.29-.83-6.73,.15-9.88-.51-3.5-.74,.3-10.92,.67-13l3.05-17.17,10.84-14.39,12.3-6.3,9.78,1.32,6.17,4.26Z"/><path class="p" d="M844.64,272.67s24.48-5.71,30.63-5.48"/><path class="p" d="M900.73,245.7s99.85,48.75,92.5,67.1l-43.21-11.64c-14.84-4.15-31.99-7.25-44.85-16.13-13.71-9.47-26.43-21.82-36.91-34.72-5.08-6.25-10.94-11.94-17.76-16.25"/><path class="p" d="M910.76,239.29s57.43,26.29,60.52,32.96"/><path d="M962.42,279.98s14.56-18.24,36.89-9.21c0,0,6.37,23.52-3.29,40.18,0,0-13.69-17.52-33.6-30.97Z"/><path d="M757.96,385.84l13.69-51.15-28.82,30.88s4.79,22.02,9.72,20.8,5.41-.53,5.41-.53Z"/><path d="M833.6,504.83l27.34,8.43-8.87,14.42c-10.77,18.59-6.88,24.08-6.88,24.08,3.66,2.54,10.19,2.94,13.98,2.94,1.77,0,2.95-.09,2.95-.09l-12.04,23.93c-18.07-.47-29.18-14.36-29.18-14.36-12.72-9.52,12.71-59.36,12.71-59.36m0-8c-2.94,0-5.73,1.63-7.13,4.36-.27,.53-6.66,13.1-11.55,27.11-4.8,13.75-9.9,32.84,.37,41.64,2.93,3.32,15.43,16.1,34.57,16.6,.07,0,.14,0,.21,0,3.02,0,5.78-1.7,7.15-4.4l12.04-23.93c1.3-2.58,1.11-5.65-.5-8.05-1.49-2.23-3.99-3.55-6.65-3.55-.2,0-.4,0-.6,.02h0s-.94,.07-2.35,.07c-2.76,0-4.88-.23-6.41-.53,.5-2.55,1.98-7.13,6.18-14.4l8.81-14.32c1.3-2.11,1.55-4.7,.67-7.01-.87-2.32-2.77-4.1-5.13-4.83l-27.34-8.43c-.78-.24-1.57-.36-2.36-.36h0Z"/><path d="M887.85,520.19l27.14,4.57-51.57,101.78c24.49,8.57,16.29,37.65,16.29,37.65l-134.56-2.66c-.7-3.88,.25-8.02,1.23-11.77,2.35-8.97,5.18-18.29,12.89-24.07,7-5.25,16.01-7.24,24.55-8.08,3.31-.32,6.63-.46,9.96-.46,6.37,0,12.74,.52,19.04,1.29,1.89,.23,21.31,4.16,23.34,4.16,.1,0,.16,0,.17-.03,.02-.04,51.52-102.39,51.52-102.39m0-8c-2.98,0-5.77,1.67-7.14,4.4,0,0-38.49,76.49-48.93,97.25-3.24-.59-7.35-1.37-10.07-1.89-5.15-.98-7.03-1.34-7.9-1.44-7.42-.91-13.96-1.35-20.02-1.35-3.7,0-7.32,.17-10.73,.5-12.16,1.18-21.5,4.34-28.57,9.64-9.64,7.22-13.11,18.02-15.84,28.45-1.17,4.49-2.34,9.73-1.36,15.2,.67,3.76,3.9,6.51,7.72,6.59l134.56,2.66c.05,0,.11,0,.16,0,3.57,0,6.72-2.38,7.7-5.83,.25-.9,2.45-9.09,1.28-18.74-1.3-10.73-6.36-19.22-14.5-24.63l47.94-94.61c1.15-2.27,1.15-4.95,0-7.22-1.15-2.27-3.3-3.86-5.81-4.28l-27.14-4.57c-.45-.07-.89-.11-1.33-.11h0Z"/><path d="M949.82,541.65c1.01,0,2.08,.08,3.21,.26,16.92,2.59,16.5,19.62,16.5,19.62,0,0,4.74,91.33,1.25,102.66h-51.2s-6.26-33.06,14.53-39.2c0,0-6.08-19.14-4.15-45.84l-34.61,1.43,11.86-23.31h26.9s1.75-15.62,15.71-15.63m0-8h0c-8.65,0-15.78,4.23-20.08,11.91-.71,1.26-1.28,2.52-1.74,3.72h-20.8c-3.01,0-5.77,1.69-7.13,4.37l-11.86,23.31c-1.29,2.53-1.14,5.56,.4,7.95,1.48,2.3,4.02,3.68,6.73,3.68,.11,0,.22,0,.33,0l25.92-1.07c-.2,14.49,1.67,26.16,3.16,33.07-7.54,4.93-12.31,13.69-13.65,25.41-1.16,10.12,.55,19.31,.62,19.69,.72,3.78,4.02,6.51,7.86,6.51h51.2c3.51,0,6.61-2.29,7.65-5.65,.77-2.5,2.57-8.35,1.03-58.18-.7-22.64-1.79-44.32-1.93-46.98,.07-8.43-4.66-24.54-23.29-27.39-1.51-.23-2.99-.35-4.42-.35h0Z"/><polygon points="833.6 504.83 852.06 527.68 860.94 513.26 833.6 504.83"/><polygon points="895.34 580.59 919.11 556.39 905.47 554.02 895.34 580.59"/><polygon points="929.06 579.16 948.48 578.55 928.79 607.06 929.06 579.16"/><polygon points="887.85 520.19 907.92 538.72 914.99 524.76 887.85 520.19"/><path class="p" d="M832.79,620.81s10.22-.93,13.93,6.08"/><path class="p" d="M933.22,624.11s3.31-3.27,8.95-1.16"/></g><g><path d="M705.93,53.64c3.53,0,7.06,.37,10.52,1.06,4.71,.95,9.3,2.49,13.65,4.54,12.62,5.96,20.81,18.3,24.62,31.4,1.95,6.72,2.85,13.78,2.63,20.78-.48,15.04-12.23,26.65-19.74,39.03-2.7,4.45-9.11,11.25-8.88,16.71,.11,2.66,.22,5.32,.33,7.99,.03,.71,.05,1.45-.21,2.12-.74,1.87-3.2,2.21-5.21,2.24-1.15,.02-2.32,.03-3.48,.03-9.52,0-19.33-.53-28.98-.53-2.14,0-4.72-.27-5.65-2.2-.29-.6-.35-1.29-.41-1.95-.43-4.86,.15-10.2-1.14-15.07-1.4-5.27-5.69-9.34-8.87-13.63-7.33-9.92-14.03-20.64-17.32-32.65-2.34-8.54-1.85-17.1,.78-24.97,4.6-13.78,15.73-25.48,29.62-31.4,5.62-2.4,11.67-3.49,17.74-3.49m0-7h0c-7.3,0-14.19,1.36-20.49,4.05-15.79,6.73-28.31,20.05-33.51,35.63-3.18,9.53-3.49,19.57-.89,29.04,3.86,14.09,11.89,26.08,18.44,34.96,.9,1.22,1.85,2.38,2.76,3.49,2.22,2.72,4.31,5.28,4.97,7.76,.62,2.34,.66,5.17,.71,8.16,.03,1.86,.06,3.79,.23,5.74,.08,.91,.23,2.59,1.07,4.36,1.95,4.1,5.97,6.18,11.95,6.19,4.75,0,9.66,.13,14.4,.27,4.79,.13,9.75,.27,14.59,.27,1.2,0,2.4,0,3.59-.03,7.46-.12,10.43-3.69,11.61-6.66,.81-2.06,.73-3.96,.69-4.98l-.16-3.99-.16-3.99c0-1.68,3.41-6.39,4.86-8.41,1.11-1.53,2.15-2.97,3.01-4.38,1.82-2.99,3.92-5.96,6.14-9.11,6.65-9.41,14.19-20.08,14.61-33.33,.25-7.76-.73-15.48-2.9-22.95-4.79-16.49-15.13-29.53-28.35-35.78-4.92-2.32-10.05-4.03-15.26-5.08-3.96-.8-7.97-1.2-11.89-1.2h0Z"/><path d="M724.7,186.73c2.09,0,3.78,1.69,3.78,3.78s-1.69,3.78-3.78,3.78h-35.28c-2.09,0-3.78-1.69-3.78-3.78s1.69-3.78,3.78-3.78h35.28m0-7h-35.28c-5.94,0-10.78,4.84-10.78,10.78s4.84,10.78,10.78,10.78h35.28c5.94,0,10.78-4.84,10.78-10.78s-4.84-10.78-10.78-10.78h0Z"/><path d="M718.4,201.85c1.86,0,3.36,1.5,3.36,3.36s-1.5,3.36-3.36,3.36h-23.52c-1.86,0-3.36-1.5-3.36-3.36s1.5-3.36,3.36-3.36h23.52m0-7h-23.52c-5.71,0-10.36,4.65-10.36,10.36s4.65,10.36,10.36,10.36h23.52c5.71,0,10.36-4.65,10.36-10.36s-4.65-10.36-10.36-10.36h0Z"/><path d="M713.78,216.55c.93,0,1.68,.75,1.68,1.68s-.75,1.68-1.68,1.68h-14.28c-.93,0-1.68-.75-1.68-1.68s.75-1.68,1.68-1.68h14.28m0-7h-14.28c-4.79,0-8.68,3.89-8.68,8.68s3.89,8.68,8.68,8.68h14.28c4.79,0,8.68-3.89,8.68-8.68s-3.89-8.68-8.68-8.68h0Z"/><path d="M657.73,151.71c.79,0,1.59,.3,2.19,.91,1.21,1.21,1.21,3.18,0,4.39l-17.26,17.26c-.61,.61-1.4,.91-2.19,.91s-1.59-.3-2.19-.91c-1.21-1.21-1.21-3.18,0-4.39l17.26-17.26c.61-.61,1.4-.91,2.19-.91m0-7c-2.7,0-5.24,1.05-7.14,2.96l-17.26,17.26c-1.91,1.91-2.96,4.45-2.96,7.14s1.05,5.24,2.96,7.14c1.91,1.91,4.45,2.96,7.14,2.96s5.24-1.05,7.14-2.96l17.26-17.26c3.94-3.94,3.94-10.35,0-14.29-1.91-1.91-4.45-2.96-7.14-2.96h0Z"/><path d="M637.23,103.04c1.71,0,3.1,1.39,3.1,3.1s-1.39,3.1-3.1,3.1h-24.41c-1.71,0-3.1-1.39-3.1-3.1s1.39-3.1,3.1-3.1h24.41m0-7h-24.41c-5.57,0-10.1,4.53-10.1,10.1s4.53,10.1,10.1,10.1h24.41c5.57,0,10.1-4.53,10.1-10.1s-4.53-10.1-10.1-10.1h0Z"/><path d="M639.74,34.71c.79,0,1.59,.3,2.19,.91l17.26,17.26c1.21,1.21,1.21,3.18,0,4.39-.61,.61-1.4,.91-2.19,.91s-1.59-.3-2.19-.91l-17.26-17.26c-1.21-1.21-1.21-3.18,0-4.39,.61-.61,1.4-.91,2.19-.91m0-7c-2.7,0-5.24,1.05-7.14,2.96-1.91,1.91-2.96,4.45-2.96,7.14s1.05,5.24,2.96,7.14l17.26,17.26c1.91,1.91,4.45,2.96,7.14,2.96s5.24-1.05,7.14-2.96c1.91-1.91,2.96-4.45,2.96-7.14s-1.05-5.24-2.96-7.14l-17.26-17.26c-1.91-1.91-4.45-2.96-7.14-2.96h0Z"/><path d="M707.19,7c1.71,0,3.1,1.39,3.1,3.1v24.41c0,1.71-1.39,3.1-3.1,3.1s-3.1-1.39-3.1-3.1V10.1c0-1.71,1.39-3.1,3.1-3.1m0-7c-5.57,0-10.1,4.53-10.1,10.1v24.41c0,5.57,4.53,10.1,10.1,10.1s10.1-4.53,10.1-10.1V10.1c0-5.57-4.53-10.1-10.1-10.1h0Z"/><path d="M774.8,35.09c.79,0,1.59,.3,2.19,.91,1.21,1.21,1.21,3.18,0,4.39l-17.26,17.26c-.61,.61-1.4,.91-2.19,.91s-1.59-.3-2.19-.91c-1.21-1.21-1.21-3.18,0-4.39l17.26-17.26c.61-.61,1.4-.91,2.19-.91m0-7c-2.7,0-5.24,1.05-7.14,2.96l-17.26,17.26c-3.94,3.94-3.94,10.35,0,14.29,1.91,1.91,4.45,2.96,7.14,2.96s5.24-1.05,7.14-2.96l17.26-17.26c1.91-1.91,2.96-4.45,2.96-7.14s-1.05-5.24-2.96-7.14c-1.91-1.91-4.45-2.96-7.14-2.96h0Z"/><path d="M801.9,103.36c1.71,0,3.1,1.39,3.1,3.1s-1.39,3.1-3.1,3.1h-24.41c-1.71,0-3.1-1.39-3.1-3.1s1.39-3.1,3.1-3.1h24.41m0-7h-24.41c-5.57,0-10.1,4.53-10.1,10.1s4.53,10.1,10.1,10.1h24.41c5.57,0,10.1-4.53,10.1-10.1s-4.53-10.1-10.1-10.1h0Z"/><path d="M756.97,151.74c.79,0,1.59,.3,2.19,.91l17.26,17.26c1.21,1.21,1.21,3.18,0,4.39-.61,.61-1.4,.91-2.19,.91s-1.59-.3-2.19-.91l-17.26-17.26c-1.21-1.21-1.21-3.18,0-4.39,.61-.61,1.4-.91,2.19-.91m0-7c-2.7,0-5.24,1.05-7.14,2.96-3.94,3.94-3.94,10.35,0,14.29l17.26,17.26c1.91,1.91,4.45,2.96,7.14,2.96s5.24-1.05,7.14-2.96c1.91-1.91,2.96-4.45,2.96-7.14s-1.05-5.24-2.96-7.14l-17.26-17.26c-1.91-1.91-4.45-2.96-7.14-2.96h0Z"/></g><g><path class="d" d="M255.8,312.62c1.79,.45,3.51,1.92,4.59,3.92,3.03,5.62,3.23,12.23,2.95,18.47-.92,20.26-8.28,14.78-8.3,14.76-7.04-5.26-7.08-15.25-6.68-23.18,.18-3.6,.34-7.62,1.97-10.91,1.37-2.78,3.47-3.57,5.48-3.07Z"/><path class="d" d="M230.08,313.58c5.26-.83,8.02,5.96,8.57,10.03,.85,6.28,.81,13.07-.1,19.32-.37,2.52-.85,6.56-3.09,8.24-3.24,2.42-6.84-1.56-8.24-4.23-3.46-6.59-2.41-14.07-2.02-21.18,.21-3.81-.28-11.37,4.88-12.18Z"/><path class="j" d="M250.42,347.01s-.92,5.54-6.46,.92"/><circle class="q" cx="264.72" cy="350.24" r=".92"/><circle class="q" cx="261.49" cy="352.54" r=".92"/><circle class="q" cx="265.18" cy="355.31" r=".92"/><circle class="q" cx="232.43" cy="354.85" r=".92"/><circle class="q" cx="229.2" cy="357.16" r=".92"/><circle class="q" cx="232.89" cy="359" r=".92"/><path class="d" d="M243.04,365.46s4.61-3.16,7.38-1.12c0,0,7.38,2.96,7.38-3.49,0-2.47-.95-5.8-2.95-7.42-2.39-1.93-5.33-.08-7.33,1.51-1.2,.95-4.92,4.12-6.59,3.14"/><path class="q" d="M251.76,355.45c.66-.29,1.48-.16,2.28,.63,1.24,1.23,1.44,3.85,.8,5.4-.11,.26-.25,.52-.48,.69-1.87,1.35-3.89-2.67-4-3.86-.12-1.3,.5-2.46,1.4-2.85Z"/><path class="q" d="M254.11,316.56s5.54,1.85,5.54,6.46c0,4.61-1.25,8.45-1.25,8.45-.18,1.98-.21,4.14,.25,6.08,.31,1.31,1.24,2.11,1.6,3.35,.5,1.71,.25,4.73-1.52,5.65-1.61,.84-2.86-.56-3.53-1.92-2-4.08-2.42-5.88-2.42-5.88,0,0-.5-5.58,.42-9.28s-.42-7.52-.42-7.52c0,0-2.34-5.4,1.35-5.4Z"/><path class="q" d="M230.14,317.6c.08-.02,.16-.04,.24-.05,.64-.08,1.64,.46,2.16,.77,3.09,1.82,3.28,5.68,2.65,8.85-1.85,9.23,.31,12.78,.31,12.78,0,0,2.46,8.43-2.16,8.43-5.09,0-5.22-7.48-4.57-10.88,.46-2.42,.89-4.85,1.21-7.29,.15-1.18,.86-3.8,.13-4.9-.78-1.17-1.48-2.53-1.86-3.88-.37-1.35,.44-3.44,1.88-3.83Z"/><path class="q" d="M217.35,245.5c4.5,0,45.07,38.72,45.07,38.72,3.03,2.9,4.68,9.56,6,13.42,4,11.74,5.94,23.96,7.55,36.21,1.13,8.63,2.64,16.89,2.64,25.67,0,9.38-.8,18.73-1.42,28.07,3.48,0,4.84,3.59,3.21,6.34-.09,.15-1.65,2.02-2.16,2.02-.05,0-.09-.02-.12-.06,1.84,2.77-.92,5.53-.92,5.53,.92,4.61-1.85,14.76-9.23,23.07-5.18,5.83-15.18,8.91-24.63,8.91-6.45,0-12.64-1.43-16.89-4.39-5.26-3.66-8.97-7.01-9.66-13.52-.1-.94,.83-8.14,.44-8.52l-1.85-1.85c-1.85-2.77,0-5.54,0-5.54-3.38-2.25-1.87-6.44,1.85-6.82,4.4-.44,.45-47.25-.09-51.4-1.24-9.39-5.1-18.87-7.93-27.86-2.2-7-4.44-13.98-6.74-20.95-1.85-17.53,14.76-47.05,14.76-47.05,.04-.01,.09-.02,.14-.02m0-8c-.71,0-1.41,.09-2.08,.25l-3.34,.84-1.69,3c-1.83,3.25-17.8,32.31-15.75,51.81l.09,.85,.27,.81c2.2,6.67,4.39,13.49,6.7,20.84,.74,2.35,1.55,4.73,2.33,7.04,2.2,6.5,4.48,13.22,5.3,19.47,.79,5.97,2.77,34.72,1.86,44.21-2.57,1.6-4.49,4.11-5.23,7.09-.65,2.61-.34,5.27,.78,7.61-.23,2.68,.34,5.58,2.11,8.24l.43,.65c-.04,.47-.08,.93-.11,1.29-.25,2.74-.33,3.75-.21,4.85,1.08,10.12,7.3,15.24,13.05,19.24,5.39,3.75,13.02,5.82,21.46,5.82,9.82,0,23.01-3.04,30.61-11.59,7.7-8.66,11.3-18.93,11.4-26.19,.74-1.46,1.24-3.09,1.37-4.79,.21-.28,.4-.56,.56-.83,2.32-3.91,2.4-8.71,.23-12.53-.55-.96-1.21-1.82-1.98-2.57,.53-7.62,1.08-15.49,1.08-23.39,0-7.45-1-14.48-1.96-21.27-.25-1.8-.51-3.61-.75-5.43-1.86-14.18-3.91-26.03-7.91-37.76-.22-.63-.44-1.35-.68-2.11-1.51-4.78-3.38-10.72-7.36-14.52h-.01c-2.85-2.81-14.12-13.29-20.99-19.51-6.31-5.71-11.55-10.27-15.58-13.57-7.45-6.1-10.59-7.86-14.01-7.86h0Z"/><path class="d" d="M233.35,257.55s-9.87,13.83-24.08,4.59"/><path class="d" d="M262.41,284.22s-2.77,10.19-16.61-2.72c.53,4.21-.09,15.85-6.92,14.63-.94-.17-1.73-.77-2.47-1.37-3.18-2.63-5.8-5.44-7.99-8.82,.76,4.61,1.44,11.9-4.02,13.97-6.3,2.38-9.43-7.9-10.99-12.04-.93,3.19-6.05,9.06-10.1,7.37"/><path class="d" d="M278.56,384.37s-27.78,27.56-62.28,6.66"/><path class="d" d="M282.25,393.6s-26.12,22.02-71.04,4.63"/><path class="d" d="M280.41,400.98s-26.83,22.09-64.58,6.31"/><path class="q" d="M273.03,432.81s19.38,16.61,20.3,24.91c.92,8.3-11.07,15.68-11.07,15.68l-2.77,2.77s2.77,8.3,0,10.15c-1.38,.92-2.31,1.15-2.88,1.15s-.81-.23-.81-.23v2.77c0,.06,6.16,2.99,6.65,3.36,3.78,2.85,4.93,7.9,3.71,12.46-1.22,4.53-6.72,5.35-11.31,5.35-1.26,0-2.45-.06-3.46-.13-7.2-.46-13.76-3.78-18.65-9.05-11.99-12.92,9.23-27.68,9.23-27.68,0,0,.57-5.09,6.12-5.09,1.54,0,3.47,.39,5.88,1.4,0,0,12.92-7.38,10.15-15.68l-16.91-17.64,5.84-4.51m.27-10.31l-5.15,3.97-5.84,4.51-7.05,5.44,6.17,6.43,14.71,15.34c-.6,.99-1.88,2.35-3.44,3.62-1.6-.38-3.12-.57-4.61-.57-6.53,0-11.05,3.76-13.02,8.31-1.34,1.1-3.11,2.65-4.93,4.57-5.32,5.61-8.33,11.36-8.95,17.1-.64,5.92,1.33,11.54,5.69,16.24,6.41,6.9,14.93,11.02,24.01,11.59,1.04,.07,2.44,.14,3.97,.14,13.92,0,17.9-7.07,19.03-11.28,2.08-7.73-.23-15.6-5.89-20.35,.69-2.07,.96-4.75,.44-8.19-.02-.14-.04-.28-.07-.43,4.6-3.25,14.1-11.35,12.91-22.11-.61-5.45-4.51-11.68-12.66-20.21-5.17-5.42-10.17-9.71-10.38-9.89l-4.94-4.23h0Z"/><path class="q" d="M218.52,433.73s8.51,7.99,13.34,7.99c.16,0,.32,0,.48-.03,0,0,10.26,16.95,8.41,21.57-1.85,4.61-11.99,11.07-11.99,11.07l-1.85,.92s4.61,6.46-.92,8.3c0,0-1.24,.41-2.34,.41-.55,0-1.06-.1-1.36-.41v5.28s12.01,8.56,8.32,16.87c-1.42,3.19-5.01,3.98-8.49,3.98-1.7,0-3.37-.19-4.74-.38-7.12-1-12.57-3.12-17-8.96-4.49-5.92-6.03-13.32-1.14-19.54l11.99-11.99s.71-4.94,5.83-4.94c.73,0,1.55,.1,2.48,.33,0,0,2.77,.92,4.61,3.69,0,0,11.07-4.61,9.23-11.07,0,0-14.93-19.38-14.85-23.07m-7.58-18.03l-.42,17.84c-.05,2.11-.14,5.92,13.15,23.71-.77-.37-1.35-.58-1.62-.67l-.29-.1-.3-.07c-1.51-.38-3-.57-4.42-.57-6.52,0-11.05,4.02-12.92,8.72l-10.56,10.56-.34,.34-.3,.38c-6.65,8.46-6.25,19.7,1.05,29.32,6.71,8.85,15.42,11.09,22.26,12.05,1.41,.2,3.55,.46,5.86,.46,10.37,0,14.35-5.47,15.8-8.73,3.44-7.74,0-15.25-4.57-20.68,1.28-1.25,2.24-2.77,2.8-4.51,.57-1.77,.67-3.5,.48-5.11,4.18-3.03,9.65-7.68,11.55-12.42,1.75-4.38,.67-9.88-3.74-18.97-2.47-5.09-5.14-9.52-5.25-9.7l-2.68-4.43-4.45,.54c-1.65-.61-5.39-3.27-8.06-5.77l-13.04-12.19h0Z"/><path class="d" d="M278.56,489.09s-3.23,0-6-1.85"/><path class="d" d="M261.03,473.41s-.05,3.28,1.59,5.33"/><path class="d" d="M224.13,485.26s-1.64,1.82-6-3.63"/><path class="d" d="M210.3,466.95s-.48,4.61,1.37,5.54"/><path class="d" d="M224.13,487.91s-4.23-1.59-6.96,.26"/></g><g><path class="g" d="M1116.65,373.08s12.71-.45,15.66,2.27c0,0,5.67-29.28-4.09-30.41-9.76-1.13-11.58,28.14-11.58,28.14Z"/><path class="g" d="M1151.83,374.45s-.45-29.05,11.58-28.14c12.03,.91,4.77,30.19,4.77,30.19,0,0-10.89-3.63-16.34-2.04Z"/><path d="M1119.59,373.06c.3-2.39-.23-8.45,1.15-10.35,.88-1.21,4.25-1.95,5.66-2.58-1.13-.82-2.27-1.65-3.39-2.48,.13-3.42,3.99-3.63,5.62-1.34,.85,1.2,1.52,3.58,1.41,5.08l-1,12.56s-6.5-.91-9.44-.89Z"/><path d="M1155.01,373.95l1.36-10.85,4.72-1.71-3.04-3.51s1.95-3.18,4.45-1.59,2.72,8.08,2.72,8.08c0,0,.14,8.71-1.07,10.98,0,0-5.97-1.91-9.15-1.41Z"/><path class="h" d="M1143.47,376.48c1.91,.16,3.81,.51,5.6,.95,3.87,.93,10.23,2.96,10.14,7.92-.14,7.6-12.15,4.28-12.15,4.28-2.5-.19-5.01-.33-7.52-.44-2.14-.09-4.28-.16-6.42-.17-2.65,0-5.23-.43-5.41-3.64-.16-2.94,2.82-5.23,4.99-6.66,3.19-2.11,7.01-2.56,10.78-2.24Z"/><path class="l" d="M1135.26,377.41s.89,5.04,2.69,4.62,3.18-5.65,3.18-5.65c0,0-3.3-.28-5.86,1.02Z"/><path class="l" d="M1144.72,376.61s0,7.26,2.07,6.76,2.29-5.94,2.29-5.94c0,0-3.11-.68-4.35-.81Z"/><path class="e" d="M1135.26,392.84s4.71-2.14,11.64,0"/><path class="e" d="M1114.44,350.85s.92-5.97,7.35-5.94"/><path class="e" d="M1116.65,340.65s-.43,3.91,.58,5.63"/><path class="e" d="M1112.78,387.14s2.14,10.68,10.68,5.22"/><path class="e" d="M1116.56,393.92s-4.29,5.33,0,8.17"/><path class="e" d="M1096.88,382.06s-3.56,1.76-3.8,5.09"/><path class="e" d="M1093.09,380.98s-.55,1.79,.91,3.63"/><path class="e" d="M1141.12,398s2.89,.77,2.34,5.27"/><path class="e" d="M1145.99,398s-.06,2.14-2.64,2.64"/><path class="e" d="M1196.52,375.35s1.19,3.25,0,5.62"/><path class="e" d="M1200.58,374.93s-1.13,3.32-3.29,2.81"/><path class="e" d="M1182.05,393.92s5.22-1.79,5.69-6.77"/><path class="e" d="M1186.5,390.53s3.62,1.6,2.9,5.15"/><path d="M1134.99,313.4c.54,0,1.08,.03,1.61,.09,4.51,.54,7.83,5.35,10.3,8.65,0,0,2.42-7.38,11.2-7.38,.92,0,1.92,.08,2.99,.26,11.24,1.9,12.19,12.81,12.19,12.81,0,0,3.27-1.9,6.71-1.9,1.72,0,3.49,.47,4.91,1.9,4.27,4.27,3.1,12.81,3.1,12.81,0,0,10.18,0,13.98,10.2s-3.04,13.53-3.04,13.53c0,0,7.55,.47,8.26,8.06s-4.27,8.54-4.27,8.54c0,0,14,5.85,8.07,18.34,0,0-.76,4.13-10.67,4.13-1.14,0-2.41-.05-3.8-.18,0,0-2.1,12.1-14.12,12.1-.12,0-.23,0-.35,0-12.34-.24-13.28-7.35-13.28-7.35,0,0-1.41,10.45-11.99,10.45-.92,0-1.9-.08-2.96-.25,0,0-6.02-.71-6.92-4.74,0,0-4.69,5.54-12.53,5.54-1.35,0-2.79-.16-4.32-.55-10.4-2.62-10.46-9.03-10.46-9.03,0,0-3.64,6.5-10.55,6.5-1.12,0-2.33-.17-3.62-.57-9.25-2.85-10.44-12.1-10.44-12.1,0,0-2.7,1.32-5.87,1.32-3.99,0-8.73-2.08-9.79-11.48-1.9-16.88,10.91-19.16,10.91-19.16,0,0-8.78-7.18-4.98-18.1,2.46-7.09,7.72-8.33,11.11-8.33,1.84,0,3.13,.37,3.13,.37,0,0-6.17-11.26,.95-17.19,4.59-3.82,8.59-5.58,12.15-5.58,1.96,0,3.8,.53,5.52,1.54,1.24-2.73,2.87-5.4,4.77-7.72,2.77-3.38,7.59-5.53,12.1-5.53m0-8h0c-7.01,0-14.01,3.24-18.29,8.46-.86,1.05-1.68,2.16-2.45,3.32-.55-.05-1.1-.07-1.66-.07-5.62,0-11.27,2.43-17.27,7.43-5.47,4.56-6.76,10.69-6.21,16.29-5.25,2.04-9.31,6.36-11.41,12.39-2.45,7.07-1.4,13.33,.85,18.19-4.05,3.74-8.52,10.66-7.18,22.6,1.94,17.25,14.07,18.59,17.74,18.59,.29,0,.58,0,.86-.02,2.45,4.22,6.57,8.44,13.1,10.45,1.99,.61,4,.92,5.97,.92,3.63,0,6.67-.98,9.15-2.35,2.3,1.81,5.49,3.53,9.9,4.64,2.08,.53,4.19,.79,6.27,.79,4.77,0,8.72-1.36,11.74-2.99,.47,.25,.96,.49,1.47,.7,2.25,.95,4.28,1.3,5.09,1.41,1.4,.22,2.78,.33,4.1,.33,6.26,0,10.75-2.3,13.88-5.39,3.15,1.44,6.91,2.21,11.24,2.29,.17,0,.34,0,.5,0,10.46,0,16.55-6.09,19.63-11.96,11.54-.5,15.22-6.05,16.37-9.05,3.06-6.73,2.14-12.24,.81-15.71-1.13-2.94-2.88-5.33-4.74-7.23,.67-2.14,.98-4.7,.69-7.73-.41-4.4-2.2-7.82-4.66-10.31,.91-3.35,1.03-7.79-1.03-13.32-2.87-7.72-8.39-11.84-13.53-13.83-.48-3.9-1.86-8.52-5.39-12.05-2.77-2.77-6.43-4.24-10.57-4.24-.59,0-1.18,.03-1.75,.09-2.77-4.82-7.7-9.52-15.82-10.89-1.47-.25-2.92-.37-4.32-.37-4.63,0-8.32,1.31-11.19,3.19-2.92-2.53-6.06-4.01-9.36-4.41-.84-.1-1.7-.15-2.56-.15h0Z"/><path class="e" d="M1146.9,322.14l.99,4.27s4.99-2.14,7.12,0,2.37,4.51,2.13,6.41,2.98,0,2.98,0c0,0,3.19-1.19,3.19,3.08s1.92,3.08,1.92,3.08c0,0,3.3-2.37,3.54,3.32,0,0-.24,2.14,3.32,0"/><path class="e" d="M1146.9,413.48l2.18-3.56s5.93,3.56,8.54-5.22"/><path d="M1121.52,421.13c1.9,1.46,8.13,2.81,8.13,2.81-1.75,3.29,2.88,42.5,2.88,42.5,8.69,3.21,4.56,5.46,4.56,5.46l3.71,9.25c3.71,10.91-3.71,14-3.71,14,0,0-11.9,3.7-20.53,3.7-5.37,0-9.47-1.43-8.65-6.07,2.14-12.1,13.25-13.52,13.25-13.52l2.08-3.8c-5.54-1.9,1.73-7.12,1.73-7.12-2.15-1.66-3.45-47.2-3.45-47.2m-8.48-16.6l.48,16.83c0,.11,.34,11.61,.93,23.16,.35,6.84,.73,12.39,1.11,16.49,.17,1.81,.34,3.38,.53,4.78-1.64,2.05-3.01,4.7-2.93,7.77-5.48,2.76-11.44,8.22-13.13,17.82-.68,3.87,.22,7.54,2.55,10.31,2.91,3.47,7.48,5.15,13.98,5.15,9.57,0,21.57-3.64,22.9-4.06l.35-.11,.34-.14c4.96-2.06,13.06-9.72,8.21-23.96l-.07-.2-.08-.2-2.35-5.86c.17-.83,.23-1.68,.17-2.54-.31-4.33-3.23-7.03-6.08-8.72-1.61-14.35-2.95-29.98-2.7-34.4l4.41-8.3-10.33-2.24c-1.95-.42-4.34-1.13-5.22-1.54l-13.08-10.05h0Z"/><path d="M1168.68,418.77c1.28,3.06,.42,8.35,.61,11.85,.22,4.04,.57,8.07,.99,12.1,.84,8.03,1.96,16.02,2.91,24.04,8.78,2.85,5.69,6.41,5.69,6.41l2.14,4.74c8.07,1.66,11.72,15.66,11.72,15.66-3.23,5.69-14.33,7.59-14.33,7.59,0,0-.63,.03-1.65,.03-3.92,0-13.64-.45-15.9-4.77-2.85-5.46,3.51-19.69,3.51-19.69-7.88-2.14,.53-8.07,1.71-8.78,2.42-1.45-1.23-21.46-1.47-24.05-.49-5.16-1.01-10.33-1.54-15.49-.12-1.16-.83-3.46-.48-4.58,.07-.22,.22-.48,.43-.77,1.34-1.84,3.54-3.61,5.68-4.29m4.56-9.85l-6.99,2.22c-3.64,1.16-7.27,3.85-9.72,7.19-.75,1.02-1.27,2.04-1.61,3.11-.85,2.72-.33,5.31,.05,7.21,.05,.23,.09,.45,.12,.64,.58,5.6,1.08,10.63,1.53,15.35,.06,.69,.21,1.65,.5,3.58,1.1,7.25,1.69,12.29,1.77,15.05-2.9,2.44-6.53,6.65-5.79,11.99,.13,.96,.52,2.56,1.62,4.2-.3,.89-.6,1.83-.88,2.81-2.29,7.89-2.32,13.55-.1,17.82,3.14,6.02,10.88,9.07,22.99,9.07,1.18,0,1.96-.04,2.04-.04l.48-.02,.48-.08c2.48-.42,15.08-2.97,19.94-11.53l1.6-2.82-.82-3.14c-.7-2.7-4.28-14.73-13.07-19.68,.02-.97-.09-1.98-.38-3.02-1.05-3.76-3.82-6.13-6.45-7.62-.2-1.6-.4-3.18-.6-4.74-.61-4.79-1.24-9.75-1.74-14.6-.47-4.48-.77-8.2-.96-11.69-.04-.77,0-1.9,.04-3.1,.13-3.61,.28-7.71-1.25-11.4l-2.82-6.77h0Z"/><path class="e" d="M1121.54,475.74s4.12,1.3,6.57,0"/><path class="e" d="M1138.64,470.51s-.65,2.02-3.1,2.75"/><path class="e" d="M1120.18,478.66s3.94-.68,6.54,1.04"/><path class="e" d="M1161.84,476.72s2.01,.6,5.2-.99"/><path class="e" d="M1181.52,471.23s-1.72,3.18-4.42,2.57"/><path class="e" d="M1181.52,477.41s-7.95-.57-12.77,2.62"/></g><g><path class="d" d="M1278.35,506.61s2.8,1.86,5.59,.93"/><path class="d" d="M1260.64,498.22s9.32-13.99,16.78,1.86c0,0,3.8,7.46,9.83,0,4.6-5.69,9.75-5.59,9.75-5.59,9.32,1.86,8.39,9.32,8.39,9.32"/><ellipse class="q" cx="1283.02" cy="494.03" rx="2.8" ry="2.33"/><path class="d" d="M1265.2,492.84s-2.7-22.59,5.69-25.39,6.53,19.58,6.53,19.58c0,0-.33,5.12-1.1,9.09,0,0-6.56-7.73-11.13-3.28Z"/><path class="q" d="M1266.61,473.17c1.23,1.73,2.45,3.45,3.68,5.18,.68,.96,1.7,1.68,1.23,2.83-.17,.41-3.11,4.03-3.29,3.91,.52,.36,1.56,.35,2.16,.46,1.68,.3,1.5,1.24,1.52,2.77,0,.34,.18,4.13-.09,4.21l-6.63,1.25-.41-12.33,1.82-8.28Z"/><path class="f" d="M1291.81,495.43c-.05-2.82-.02-5.64,.06-8.46,.12-4.25-.03-9.18,1.38-13.25,1.02-2.93,3.25-5.34,6.55-5.34,4.66,0,4.66,7.46,4.66,7.46,0,0,.06,18.17-1.37,21.21,0,0-6.21-4.4-11.28-1.62Z"/><path class="q" d="M1293.26,473.72l3.52,4.83c.53,.73,1.31,1.51,1.69,2.33,.71,1.53-2.48,4.16-3.32,5.22l1.88,.43c.87,.2,1.58,.13,1.84,1.1,.21,.78,0,1.88,0,2.68v4.13s-5.72-.87-7.05,.99c0,0-.44-21.97,1.44-21.71Z"/><path class="d" d="M1290.44,447.48c-6.33-.44-12.88,1.52-17.91,5.9-9.55,8.32-14.44,21.82-16.52,34-1.92,11.21-.37,23.27,5.75,32.86,2.82,4.43,6.77,8.4,11.77,10.01,3.42,1.1,7.15,1.03,10.64,.19,8.68-2.08,15.76-8.71,20.13-16.5,4.36-7.79,6.32-16.68,7.64-25.51,1.62-10.8,2.11-22.78-4.3-31.62-4.16-5.74-10.56-8.85-17.2-9.32Z"/><path class="d" d="M1298.95,522.59s16.23,20.86,17.16,29.25"/><path class="d" d="M1276.33,532.25s-4.96,21.45-3.1,27.97"/><path class="d" d="M1307.54,508.72s26.3,8.62,28.16,17.01"/><path class="d" d="M1311.94,488.42s27.3,1.89,30.19,7.01"/><path class="d" d="M1312.89,473.17s28.4-6.18,34.93-2.45"/><path class="d" d="M1307.64,456.8s17.8-20.59,25.26-19.65"/><path class="d" d="M1292.96,446.96s5.44-27.53,10.1-29.39"/><path class="d" d="M1264.79,418.57s11.24,32.36,12.63,31.53"/><path class="d" d="M1235.93,448.34s24.15,14.5,28.86,13.31"/><path class="d" d="M1226.6,477.24s29.05,5.79,30.84,3.36"/><path class="d" d="M1226.6,508.72s28.36-3.76,28.63-5.97"/><path class="d" d="M1261.76,520.24s-25.83,14.81-27.69,21.34"/><path class="q" d="M1304.09,402.59c.94,0,1.95,.12,3.02,.36,6.35,1.46,8.09,9.61,8.57,15.15,.69,8.02-2.06,16.48-7.02,22.78,0,.01-7.46,9.33-7.46,9.33l1.86,.93,9.32-11.19s11.19-10.26,16.78-14.92c2.31-1.92,4.59-2.74,6.73-2.74,7.12,0,12.51,9.13,10.99,16.72-1.87,9.33-17.72,17.72-17.72,17.72-5.29,2.8-10.34,6.18-15.46,9.3-.31,.17-.59,.34-.83,.5,.28-.17,.55-.33,.83-.5,5.26-2.9,21.23-7.55,32.95-7.55,7.98,0,13.99,2.16,13.28,8.51-1.66,14.92-14.84,15.75-17.76,15.75-.37,0-.57-.01-.57-.01-3.89,0-7.79,.07-11.69,.07-5.55,0-11.1-.15-16.61-.89l-.93,2.8,7.46-.93c1.2-.15,2.46-.22,3.76-.22,7.24,0,15.69,2.14,22.15,4.18,7.37,2.34,13.48,7.07,11.48,15.59-1.33,5.67-6.44,7.8-11.68,7.8-2.44,0-4.92-.46-7.05-1.25-3.07-1.13-28.65-8.42-27.97-11.19l-1.24,5.03c.16-.15,.52-.22,1.03-.22,4.43,0,20.44,5.22,20.44,5.22,7.25,2.5,13.78,6.78,19.09,12.29,6.09,6.33,2.79,12.59-4.33,16.2-1.76,.89-3.54,1.28-5.33,1.28-8.48,0-17-8.67-23.54-12.37-4.66-2.64-9.46-5.11-13.73-8.37-.18-.14-.35-.27-.52-.4,.17,.14,.35,.27,.52,.4,5.52,4.24,12.41,8.85,16.58,14.35,3.14,4.14,7.96,12.72,8.75,17.87,0,0,.93,12.12-5.59,14.92-1.18,.51-2.34,.74-3.45,.74-8.3,0-14.7-12.65-17.84-18.38-3.57-6.52-6.13-13.47-9.09-20.27l-5.05,3.94c.93,5.18,.93,13.47-.44,25.14-1.37,11.67-4.22,14.44-10.44,17.59-1.23,.62-2.44,.9-3.6,.9-3.48,0-6.58-2.46-8.89-5.4-3-3.82-2.48-7.99-1.48-12.47,.79-3.53,1.87-7.05,3.18-10.42l4.76-15.33c-3.65,8.57-9.89,17.24-12.12,26.23-.81,3.28-1.51,6.59-2.13,9.91l14.39,14.62s2.8-4.66,7.46-4.66,4.66,6.53,4.66,6.53c0,0,8.39,6.53,12.12,11.19,4.5,5.63-3.54,15.44-7.31,19.58-5.42,5.96-13.42,10.26-21.6,10.26-5.6,0-5.6-7.46-4.66-13.05,.93-5.59,7.46-11.19,7.46-11.19l-.64-2.8s-.96,.41-2.15,.41c-.6,0-1.25-.1-1.87-.41-1.5-.75-.78-4.62-.66-5.87,.26-2.76,.82-3.59-.75-5.84-3.36-4.84-9.46-6.93-12.4-12.39-2.82-5.24-3.64-11.84-1.2-17.38,4.48-10.21,9.43-21.1,16.86-29.37h0c-.53,.59-16.77,18.63-16.77,18.63-4.42,3.98-8.62,5.02-11.83,5.02-3.56,0-5.89-1.29-5.89-1.29,0,0-7.46-4.66-1.86-13.99,5.59-9.32,29.55-20.07,29.55-20.07-.52-1.75-1.95-2.36-3.75-2.36-3.38,0-8.05,2.19-10.33,3.16-3.84,1.62-7.61,2.7-11.8,2.91-1.03,.05-2.56,.14-4.21,.14-3.04,0-6.5-.29-8.16-1.6-.01,0-8.08-6.42-2.93-15.77,3.41-6.18,14.21-7.33,20.35-8.21,5.52-.79,11.19-1.3,16.78-1.3,.17,0,.35,0,.52,0,.13-.69-.03-1.75-.31-2.27,.24,.44-3.5,.56-6.74,.56-2.2,0-4.17-.05-4.51-.1-2.89-.36-5.76-.63-8.65-.91-5.3-.51-11.5-1.3-14.31-6.5-.02-.03-5.48-10.15,2.9-14.8,1.76-.98,4.38-1.36,7.43-1.36,11.47,0,28.94,5.48,28.94,5.48l.29-2.52-21.76-7.8c-5.66-2.99-11.56-7.95-10.58-15.02,.7-5.05,4.31-9.48,9.33-10.65,1.14-.26,2.3-.39,3.48-.39,10.88,0,23.07,10.57,27.45,19.37-.03-.06-8.9-17.91-8.9-17.91,0,0-12.36-29.81,5.31-30.41,.13,0,.26,0,.38,0,17.33,0,20.29,40.25,20.29,40.25h2.24l1.38-6.08c2.07-9.12,.2-38.29,15.01-38.29m0-8c-11.57,0-16.55,9.84-18.48,15.71-.27,.82-.52,1.67-.75,2.52-4.11-7.75-10.34-14.11-19.69-14.11-.22,0-.44,0-.66,.01-6.11,.21-11.12,2.88-14.11,7.52-4.1,6.37-3.47,15.33-1.88,22.54-2.52-.72-5.06-1.12-7.59-1.12h0c-1.81,0-3.59,.2-5.29,.6-8.06,1.87-14.27,8.84-15.44,17.34-.46,3.34-.27,8.53,3.46,13.84-1.38,.38-2.62,.87-3.74,1.49-10.03,5.57-10.64,17.09-6.06,25.59,.95,1.76,2.1,3.23,3.37,4.44-2.61,1.63-4.88,3.78-6.46,6.64-6.67,12.1,.33,22.23,4.97,25.9,2.39,1.9,5.57,2.93,10.07,3.23-1.31,1.38-2.42,2.79-3.27,4.21-7.07,11.78-1.19,21.34,4.48,24.89l.17,.11,.18,.1c.69,.38,4.41,2.3,9.77,2.3,.84,0,1.77-.05,2.77-.17-1.19,6.22-.11,13.03,3.13,19.06,2.4,4.46,5.94,7.22,8.79,9.43,1.43,1.11,2.7,2.1,3.57,3.08-.05,.36-.09,.75-.13,1.18-.01,.1-.03,.23-.05,.38-.26,2.1-.85,6.81,1.58,10.37-1.64,2.47-3.07,5.4-3.6,8.53-1.34,8.04-.33,14.11,3.01,18.05,2.36,2.79,5.75,4.32,9.54,4.32,9.9,0,20.19-4.81,27.52-12.88,13.89-15.28,11.82-24.72,7.63-29.96-2.93-3.67-7.88-7.96-10.91-10.46-.13-.54-.3-1.11-.5-1.69-.35-.99-.79-1.91-1.3-2.75,3.7-4.07,5.53-9.46,6.52-17.85,.18-1.49,.33-2.94,.47-4.35,4.17,7.66,11.72,20.99,24.01,20.99,2.24,0,4.46-.47,6.61-1.38,10.8-4.63,10.92-19.67,10.36-23.45-.14-.91-.35-1.85-.62-2.82,1.51,.33,3.06,.51,4.65,.51,3.13,0,6.14-.72,8.95-2.14,6.57-3.33,10.72-8.32,11.69-14.05,.81-4.78-.71-9.64-4.29-13.82,4.29-2.39,7.31-6.3,8.49-11.32,1.85-7.88-.53-14.76-6.49-19.66,4.77-3.61,8.44-9.29,9.37-17.63,.61-5.52-1.53-9.22-3.43-11.34-3.19-3.56-8.04-5.52-14.79-5.96,2.42-2.98,4.33-6.34,5.06-9.99,1.31-6.57-.59-13.97-4.97-19.32-3.69-4.5-8.61-6.98-13.87-6.98-4.14,0-8.24,1.59-11.85,4.59-.1,.08-.2,.16-.3,.25-.02-.57-.06-1.14-.1-1.71-1.43-16.76-9.86-21.14-14.75-22.26-1.64-.38-3.26-.57-4.81-.57h0Z"/><path class="q" d="M1341.04,549.04l15.53,4.66c4.32,12.5,3.46,25.66-1.4,37.82-.64,1.6-1.24,3.01-2,4.04-.81,1.1-1.81,1.76-3.24,1.76-.82,0-1.77-.22-2.91-.69-3.32-1.38-7.1-4.78-8.78-7.99-3.42-6.52-.44-12.65,2.74-18.44-.92,1.15-1.83,2.35-2.74,3.53l-2.55-4v-17.46l5.34-3.23m-1.1-8.68l-3.04,1.83-5.34,3.23-3.86,2.33v24.31l1.25,1.97,.92,1.44c-1.49,4.91-1.91,10.78,1.29,16.89,2.55,4.85,7.69,9.54,12.79,11.66,2.11,.88,4.06,1.3,5.98,1.3,3.84,0,7.27-1.77,9.66-4.99,1.35-1.82,2.23-3.88,3.01-5.84,5.8-14.53,6.33-29.54,1.53-43.4l-1.34-3.87-3.92-1.18-15.53-4.66-3.4-1.02h0Z"/><path class="k" d="M1292.96,560.23s3.58,3.67,11.5,2.77"/><path class="m" d="M1338.25,573.73s1.18-3.24,4.91-6.04"/><path class="m" d="M1265.77,601.26s7.5-6.01,14-3.01"/><path class="m" d="M1267.92,598.46s2.53-.75,4.85-3.17"/><path class="m" d="M1283.48,582.61s.93,1.86-.93,3.73"/></g><g><path class="d" d="M105.02,495.52c.61-3.3,5.45-5.75,7.55-2.95,2.61,3.5-.65,7.16-4.07,7.75"/><path class="d" d="M120.48,504.02s-11.6,10.05-21.64,3.09"/><path class="d" d="M90.1,509.56s13.41,2.51,6.43-9.25"/><circle class="q" cx="92.26" cy="502.09" r=".77"/><circle class="q" cx="89.56" cy="504.79" r=".77"/><circle class="q" cx="94.19" cy="505.56" r=".77"/><path class="d" d="M120.39,452.44c2.12,.42,4.21,1.62,5.93,3.3,4.43,4.32,6.25,10.54,6.52,16.58,.21,4.59-.16,9.56-2.06,13.88-1.21,2.74-3.56,6.76-6.8,7.11-6.13,.65-10.72-5.05-12.61-10.15-.38-1.02-.69-2.06-.95-3.11-1.79-7.17-2.17-17.81,2.29-24.34,2.03-2.98,4.87-3.82,7.67-3.27Z"/><path class="d" d="M90.33,454.36s12.37,.96,12.37,20.28c0,19.33-7.73,20.52-7.73,20.52,0,0-9.28,2.67-13.14-9.7-3.87-12.37-.77-22.42-.77-22.42,0,0,3.09-9.64,9.28-8.69Z"/><path class="q" d="M129.47,420.96c13.01,0,25.78,11.77,30.09,23.25,3.33,8.89,3.12,18.9,.78,28.01-.34,1.33-.71,2.68-1.21,3.96-4.55,11.76-9.62,23.87-17.34,34.09-8.67,11.47-21.36,20.24-32.13,29.65-13.79-8.72-29.4-16.88-40.4-29.22-13.22-14.83-28.59-36.64-23.71-57.96,2.83-12.34,15.38-22.98,27.52-25.26,1.06-.2,2.14-.29,3.22-.29,6.15,0,12.44,3.03,17.06,6.78,2.83,2.29,10.49,10.24,9.35,14.52,3.01-11.22,10.88-25.15,23.33-27.24,1.15-.19,2.3-.28,3.45-.28m0-8c-1.6,0-3.2,.13-4.76,.39-7.66,1.28-14.66,5.86-20.26,13.25-.98,1.29-1.92,2.68-2.8,4.13-1.74-1.75-3.08-2.84-3.26-2.99-6.72-5.44-14.77-8.56-22.09-8.56-1.6,0-3.18,.15-4.7,.43-15.89,2.99-30.43,16.46-33.84,31.34-2.6,11.36-.69,23.72,5.68,36.72,4.45,9.08,10.94,18.35,19.86,28.35,9.67,10.85,22.08,18.41,34.08,25.72,2.78,1.69,5.41,3.29,8.01,4.94l5.04,3.19,4.49-3.92c2.8-2.45,5.72-4.83,8.8-7.35,8.62-7.05,17.54-14.35,24.45-23.5,8.48-11.22,13.95-24.48,18.42-36.02,.64-1.66,1.1-3.32,1.49-4.86,2.09-8.13,3.61-20.43-1.03-32.81-2.65-7.06-7.83-14.11-14.21-19.32-7.2-5.88-15.5-9.13-23.37-9.13h0Z"/><path class="q" d="M120.42,452.44c-.23,4.39-.43,8.79-.7,13.18-.08,1.27,2.52,2.94,3.4,3.79,.43,.41,1.63,1.21,1.8,1.75,.61,1.91-3.43,2.87-4.1,4.45-1.08,2.55-.64,6.2-.32,8.82,.8,6.43,2,8.92,2.01,8.93,.16,.32,3.53-1.12,3.77-1.23,4.12-2.06,4.95-5.93,5.85-9.95,1.5-6.71,1.75-12.92-1.07-19.33-1.85-4.21-5.17-10.22-10.65-10.41Z"/><path class="q" d="M90.33,454.36c.67,.12,.07,7.54,.06,8.21-.03,1.73-.12,3.54,.13,5.26,.09,.62,.18,1.06,.54,1.57,.27,.38,3.99,3.26,3.89,3.41l-2.52,3.75c-.38,.56-.75,1.13-1,1.76-.34,.85-.42,1.79-.46,2.7-.11,2.19-.04,4.38,.21,6.56,.33,2.89,1.22,6.1,3.76,7.52,3.2-1.75,5.32-5.05,6.37-8.54s1.14-7.19,1.12-10.83c-.02-3.1-.11-6.21-.8-9.23-1.27-5.61-5.23-11.28-11.29-12.14Z"/><path class="q" d="M137.87,523.73s4.64,5.41,6.96,13.14c2.3,7.68,6.9,22.24,6.96,22.42,.17,.46,4.05,1.19,4.73,1.67,2.56-8.14,5.04-24.15,16.45-24.15,.4,0,.81,.02,1.23,.06,0,0,16.23,1.55,19.33,13.14,2.14,8.01-.14,16.58-3.79,23.79-3,5.95-6.27,12.3-12.04,16-3.91,2.51-8.58,4.13-13.24,4.13-1.9,0-3.8-.27-5.65-.86-6.45-2.06-13.88-6.91-9.35-14.46,0,0-9.28-3.09-3.86-10.05l-5.41-20.87s-4.64-17.01-9.28-17.01l6.96-6.96m.45-11.77l-6.11,6.11-6.96,6.96-13.66,13.66h16.64c1.29,2.32,3.08,6.93,4.22,11.07l4.58,17.65c-1.63,3.8-1.15,7.03-.6,8.86,.74,2.45,2.13,4.36,3.66,5.82-.16,2.44,.31,4.54,.92,6.15,2.82,7.47,10.84,11,15.37,12.45,2.58,.82,5.3,1.24,8.08,1.24,5.89,0,12.13-1.92,17.55-5.39,7.7-4.93,11.67-12.8,14.86-19.13,5.23-10.37,6.75-20.56,4.37-29.46-3.57-13.38-18.2-18.27-26.29-19.05-.68-.06-1.34-.1-2-.1-5.03,0-12.13,1.89-17.37,10.9-.35,.6-.68,1.21-.99,1.83-.78-2.54-1.53-4.99-2.13-6.97-2.73-9.09-7.96-15.36-8.55-16.05l-5.62-6.56h0Z"/><path class="d" d="M178.45,535.71c-7.44-.56-11.48,6.4-13.51,12.55-1.03,3.14-1.67,6.38-2.18,9.64-.76,4.87-3.11,8.71-6.97,11.81-2.07,1.66-4.46,3.47-5.65,5.91-1.59,3.26-2.08,6.96-3.38,10.33"/><path class="d" d="M157.94,567.74s14.32,20.53,24.37,20.53"/><line class="d" x1="156.22" y1="554.32" x2="148.89" y2="562.71"/><path class="q" d="M91.57,538l6.49,5.44c-.89,3.85-2.03,7.67-3.4,11.37-.95,2.57-2,5.24-3.58,7.51-2.36,3.41-6.34,4.65-10.48,4.65s-8.15-1.16-11.14-2.66l-7.94-3.16s-1.34,3.16-3.66,3.93c0,0-.77,6.18,2.32,9.28,2.49,2.49,7.02,2.69,8.81,5.94,1.82,3.29,.17,8.59-1.08,11.84-.82,2.18-2.18,5.67-4.69,6.27-.36,.09,.84,3.78-1.5,3.78s-17.01-5.41-20.87-9.28c-7.23-7.23-12.75-18.32-10.77-28.7,.99-5.18,3.04-10.14,5.36-14.85,.6-1.22,2.5-6.6,3.91-7.12,0,0,.54-.2,1.16-.2,.86,0,1.89,.38,1.89,2.17,0,0,2.56,3.19,5.34,3.19,.28,0,.56-.03,.84-.1,2.09-.52,2.77-2.46,4.91-2.46,1.02,0,2.37,.44,4.37,1.69,0,0,3.09,2.32,1.55,6.18,1.95,1.06,3.98,2,6.04,2.82,3.89,1.55,8.85,2.44,13.01,2.97,.32,.04,.63,.06,.93,.06,3.11,0,4.98-2.18,6.3-5.08,3.86-8.5,5.88-15.49,5.88-15.49m-4.28-14.03l-3.41,11.81c-.05,.18-1.96,6.66-5.48,14.4-.04,.09-.08,.16-.11,.24-5.2-.74-8.23-1.66-9.89-2.31-.3-.12-.6-.24-.89-.36-.74-3.25-2.65-5.95-4.85-7.61l-.27-.2-.29-.18c-3.17-1.98-5.91-2.91-8.61-2.91-2.06,0-3.73,.54-5.02,1.19-1.77-2.45-4.62-3.98-7.96-3.98-1.76,0-3.19,.42-3.89,.68-4.41,1.62-6.23,6.01-8,10.25-.15,.36-.28,.67-.37,.88-1.98,4.01-4.74,10.11-6.03,16.86-2.7,14.17,4.93,27.81,12.97,35.85,5.11,5.11,21.73,11.62,26.53,11.62,2.68,0,5.13-1.05,6.89-2.95,1.33-1.43,1.99-3.02,2.32-4.47,2.51-2.62,3.77-5.96,4.45-7.78,2.99-7.8,3.19-13.86,.6-18.55-.42-.76-.89-1.44-1.39-2.05,2.01,.38,4.04,.59,6,.59,7.38,0,13.43-2.87,17.05-8.09,2.1-3.02,3.38-6.25,4.51-9.29,1.48-4,2.73-8.15,3.7-12.35l1.1-4.78-3.76-3.15-6.49-5.44-9.42-7.9h0Z"/><path class="d" d="M48.59,546.53s-1.93,1.93-1.16,6.57"/><path class="d" d="M61.73,573.59s-5.27-2.32-8.43,0"/><path class="d" d="M58.64,565.86s-3.87,0-5.41-3.09"/><path class="d" d="M42.89,544.21c-2.63,4.6-4.8,9.55-6.18,14.61-2.47,9.02-.26,20.71,6.02,28.02,5.65,6.57,14.26,9.96,22.49,12.64"/></g><ellipse cx="182" cy="609.19" rx="40" ry="7"/><ellipse cx="15" cy="607.19" rx="15" ry="2"/><ellipse cx="276" cy="524.19" rx="22" ry="4"/><ellipse cx="214" cy="521.69" rx="18" ry="3.5"/><ellipse cx="694" cy="684.19" rx="194" ry="10"/><ellipse cx="433" cy="677.19" rx="29" ry="5"/><ellipse cx="948" cy="680.19" rx="29" ry="5"/><ellipse cx="1149" cy="505.69" rx="38" ry="6.5"/><ellipse cx="1288" cy="634.69" rx="15" ry="3.5"/><ellipse cx="1370.5" cy="607.19" rx="10.5" ry="2"/><path class="e" d="M716.9,62.14c16.14,5.84,28.23,21.25,28.52,38.62"/></g></g></g></svg>